<?xml version="1.0" encoding="utf-8" standalone="no"?>
<!DOCTYPE svg PUBLIC "-//W3C//DTD SVG 1.1//EN"
  "http://www.w3.org/Graphics/SVG/1.1/DTD/svg11.dtd">
<svg xmlns:xlink="http://www.w3.org/1999/xlink" width="720pt" height="432pt" viewBox="0 0 720 432" xmlns="http://www.w3.org/2000/svg" version="1.1">
 <metadata>
  <rdf:RDF xmlns:dc="http://purl.org/dc/elements/1.1/" xmlns:cc="http://creativecommons.org/ns#" xmlns:rdf="http://www.w3.org/1999/02/22-rdf-syntax-ns#">
   <cc:Work>
    <dc:type rdf:resource="http://purl.org/dc/dcmitype/StillImage"/>
    <dc:date>2023-11-12T19:01:38.088467</dc:date>
    <dc:format>image/svg+xml</dc:format>
    <dc:creator>
     <cc:Agent>
      <dc:title>Matplotlib v3.8.0, https://matplotlib.org/</dc:title>
     </cc:Agent>
    </dc:creator>
   </cc:Work>
  </rdf:RDF>
 </metadata>
 <defs>
  <style type="text/css">*{stroke-linejoin: round; stroke-linecap: butt}</style>
 </defs>
 <g id="figure_1">
  <g id="patch_1">
   <path d="M 0 432 
L 720 432 
L 720 0 
L 0 0 
z
" style="fill: #ffffff"/>
  </g>
  <g id="axes_1">
   <g id="patch_2">
    <path d="M 90 384.48 
L 648 384.48 
L 648 51.84 
L 90 51.84 
z
" style="fill: #ffffff"/>
   </g>
   <g id="matplotlib.axis_1">
    <g id="xtick_1">
     <g id="line2d_1">
      <defs>
       <path id="mf68de58d9f" d="M 0 0 
L 0 3.5 
" style="stroke: #000000; stroke-width: 0.8"/>
      </defs>
      <g>
       <use xlink:href="#mf68de58d9f" x="115.363636" y="384.48" style="stroke: #000000; stroke-width: 0.8"/>
      </g>
     </g>
     <g id="text_1">
      <!-- 0.0 -->
      <g transform="translate(107.412074 399.078438) scale(0.1 -0.1)">
       <defs>
        <path id="DejaVuSans-30" d="M 2034 4250 
Q 1547 4250 1301 3770 
Q 1056 3291 1056 2328 
Q 1056 1369 1301 889 
Q 1547 409 2034 409 
Q 2525 409 2770 889 
Q 3016 1369 3016 2328 
Q 3016 3291 2770 3770 
Q 2525 4250 2034 4250 
z
M 2034 4750 
Q 2819 4750 3233 4129 
Q 3647 3509 3647 2328 
Q 3647 1150 3233 529 
Q 2819 -91 2034 -91 
Q 1250 -91 836 529 
Q 422 1150 422 2328 
Q 422 3509 836 4129 
Q 1250 4750 2034 4750 
z
" transform="scale(0.015625)"/>
        <path id="DejaVuSans-2e" d="M 684 794 
L 1344 794 
L 1344 0 
L 684 0 
L 684 794 
z
" transform="scale(0.015625)"/>
       </defs>
       <use xlink:href="#DejaVuSans-30"/>
       <use xlink:href="#DejaVuSans-2e" x="63.623047"/>
       <use xlink:href="#DejaVuSans-30" x="95.410156"/>
      </g>
     </g>
    </g>
    <g id="xtick_2">
     <g id="line2d_2">
      <g>
       <use xlink:href="#mf68de58d9f" x="199.909091" y="384.48" style="stroke: #000000; stroke-width: 0.8"/>
      </g>
     </g>
     <g id="text_2">
      <!-- 0.1 -->
      <g transform="translate(191.957528 399.078438) scale(0.1 -0.1)">
       <defs>
        <path id="DejaVuSans-31" d="M 794 531 
L 1825 531 
L 1825 4091 
L 703 3866 
L 703 4441 
L 1819 4666 
L 2450 4666 
L 2450 531 
L 3481 531 
L 3481 0 
L 794 0 
L 794 531 
z
" transform="scale(0.015625)"/>
       </defs>
       <use xlink:href="#DejaVuSans-30"/>
       <use xlink:href="#DejaVuSans-2e" x="63.623047"/>
       <use xlink:href="#DejaVuSans-31" x="95.410156"/>
      </g>
     </g>
    </g>
    <g id="xtick_3">
     <g id="line2d_3">
      <g>
       <use xlink:href="#mf68de58d9f" x="284.454545" y="384.48" style="stroke: #000000; stroke-width: 0.8"/>
      </g>
     </g>
     <g id="text_3">
      <!-- 0.2 -->
      <g transform="translate(276.502983 399.078438) scale(0.1 -0.1)">
       <defs>
        <path id="DejaVuSans-32" d="M 1228 531 
L 3431 531 
L 3431 0 
L 469 0 
L 469 531 
Q 828 903 1448 1529 
Q 2069 2156 2228 2338 
Q 2531 2678 2651 2914 
Q 2772 3150 2772 3378 
Q 2772 3750 2511 3984 
Q 2250 4219 1831 4219 
Q 1534 4219 1204 4116 
Q 875 4013 500 3803 
L 500 4441 
Q 881 4594 1212 4672 
Q 1544 4750 1819 4750 
Q 2544 4750 2975 4387 
Q 3406 4025 3406 3419 
Q 3406 3131 3298 2873 
Q 3191 2616 2906 2266 
Q 2828 2175 2409 1742 
Q 1991 1309 1228 531 
z
" transform="scale(0.015625)"/>
       </defs>
       <use xlink:href="#DejaVuSans-30"/>
       <use xlink:href="#DejaVuSans-2e" x="63.623047"/>
       <use xlink:href="#DejaVuSans-32" x="95.410156"/>
      </g>
     </g>
    </g>
    <g id="xtick_4">
     <g id="line2d_4">
      <g>
       <use xlink:href="#mf68de58d9f" x="369" y="384.48" style="stroke: #000000; stroke-width: 0.8"/>
      </g>
     </g>
     <g id="text_4">
      <!-- 0.3 -->
      <g transform="translate(361.048438 399.078438) scale(0.1 -0.1)">
       <defs>
        <path id="DejaVuSans-33" d="M 2597 2516 
Q 3050 2419 3304 2112 
Q 3559 1806 3559 1356 
Q 3559 666 3084 287 
Q 2609 -91 1734 -91 
Q 1441 -91 1130 -33 
Q 819 25 488 141 
L 488 750 
Q 750 597 1062 519 
Q 1375 441 1716 441 
Q 2309 441 2620 675 
Q 2931 909 2931 1356 
Q 2931 1769 2642 2001 
Q 2353 2234 1838 2234 
L 1294 2234 
L 1294 2753 
L 1863 2753 
Q 2328 2753 2575 2939 
Q 2822 3125 2822 3475 
Q 2822 3834 2567 4026 
Q 2313 4219 1838 4219 
Q 1578 4219 1281 4162 
Q 984 4106 628 3988 
L 628 4550 
Q 988 4650 1302 4700 
Q 1616 4750 1894 4750 
Q 2613 4750 3031 4423 
Q 3450 4097 3450 3541 
Q 3450 3153 3228 2886 
Q 3006 2619 2597 2516 
z
" transform="scale(0.015625)"/>
       </defs>
       <use xlink:href="#DejaVuSans-30"/>
       <use xlink:href="#DejaVuSans-2e" x="63.623047"/>
       <use xlink:href="#DejaVuSans-33" x="95.410156"/>
      </g>
     </g>
    </g>
    <g id="xtick_5">
     <g id="line2d_5">
      <g>
       <use xlink:href="#mf68de58d9f" x="453.545455" y="384.48" style="stroke: #000000; stroke-width: 0.8"/>
      </g>
     </g>
     <g id="text_5">
      <!-- 0.4 -->
      <g transform="translate(445.593892 399.078438) scale(0.1 -0.1)">
       <defs>
        <path id="DejaVuSans-34" d="M 2419 4116 
L 825 1625 
L 2419 1625 
L 2419 4116 
z
M 2253 4666 
L 3047 4666 
L 3047 1625 
L 3713 1625 
L 3713 1100 
L 3047 1100 
L 3047 0 
L 2419 0 
L 2419 1100 
L 313 1100 
L 313 1709 
L 2253 4666 
z
" transform="scale(0.015625)"/>
       </defs>
       <use xlink:href="#DejaVuSans-30"/>
       <use xlink:href="#DejaVuSans-2e" x="63.623047"/>
       <use xlink:href="#DejaVuSans-34" x="95.410156"/>
      </g>
     </g>
    </g>
    <g id="xtick_6">
     <g id="line2d_6">
      <g>
       <use xlink:href="#mf68de58d9f" x="538.090909" y="384.48" style="stroke: #000000; stroke-width: 0.8"/>
      </g>
     </g>
     <g id="text_6">
      <!-- 0.5 -->
      <g transform="translate(530.139347 399.078438) scale(0.1 -0.1)">
       <defs>
        <path id="DejaVuSans-35" d="M 691 4666 
L 3169 4666 
L 3169 4134 
L 1269 4134 
L 1269 2991 
Q 1406 3038 1543 3061 
Q 1681 3084 1819 3084 
Q 2600 3084 3056 2656 
Q 3513 2228 3513 1497 
Q 3513 744 3044 326 
Q 2575 -91 1722 -91 
Q 1428 -91 1123 -41 
Q 819 9 494 109 
L 494 744 
Q 775 591 1075 516 
Q 1375 441 1709 441 
Q 2250 441 2565 725 
Q 2881 1009 2881 1497 
Q 2881 1984 2565 2268 
Q 2250 2553 1709 2553 
Q 1456 2553 1204 2497 
Q 953 2441 691 2322 
L 691 4666 
z
" transform="scale(0.015625)"/>
       </defs>
       <use xlink:href="#DejaVuSans-30"/>
       <use xlink:href="#DejaVuSans-2e" x="63.623047"/>
       <use xlink:href="#DejaVuSans-35" x="95.410156"/>
      </g>
     </g>
    </g>
    <g id="xtick_7">
     <g id="line2d_7">
      <g>
       <use xlink:href="#mf68de58d9f" x="622.636364" y="384.48" style="stroke: #000000; stroke-width: 0.8"/>
      </g>
     </g>
     <g id="text_7">
      <!-- 0.6 -->
      <g transform="translate(614.684801 399.078438) scale(0.1 -0.1)">
       <defs>
        <path id="DejaVuSans-36" d="M 2113 2584 
Q 1688 2584 1439 2293 
Q 1191 2003 1191 1497 
Q 1191 994 1439 701 
Q 1688 409 2113 409 
Q 2538 409 2786 701 
Q 3034 994 3034 1497 
Q 3034 2003 2786 2293 
Q 2538 2584 2113 2584 
z
M 3366 4563 
L 3366 3988 
Q 3128 4100 2886 4159 
Q 2644 4219 2406 4219 
Q 1781 4219 1451 3797 
Q 1122 3375 1075 2522 
Q 1259 2794 1537 2939 
Q 1816 3084 2150 3084 
Q 2853 3084 3261 2657 
Q 3669 2231 3669 1497 
Q 3669 778 3244 343 
Q 2819 -91 2113 -91 
Q 1303 -91 875 529 
Q 447 1150 447 2328 
Q 447 3434 972 4092 
Q 1497 4750 2381 4750 
Q 2619 4750 2861 4703 
Q 3103 4656 3366 4563 
z
" transform="scale(0.015625)"/>
       </defs>
       <use xlink:href="#DejaVuSans-30"/>
       <use xlink:href="#DejaVuSans-2e" x="63.623047"/>
       <use xlink:href="#DejaVuSans-36" x="95.410156"/>
      </g>
     </g>
    </g>
    <g id="text_8">
     <!-- Time (s) -->
     <g transform="translate(348.671094 412.756563) scale(0.1 -0.1)">
      <defs>
       <path id="DejaVuSans-54" d="M -19 4666 
L 3928 4666 
L 3928 4134 
L 2272 4134 
L 2272 0 
L 1638 0 
L 1638 4134 
L -19 4134 
L -19 4666 
z
" transform="scale(0.015625)"/>
       <path id="DejaVuSans-69" d="M 603 3500 
L 1178 3500 
L 1178 0 
L 603 0 
L 603 3500 
z
M 603 4863 
L 1178 4863 
L 1178 4134 
L 603 4134 
L 603 4863 
z
" transform="scale(0.015625)"/>
       <path id="DejaVuSans-6d" d="M 3328 2828 
Q 3544 3216 3844 3400 
Q 4144 3584 4550 3584 
Q 5097 3584 5394 3201 
Q 5691 2819 5691 2113 
L 5691 0 
L 5113 0 
L 5113 2094 
Q 5113 2597 4934 2840 
Q 4756 3084 4391 3084 
Q 3944 3084 3684 2787 
Q 3425 2491 3425 1978 
L 3425 0 
L 2847 0 
L 2847 2094 
Q 2847 2600 2669 2842 
Q 2491 3084 2119 3084 
Q 1678 3084 1418 2786 
Q 1159 2488 1159 1978 
L 1159 0 
L 581 0 
L 581 3500 
L 1159 3500 
L 1159 2956 
Q 1356 3278 1631 3431 
Q 1906 3584 2284 3584 
Q 2666 3584 2933 3390 
Q 3200 3197 3328 2828 
z
" transform="scale(0.015625)"/>
       <path id="DejaVuSans-65" d="M 3597 1894 
L 3597 1613 
L 953 1613 
Q 991 1019 1311 708 
Q 1631 397 2203 397 
Q 2534 397 2845 478 
Q 3156 559 3463 722 
L 3463 178 
Q 3153 47 2828 -22 
Q 2503 -91 2169 -91 
Q 1331 -91 842 396 
Q 353 884 353 1716 
Q 353 2575 817 3079 
Q 1281 3584 2069 3584 
Q 2775 3584 3186 3129 
Q 3597 2675 3597 1894 
z
M 3022 2063 
Q 3016 2534 2758 2815 
Q 2500 3097 2075 3097 
Q 1594 3097 1305 2825 
Q 1016 2553 972 2059 
L 3022 2063 
z
" transform="scale(0.015625)"/>
       <path id="DejaVuSans-20" transform="scale(0.015625)"/>
       <path id="DejaVuSans-28" d="M 1984 4856 
Q 1566 4138 1362 3434 
Q 1159 2731 1159 2009 
Q 1159 1288 1364 580 
Q 1569 -128 1984 -844 
L 1484 -844 
Q 1016 -109 783 600 
Q 550 1309 550 2009 
Q 550 2706 781 3412 
Q 1013 4119 1484 4856 
L 1984 4856 
z
" transform="scale(0.015625)"/>
       <path id="DejaVuSans-73" d="M 2834 3397 
L 2834 2853 
Q 2591 2978 2328 3040 
Q 2066 3103 1784 3103 
Q 1356 3103 1142 2972 
Q 928 2841 928 2578 
Q 928 2378 1081 2264 
Q 1234 2150 1697 2047 
L 1894 2003 
Q 2506 1872 2764 1633 
Q 3022 1394 3022 966 
Q 3022 478 2636 193 
Q 2250 -91 1575 -91 
Q 1294 -91 989 -36 
Q 684 19 347 128 
L 347 722 
Q 666 556 975 473 
Q 1284 391 1588 391 
Q 1994 391 2212 530 
Q 2431 669 2431 922 
Q 2431 1156 2273 1281 
Q 2116 1406 1581 1522 
L 1381 1569 
Q 847 1681 609 1914 
Q 372 2147 372 2553 
Q 372 3047 722 3315 
Q 1072 3584 1716 3584 
Q 2034 3584 2315 3537 
Q 2597 3491 2834 3397 
z
" transform="scale(0.015625)"/>
       <path id="DejaVuSans-29" d="M 513 4856 
L 1013 4856 
Q 1481 4119 1714 3412 
Q 1947 2706 1947 2009 
Q 1947 1309 1714 600 
Q 1481 -109 1013 -844 
L 513 -844 
Q 928 -128 1133 580 
Q 1338 1288 1338 2009 
Q 1338 2731 1133 3434 
Q 928 4138 513 4856 
z
" transform="scale(0.015625)"/>
      </defs>
      <use xlink:href="#DejaVuSans-54"/>
      <use xlink:href="#DejaVuSans-69" x="57.958984"/>
      <use xlink:href="#DejaVuSans-6d" x="85.742188"/>
      <use xlink:href="#DejaVuSans-65" x="183.154297"/>
      <use xlink:href="#DejaVuSans-20" x="244.677734"/>
      <use xlink:href="#DejaVuSans-28" x="276.464844"/>
      <use xlink:href="#DejaVuSans-73" x="315.478516"/>
      <use xlink:href="#DejaVuSans-29" x="367.578125"/>
     </g>
    </g>
   </g>
   <g id="matplotlib.axis_2">
    <g id="ytick_1">
     <g id="line2d_8">
      <defs>
       <path id="m32a25608e4" d="M 0 0 
L -3.5 0 
" style="stroke: #000000; stroke-width: 0.8"/>
      </defs>
      <g>
       <use xlink:href="#m32a25608e4" x="90" y="349.472441" style="stroke: #000000; stroke-width: 0.8"/>
      </g>
     </g>
     <g id="text_9">
      <!-- 0.0 -->
      <g transform="translate(67.096875 353.27166) scale(0.1 -0.1)">
       <use xlink:href="#DejaVuSans-30"/>
       <use xlink:href="#DejaVuSans-2e" x="63.623047"/>
       <use xlink:href="#DejaVuSans-30" x="95.410156"/>
      </g>
     </g>
    </g>
    <g id="ytick_2">
     <g id="line2d_9">
      <g>
       <use xlink:href="#m32a25608e4" x="90" y="285.214142" style="stroke: #000000; stroke-width: 0.8"/>
      </g>
     </g>
     <g id="text_10">
      <!-- 0.2 -->
      <g transform="translate(67.096875 289.013361) scale(0.1 -0.1)">
       <use xlink:href="#DejaVuSans-30"/>
       <use xlink:href="#DejaVuSans-2e" x="63.623047"/>
       <use xlink:href="#DejaVuSans-32" x="95.410156"/>
      </g>
     </g>
    </g>
    <g id="ytick_3">
     <g id="line2d_10">
      <g>
       <use xlink:href="#m32a25608e4" x="90" y="220.955843" style="stroke: #000000; stroke-width: 0.8"/>
      </g>
     </g>
     <g id="text_11">
      <!-- 0.4 -->
      <g transform="translate(67.096875 224.755061) scale(0.1 -0.1)">
       <use xlink:href="#DejaVuSans-30"/>
       <use xlink:href="#DejaVuSans-2e" x="63.623047"/>
       <use xlink:href="#DejaVuSans-34" x="95.410156"/>
      </g>
     </g>
    </g>
    <g id="ytick_4">
     <g id="line2d_11">
      <g>
       <use xlink:href="#m32a25608e4" x="90" y="156.697543" style="stroke: #000000; stroke-width: 0.8"/>
      </g>
     </g>
     <g id="text_12">
      <!-- 0.6 -->
      <g transform="translate(67.096875 160.496762) scale(0.1 -0.1)">
       <use xlink:href="#DejaVuSans-30"/>
       <use xlink:href="#DejaVuSans-2e" x="63.623047"/>
       <use xlink:href="#DejaVuSans-36" x="95.410156"/>
      </g>
     </g>
    </g>
    <g id="ytick_5">
     <g id="line2d_12">
      <g>
       <use xlink:href="#m32a25608e4" x="90" y="92.439244" style="stroke: #000000; stroke-width: 0.8"/>
      </g>
     </g>
     <g id="text_13">
      <!-- 0.8 -->
      <g transform="translate(67.096875 96.238463) scale(0.1 -0.1)">
       <defs>
        <path id="DejaVuSans-38" d="M 2034 2216 
Q 1584 2216 1326 1975 
Q 1069 1734 1069 1313 
Q 1069 891 1326 650 
Q 1584 409 2034 409 
Q 2484 409 2743 651 
Q 3003 894 3003 1313 
Q 3003 1734 2745 1975 
Q 2488 2216 2034 2216 
z
M 1403 2484 
Q 997 2584 770 2862 
Q 544 3141 544 3541 
Q 544 4100 942 4425 
Q 1341 4750 2034 4750 
Q 2731 4750 3128 4425 
Q 3525 4100 3525 3541 
Q 3525 3141 3298 2862 
Q 3072 2584 2669 2484 
Q 3125 2378 3379 2068 
Q 3634 1759 3634 1313 
Q 3634 634 3220 271 
Q 2806 -91 2034 -91 
Q 1263 -91 848 271 
Q 434 634 434 1313 
Q 434 1759 690 2068 
Q 947 2378 1403 2484 
z
M 1172 3481 
Q 1172 3119 1398 2916 
Q 1625 2713 2034 2713 
Q 2441 2713 2670 2916 
Q 2900 3119 2900 3481 
Q 2900 3844 2670 4047 
Q 2441 4250 2034 4250 
Q 1625 4250 1398 4047 
Q 1172 3844 1172 3481 
z
" transform="scale(0.015625)"/>
       </defs>
       <use xlink:href="#DejaVuSans-30"/>
       <use xlink:href="#DejaVuSans-2e" x="63.623047"/>
       <use xlink:href="#DejaVuSans-38" x="95.410156"/>
      </g>
     </g>
    </g>
    <g id="text_14">
     <!-- Amplitude -->
     <g transform="translate(61.017187 243.782656) rotate(-90) scale(0.1 -0.1)">
      <defs>
       <path id="DejaVuSans-41" d="M 2188 4044 
L 1331 1722 
L 3047 1722 
L 2188 4044 
z
M 1831 4666 
L 2547 4666 
L 4325 0 
L 3669 0 
L 3244 1197 
L 1141 1197 
L 716 0 
L 50 0 
L 1831 4666 
z
" transform="scale(0.015625)"/>
       <path id="DejaVuSans-70" d="M 1159 525 
L 1159 -1331 
L 581 -1331 
L 581 3500 
L 1159 3500 
L 1159 2969 
Q 1341 3281 1617 3432 
Q 1894 3584 2278 3584 
Q 2916 3584 3314 3078 
Q 3713 2572 3713 1747 
Q 3713 922 3314 415 
Q 2916 -91 2278 -91 
Q 1894 -91 1617 61 
Q 1341 213 1159 525 
z
M 3116 1747 
Q 3116 2381 2855 2742 
Q 2594 3103 2138 3103 
Q 1681 3103 1420 2742 
Q 1159 2381 1159 1747 
Q 1159 1113 1420 752 
Q 1681 391 2138 391 
Q 2594 391 2855 752 
Q 3116 1113 3116 1747 
z
" transform="scale(0.015625)"/>
       <path id="DejaVuSans-6c" d="M 603 4863 
L 1178 4863 
L 1178 0 
L 603 0 
L 603 4863 
z
" transform="scale(0.015625)"/>
       <path id="DejaVuSans-74" d="M 1172 4494 
L 1172 3500 
L 2356 3500 
L 2356 3053 
L 1172 3053 
L 1172 1153 
Q 1172 725 1289 603 
Q 1406 481 1766 481 
L 2356 481 
L 2356 0 
L 1766 0 
Q 1100 0 847 248 
Q 594 497 594 1153 
L 594 3053 
L 172 3053 
L 172 3500 
L 594 3500 
L 594 4494 
L 1172 4494 
z
" transform="scale(0.015625)"/>
       <path id="DejaVuSans-75" d="M 544 1381 
L 544 3500 
L 1119 3500 
L 1119 1403 
Q 1119 906 1312 657 
Q 1506 409 1894 409 
Q 2359 409 2629 706 
Q 2900 1003 2900 1516 
L 2900 3500 
L 3475 3500 
L 3475 0 
L 2900 0 
L 2900 538 
Q 2691 219 2414 64 
Q 2138 -91 1772 -91 
Q 1169 -91 856 284 
Q 544 659 544 1381 
z
M 1991 3584 
L 1991 3584 
z
" transform="scale(0.015625)"/>
       <path id="DejaVuSans-64" d="M 2906 2969 
L 2906 4863 
L 3481 4863 
L 3481 0 
L 2906 0 
L 2906 525 
Q 2725 213 2448 61 
Q 2172 -91 1784 -91 
Q 1150 -91 751 415 
Q 353 922 353 1747 
Q 353 2572 751 3078 
Q 1150 3584 1784 3584 
Q 2172 3584 2448 3432 
Q 2725 3281 2906 2969 
z
M 947 1747 
Q 947 1113 1208 752 
Q 1469 391 1925 391 
Q 2381 391 2643 752 
Q 2906 1113 2906 1747 
Q 2906 2381 2643 2742 
Q 2381 3103 1925 3103 
Q 1469 3103 1208 2742 
Q 947 2381 947 1747 
z
" transform="scale(0.015625)"/>
      </defs>
      <use xlink:href="#DejaVuSans-41"/>
      <use xlink:href="#DejaVuSans-6d" x="68.408203"/>
      <use xlink:href="#DejaVuSans-70" x="165.820312"/>
      <use xlink:href="#DejaVuSans-6c" x="229.296875"/>
      <use xlink:href="#DejaVuSans-69" x="257.080078"/>
      <use xlink:href="#DejaVuSans-74" x="284.863281"/>
      <use xlink:href="#DejaVuSans-75" x="324.072266"/>
      <use xlink:href="#DejaVuSans-64" x="387.451172"/>
      <use xlink:href="#DejaVuSans-65" x="450.927734"/>
     </g>
    </g>
   </g>
   <g id="line2d_13">
    <path d="M 115.363636 340.249386 
L 116.210502 339.063704 
L 117.057368 330.309237 
L 117.904234 333.750383 
L 118.7511 340.697263 
L 119.597966 338.91756 
L 120.444832 339.710196 
L 121.291698 338.86109 
L 122.138564 336.131091 
L 122.98543 335.538545 
L 123.832296 337.505797 
L 124.679162 339.107455 
L 125.526028 339.253614 
L 126.372894 337.009154 
L 127.21976 333.962747 
L 128.066626 338.236978 
L 128.913492 340.938988 
L 129.760358 339.85467 
L 130.607224 340.860599 
L 131.45409 344.03203 
L 132.300956 338.920961 
L 133.147822 337.141631 
L 133.994688 336.079105 
L 134.841554 339.251962 
L 135.68842 340.369074 
L 136.535286 343.406291 
L 137.382152 347.211915 
L 138.229018 345.83459 
L 139.075884 329.034507 
L 139.92275 336.635624 
L 140.769616 341.292857 
L 142.463348 343.745242 
L 143.310214 338.073811 
L 144.15708 344.48976 
L 145.003946 342.641371 
L 145.850812 343.95774 
L 146.697678 336.758634 
L 147.544544 336.485399 
L 148.39141 335.284445 
L 149.238276 345.979574 
L 150.932008 341.464317 
L 151.778874 338.320815 
L 152.62574 337.30653 
L 153.472606 337.620153 
L 154.319472 338.482062 
L 155.166338 341.958091 
L 156.013204 344.101776 
L 156.86007 344.817846 
L 158.553802 333.489047 
L 159.400668 340.685471 
L 160.247534 340.956533 
L 161.0944 343.745532 
L 161.941266 343.823651 
L 162.788132 342.52192 
L 163.634998 339.584271 
L 164.481864 342.300243 
L 165.32873 347.32167 
L 166.175596 346.784564 
L 167.022462 344.054721 
L 167.869328 342.008419 
L 168.716194 343.544189 
L 169.56306 344.240441 
L 170.409926 343.887654 
L 171.256792 339.927116 
L 172.103658 346.229854 
L 172.950524 348.152088 
L 173.79739 341.721348 
L 174.644256 343.506105 
L 175.491122 342.347496 
L 176.337988 345.190125 
L 177.184854 347.503407 
L 178.03172 342.940262 
L 178.878586 343.20449 
L 179.725452 347.743965 
L 180.572317 347.13924 
L 181.419183 350.861558 
L 182.266049 344.909584 
L 183.112915 342.765013 
L 183.959781 346.600066 
L 184.806647 345.727442 
L 185.653513 351.038614 
L 186.500379 349.413714 
L 187.347245 346.208758 
L 188.194111 347.700489 
L 189.040977 347.686588 
L 189.887843 348.536369 
L 190.734709 348.66916 
L 191.581575 344.699804 
L 192.428441 349.31983 
L 193.275307 344.829207 
L 194.122173 342.655733 
L 194.969039 348.925942 
L 195.815905 349.656951 
L 196.662771 345.829066 
L 197.509637 347.048136 
L 198.356503 342.62498 
L 199.203369 340.791962 
L 200.050235 344.709472 
L 200.897101 347.297112 
L 201.743967 345.460417 
L 202.590833 344.271763 
L 203.437699 346.586213 
L 205.131431 343.922273 
L 205.978297 339.142867 
L 206.825163 339.514506 
L 207.672029 344.169438 
L 208.518895 339.305781 
L 209.365761 342.029558 
L 210.212627 340.047673 
L 211.059493 336.494262 
L 211.906359 343.447563 
L 212.753225 341.343185 
L 213.600091 331.260619 
L 214.446957 328.929665 
L 215.293823 334.646816 
L 216.140689 338.129532 
L 216.987555 331.532392 
L 217.834421 336.95296 
L 218.681287 334.565026 
L 219.528153 336.06207 
L 220.375019 330.497516 
L 221.221885 332.31458 
L 222.068751 334.90846 
L 222.915617 329.230736 
L 223.762483 328.393149 
L 224.609349 331.320002 
L 225.456215 336.043331 
L 226.303081 331.379333 
L 227.149947 329.935233 
L 227.996813 327.722084 
L 228.843679 335.397072 
L 229.690545 333.020555 
L 230.537411 329.193195 
L 231.384277 335.926896 
L 232.231143 335.158609 
L 233.078009 326.016532 
L 233.924875 329.763103 
L 234.771741 327.039348 
L 235.618607 329.57417 
L 236.465473 333.191148 
L 237.312339 335.78271 
L 238.159205 325.483721 
L 239.006071 328.561096 
L 239.852937 332.768065 
L 240.699803 331.741156 
L 241.546669 332.107467 
L 242.393535 327.52617 
L 243.240401 328.337306 
L 244.087267 320.123068 
L 244.934133 323.762701 
L 245.780999 328.249165 
L 246.627865 329.221951 
L 247.474731 334.593368 
L 248.321597 329.57798 
L 249.168463 330.37065 
L 250.015329 322.247181 
L 250.862195 321.950883 
L 251.709061 330.484084 
L 252.555927 332.247465 
L 253.402793 331.217622 
L 254.249659 328.545473 
L 255.096525 333.493075 
L 255.94339 331.547394 
L 256.790256 330.229926 
L 257.637122 335.948158 
L 258.483988 337.2328 
L 259.330854 334.60846 
L 260.17772 334.776353 
L 261.024586 339.035689 
L 261.871452 341.486444 
L 262.718318 335.655962 
L 263.565184 338.054552 
L 264.41205 340.97183 
L 265.258916 342.924082 
L 266.105782 340.879655 
L 266.952648 342.113636 
L 267.799514 341.796804 
L 268.64638 346.227115 
L 269.493246 343.235356 
L 270.340112 343.528504 
L 271.186978 342.626209 
L 272.88071 348.430026 
L 273.727576 345.614488 
L 274.574442 348.229463 
L 275.421308 347.502144 
L 276.268174 350.166785 
L 277.11504 349.613628 
L 277.961906 350.210976 
L 279.655638 356.927767 
L 280.502504 352.480698 
L 281.34937 349.4609 
L 282.196236 348.752091 
L 283.043102 350.80272 
L 283.889968 357.282985 
L 284.736834 357.323247 
L 286.430566 353.86333 
L 287.277432 353.67889 
L 288.124298 358.284548 
L 288.971164 358.137266 
L 289.81803 358.553856 
L 290.664896 354.693453 
L 291.511762 354.038652 
L 292.358628 361.097419 
L 293.205494 354.663337 
L 294.05236 350.887675 
L 294.899226 358.596389 
L 295.746092 361.601415 
L 296.592958 360.613088 
L 297.439824 357.034829 
L 298.28669 361.137664 
L 299.133556 357.452452 
L 299.980422 356.586709 
L 300.827288 354.836624 
L 301.674154 360.507925 
L 302.52102 356.668575 
L 303.367886 353.362861 
L 305.061618 360.615221 
L 305.908484 362.564008 
L 306.75535 358.424734 
L 307.602216 355.540776 
L 308.449082 357.668227 
L 309.295948 358.069986 
L 310.142814 358.230416 
L 310.98968 360.33994 
L 311.836546 360.389395 
L 312.683412 358.056088 
L 313.530278 359.409206 
L 314.377144 361.025137 
L 315.22401 365.683745 
L 316.070876 359.421371 
L 316.917742 356.708327 
L 317.764608 362.105597 
L 318.611474 362.69925 
L 319.45834 360.271216 
L 320.305206 360.497582 
L 321.152072 361.259485 
L 321.998938 363.283604 
L 322.845804 366.120045 
L 323.69267 354.469064 
L 325.386402 360.336932 
L 326.233268 362.131942 
L 327.080134 364.667056 
L 327.927 359.818229 
L 328.773866 365.462471 
L 329.620732 360.560383 
L 330.467598 359.721536 
L 331.314463 363.164716 
L 332.161329 363.833774 
L 333.008195 362.754742 
L 333.855061 363.752403 
L 334.701927 363.750658 
L 335.548793 362.486623 
L 336.395659 361.674946 
L 337.242525 363.055132 
L 338.089391 369.36 
L 338.936257 351.001647 
L 339.783123 357.3248 
L 340.629989 351.447783 
L 341.476855 342.674991 
L 342.323721 348.753713 
L 343.170587 349.876849 
L 344.017453 333.847495 
L 344.864319 334.477382 
L 345.711185 340.488506 
L 346.558051 332.085334 
L 347.404917 317.945611 
L 348.251783 315.560891 
L 349.098649 309.725958 
L 349.945515 299.980266 
L 350.792381 294.387799 
L 351.639247 285.914875 
L 352.486113 273.888006 
L 353.332979 266.28569 
L 354.179845 263.780382 
L 355.026711 245.971021 
L 355.873577 244.684717 
L 356.720443 234.34157 
L 359.261041 187.182856 
L 360.107907 177.484195 
L 361.801639 150.491022 
L 363.495371 127.82261 
L 364.342237 113.105166 
L 365.189103 109.032573 
L 366.035969 99.118418 
L 366.882835 86.464468 
L 367.729701 88.966461 
L 368.576567 75.420518 
L 369.423433 72.72359 
L 370.270299 66.96 
L 371.117165 67.300384 
L 371.964031 78.796521 
L 372.810897 84.343257 
L 373.657763 92.083659 
L 375.351495 97.831865 
L 376.198361 110.318521 
L 377.045227 125.834658 
L 377.892093 133.224808 
L 378.738959 142.339296 
L 379.585825 153.878189 
L 380.432691 169.787594 
L 381.279557 172.405047 
L 382.973289 207.477511 
L 383.820155 223.434899 
L 384.667021 231.99861 
L 385.513887 237.202627 
L 386.360753 245.297563 
L 387.207619 259.507598 
L 388.054485 266.378569 
L 388.901351 270.74027 
L 389.748217 276.256105 
L 390.595083 278.45714 
L 391.441949 285.33991 
L 393.135681 300.927595 
L 393.982547 303.99195 
L 394.829413 304.155254 
L 395.676279 312.942088 
L 396.523145 314.238578 
L 397.370011 312.579664 
L 398.216877 316.408529 
L 399.063743 318.167723 
L 399.910609 319.077376 
L 400.757475 325.907106 
L 401.604341 326.472546 
L 402.451207 325.456335 
L 403.298073 336.067105 
L 404.144939 332.524444 
L 404.991805 331.592123 
L 405.838671 331.679445 
L 406.685537 336.50076 
L 407.532402 336.392031 
L 408.379268 339.045934 
L 409.226134 338.069521 
L 410.073 340.097158 
L 410.919866 343.28337 
L 411.766732 339.166003 
L 412.613598 340.064132 
L 413.460464 339.195663 
L 414.30733 344.555024 
L 415.154196 342.384715 
L 416.001062 346.13964 
L 416.847928 343.606046 
L 417.694794 343.84796 
L 418.54166 343.211533 
L 419.388526 336.068728 
L 420.235392 341.452332 
L 421.082258 343.636332 
L 421.929124 345.020729 
L 422.77599 345.754422 
L 423.622856 346.275809 
L 424.469722 343.069349 
L 425.316588 341.287886 
L 426.163454 344.865269 
L 427.857186 338.713906 
L 428.704052 337.648177 
L 429.550918 346.049394 
L 430.397784 353.099765 
L 431.24465 346.124213 
L 432.938382 339.608299 
L 433.785248 340.060104 
L 434.632114 342.380819 
L 435.47898 346.248794 
L 436.325846 342.862898 
L 437.172712 342.595992 
L 438.019578 343.55398 
L 438.866444 340.699707 
L 439.71331 340.871451 
L 440.560176 338.63182 
L 441.407042 342.55489 
L 442.253908 341.279315 
L 443.100774 339.69944 
L 443.94764 339.31861 
L 444.794506 345.803854 
L 445.641372 340.763845 
L 446.488238 339.987119 
L 447.335104 335.351653 
L 448.18197 336.969253 
L 449.028836 339.222353 
L 449.875702 341.110472 
L 450.722568 340.26423 
L 451.569434 332.552489 
L 452.4163 329.624451 
L 453.263166 341.326134 
L 454.110032 343.579101 
L 454.956898 334.710953 
L 455.803764 333.621733 
L 456.65063 337.672221 
L 457.497496 335.887585 
L 458.344362 332.148328 
L 459.191228 331.1314 
L 460.038094 333.797675 
L 460.88496 337.427075 
L 461.731826 334.718729 
L 462.578692 334.475595 
L 463.425558 332.509999 
L 464.272424 335.050456 
L 465.11929 335.69046 
L 465.966156 334.730167 
L 466.813022 334.02823 
L 467.659888 332.149227 
L 468.506754 329.848878 
L 469.35362 322.974904 
L 470.200486 328.286863 
L 471.047352 331.882585 
L 471.894218 330.605153 
L 472.741084 327.817425 
L 473.58795 327.078989 
L 474.434816 325.383532 
L 475.281682 325.775281 
L 476.128548 319.915607 
L 476.975414 319.696156 
L 477.82228 318.611956 
L 478.669146 325.213027 
L 479.516012 323.686492 
L 480.362878 321.80007 
L 481.209744 324.14659 
L 482.05661 321.605003 
L 482.903475 313.133788 
L 484.597207 319.561094 
L 485.444073 318.292854 
L 486.290939 321.88546 
L 487.137805 316.207268 
L 487.984671 316.166667 
L 488.831537 318.192043 
L 489.678403 313.899761 
L 490.525269 312.022497 
L 491.372135 314.994214 
L 492.219001 315.811045 
L 493.065867 315.835153 
L 493.912733 314.864619 
L 494.759599 309.191995 
L 496.453331 304.508542 
L 497.300197 309.378658 
L 498.147063 311.295529 
L 498.993929 308.329681 
L 499.840795 306.581411 
L 500.687661 312.602354 
L 501.534527 310.091408 
L 502.381393 307.139114 
L 503.228259 311.745712 
L 504.075125 302.369996 
L 504.921991 309.357969 
L 505.768857 310.859325 
L 506.615723 306.285128 
L 507.462589 300.389545 
L 508.309455 305.523902 
L 509.156321 314.016724 
L 510.003187 312.267173 
L 510.850053 301.100346 
L 511.696919 304.251122 
L 512.543785 311.391227 
L 513.390651 311.290959 
L 514.237517 311.847948 
L 515.084383 301.137228 
L 515.931249 303.724342 
L 516.778115 310.35038 
L 517.624981 312.152154 
L 518.471847 308.418865 
L 519.318713 311.849236 
L 520.165579 311.680383 
L 521.012445 310.973729 
L 521.859311 311.176284 
L 522.706177 310.996398 
L 523.553043 307.070258 
L 525.246775 312.443704 
L 526.093641 315.345866 
L 526.940507 312.330578 
L 527.787373 310.819304 
L 528.634239 313.138673 
L 529.481105 312.653987 
L 530.327971 312.926452 
L 531.174837 309.03088 
L 532.021703 314.287576 
L 532.868569 312.271188 
L 533.715435 312.712713 
L 534.562301 310.900862 
L 535.409167 311.423512 
L 536.256033 312.560461 
L 537.102899 311.367199 
L 537.949765 316.900682 
L 538.796631 319.793781 
L 540.490363 314.142167 
L 541.337229 320.493602 
L 542.184095 316.356254 
L 543.030961 314.844994 
L 543.877827 318.854105 
L 544.724693 320.254353 
L 545.571559 322.55801 
L 546.418425 320.764588 
L 547.265291 322.227661 
L 548.112157 318.113057 
L 548.959023 321.947992 
L 549.805889 323.8898 
L 550.652755 319.393963 
L 551.499621 319.658499 
L 552.346487 328.475107 
L 553.193353 330.031329 
L 554.040219 327.440033 
L 554.887085 323.024129 
L 555.733951 331.167752 
L 556.580817 318.045325 
L 557.427683 327.501584 
L 558.274548 332.449203 
L 559.121414 330.778958 
L 559.96828 331.176524 
L 560.815146 333.969644 
L 561.662012 330.676046 
L 562.508878 330.040065 
L 563.355744 330.469585 
L 564.20261 333.105576 
L 565.049476 335.249573 
L 565.896342 332.137777 
L 566.743208 333.688494 
L 567.590074 332.929765 
L 568.43694 333.28331 
L 569.283806 338.381688 
L 570.130672 335.119485 
L 570.977538 329.475899 
L 571.824404 333.581335 
L 572.67127 332.273726 
L 573.518136 331.640095 
L 574.365002 333.979573 
L 575.211868 335.836225 
L 576.058734 337.375202 
L 576.9056 338.343236 
L 577.752466 338.578764 
L 578.599332 338.198004 
L 579.446198 338.539383 
L 580.293064 339.656177 
L 581.13993 344.925765 
L 581.986796 340.140109 
L 582.833662 340.855105 
L 583.680528 342.528769 
L 584.527394 335.23972 
L 585.37426 340.411382 
L 586.221126 339.631374 
L 587.067992 347.11764 
L 588.761724 341.519499 
L 589.60859 342.16868 
L 590.455456 343.653665 
L 591.302322 345.398529 
L 592.149188 342.52305 
L 592.996054 340.989535 
L 594.689786 346.090511 
L 595.536652 345.095417 
L 596.383518 340.417398 
L 597.230384 348.645942 
L 598.924116 347.187539 
L 599.770982 341.978176 
L 600.617848 344.715269 
L 601.464714 350.669362 
L 602.31158 349.059868 
L 603.158446 345.260591 
L 604.005312 342.16775 
L 604.852178 344.819311 
L 605.699044 349.169098 
L 606.54591 347.924681 
L 607.392776 342.100358 
L 608.239642 345.717442 
L 609.086508 340.466815 
L 609.933374 339.303115 
L 610.78024 347.957142 
L 611.627106 340.37492 
L 612.473972 343.030998 
L 613.320838 347.785826 
L 614.167704 345.959356 
L 615.01457 344.514616 
L 615.861436 337.20724 
L 616.708302 338.328173 
L 618.402034 346.22571 
L 619.2489 343.344955 
L 620.095766 346.827631 
L 620.942632 338.891195 
L 621.789498 337.376032 
L 622.636364 344.79751 
L 622.636364 344.79751 
" clip-path="url(#p723a166400)" style="fill: none; stroke: #1f77b4; stroke-width: 1.5; stroke-linecap: square"/>
   </g>
   <g id="patch_3">
    <path d="M 90 384.48 
L 90 51.84 
" style="fill: none; stroke: #000000; stroke-width: 0.8; stroke-linejoin: miter; stroke-linecap: square"/>
   </g>
   <g id="patch_4">
    <path d="M 648 384.48 
L 648 51.84 
" style="fill: none; stroke: #000000; stroke-width: 0.8; stroke-linejoin: miter; stroke-linecap: square"/>
   </g>
   <g id="patch_5">
    <path d="M 90 384.48 
L 648 384.48 
" style="fill: none; stroke: #000000; stroke-width: 0.8; stroke-linejoin: miter; stroke-linecap: square"/>
   </g>
   <g id="patch_6">
    <path d="M 90 51.84 
L 648 51.84 
" style="fill: none; stroke: #000000; stroke-width: 0.8; stroke-linejoin: miter; stroke-linecap: square"/>
   </g>
   <g id="text_15">
    <!-- ECG Wavelet (After LMS Filtration) -->
    <g transform="translate(266.807813 45.84) scale(0.12 -0.12)">
     <defs>
      <path id="DejaVuSans-45" d="M 628 4666 
L 3578 4666 
L 3578 4134 
L 1259 4134 
L 1259 2753 
L 3481 2753 
L 3481 2222 
L 1259 2222 
L 1259 531 
L 3634 531 
L 3634 0 
L 628 0 
L 628 4666 
z
" transform="scale(0.015625)"/>
      <path id="DejaVuSans-43" d="M 4122 4306 
L 4122 3641 
Q 3803 3938 3442 4084 
Q 3081 4231 2675 4231 
Q 1875 4231 1450 3742 
Q 1025 3253 1025 2328 
Q 1025 1406 1450 917 
Q 1875 428 2675 428 
Q 3081 428 3442 575 
Q 3803 722 4122 1019 
L 4122 359 
Q 3791 134 3420 21 
Q 3050 -91 2638 -91 
Q 1578 -91 968 557 
Q 359 1206 359 2328 
Q 359 3453 968 4101 
Q 1578 4750 2638 4750 
Q 3056 4750 3426 4639 
Q 3797 4528 4122 4306 
z
" transform="scale(0.015625)"/>
      <path id="DejaVuSans-47" d="M 3809 666 
L 3809 1919 
L 2778 1919 
L 2778 2438 
L 4434 2438 
L 4434 434 
Q 4069 175 3628 42 
Q 3188 -91 2688 -91 
Q 1594 -91 976 548 
Q 359 1188 359 2328 
Q 359 3472 976 4111 
Q 1594 4750 2688 4750 
Q 3144 4750 3555 4637 
Q 3966 4525 4313 4306 
L 4313 3634 
Q 3963 3931 3569 4081 
Q 3175 4231 2741 4231 
Q 1884 4231 1454 3753 
Q 1025 3275 1025 2328 
Q 1025 1384 1454 906 
Q 1884 428 2741 428 
Q 3075 428 3337 486 
Q 3600 544 3809 666 
z
" transform="scale(0.015625)"/>
      <path id="DejaVuSans-57" d="M 213 4666 
L 850 4666 
L 1831 722 
L 2809 4666 
L 3519 4666 
L 4500 722 
L 5478 4666 
L 6119 4666 
L 4947 0 
L 4153 0 
L 3169 4050 
L 2175 0 
L 1381 0 
L 213 4666 
z
" transform="scale(0.015625)"/>
      <path id="DejaVuSans-61" d="M 2194 1759 
Q 1497 1759 1228 1600 
Q 959 1441 959 1056 
Q 959 750 1161 570 
Q 1363 391 1709 391 
Q 2188 391 2477 730 
Q 2766 1069 2766 1631 
L 2766 1759 
L 2194 1759 
z
M 3341 1997 
L 3341 0 
L 2766 0 
L 2766 531 
Q 2569 213 2275 61 
Q 1981 -91 1556 -91 
Q 1019 -91 701 211 
Q 384 513 384 1019 
Q 384 1609 779 1909 
Q 1175 2209 1959 2209 
L 2766 2209 
L 2766 2266 
Q 2766 2663 2505 2880 
Q 2244 3097 1772 3097 
Q 1472 3097 1187 3025 
Q 903 2953 641 2809 
L 641 3341 
Q 956 3463 1253 3523 
Q 1550 3584 1831 3584 
Q 2591 3584 2966 3190 
Q 3341 2797 3341 1997 
z
" transform="scale(0.015625)"/>
      <path id="DejaVuSans-76" d="M 191 3500 
L 800 3500 
L 1894 563 
L 2988 3500 
L 3597 3500 
L 2284 0 
L 1503 0 
L 191 3500 
z
" transform="scale(0.015625)"/>
      <path id="DejaVuSans-66" d="M 2375 4863 
L 2375 4384 
L 1825 4384 
Q 1516 4384 1395 4259 
Q 1275 4134 1275 3809 
L 1275 3500 
L 2222 3500 
L 2222 3053 
L 1275 3053 
L 1275 0 
L 697 0 
L 697 3053 
L 147 3053 
L 147 3500 
L 697 3500 
L 697 3744 
Q 697 4328 969 4595 
Q 1241 4863 1831 4863 
L 2375 4863 
z
" transform="scale(0.015625)"/>
      <path id="DejaVuSans-72" d="M 2631 2963 
Q 2534 3019 2420 3045 
Q 2306 3072 2169 3072 
Q 1681 3072 1420 2755 
Q 1159 2438 1159 1844 
L 1159 0 
L 581 0 
L 581 3500 
L 1159 3500 
L 1159 2956 
Q 1341 3275 1631 3429 
Q 1922 3584 2338 3584 
Q 2397 3584 2469 3576 
Q 2541 3569 2628 3553 
L 2631 2963 
z
" transform="scale(0.015625)"/>
      <path id="DejaVuSans-4c" d="M 628 4666 
L 1259 4666 
L 1259 531 
L 3531 531 
L 3531 0 
L 628 0 
L 628 4666 
z
" transform="scale(0.015625)"/>
      <path id="DejaVuSans-4d" d="M 628 4666 
L 1569 4666 
L 2759 1491 
L 3956 4666 
L 4897 4666 
L 4897 0 
L 4281 0 
L 4281 4097 
L 3078 897 
L 2444 897 
L 1241 4097 
L 1241 0 
L 628 0 
L 628 4666 
z
" transform="scale(0.015625)"/>
      <path id="DejaVuSans-53" d="M 3425 4513 
L 3425 3897 
Q 3066 4069 2747 4153 
Q 2428 4238 2131 4238 
Q 1616 4238 1336 4038 
Q 1056 3838 1056 3469 
Q 1056 3159 1242 3001 
Q 1428 2844 1947 2747 
L 2328 2669 
Q 3034 2534 3370 2195 
Q 3706 1856 3706 1288 
Q 3706 609 3251 259 
Q 2797 -91 1919 -91 
Q 1588 -91 1214 -16 
Q 841 59 441 206 
L 441 856 
Q 825 641 1194 531 
Q 1563 422 1919 422 
Q 2459 422 2753 634 
Q 3047 847 3047 1241 
Q 3047 1584 2836 1778 
Q 2625 1972 2144 2069 
L 1759 2144 
Q 1053 2284 737 2584 
Q 422 2884 422 3419 
Q 422 4038 858 4394 
Q 1294 4750 2059 4750 
Q 2388 4750 2728 4690 
Q 3069 4631 3425 4513 
z
" transform="scale(0.015625)"/>
      <path id="DejaVuSans-46" d="M 628 4666 
L 3309 4666 
L 3309 4134 
L 1259 4134 
L 1259 2759 
L 3109 2759 
L 3109 2228 
L 1259 2228 
L 1259 0 
L 628 0 
L 628 4666 
z
" transform="scale(0.015625)"/>
      <path id="DejaVuSans-6f" d="M 1959 3097 
Q 1497 3097 1228 2736 
Q 959 2375 959 1747 
Q 959 1119 1226 758 
Q 1494 397 1959 397 
Q 2419 397 2687 759 
Q 2956 1122 2956 1747 
Q 2956 2369 2687 2733 
Q 2419 3097 1959 3097 
z
M 1959 3584 
Q 2709 3584 3137 3096 
Q 3566 2609 3566 1747 
Q 3566 888 3137 398 
Q 2709 -91 1959 -91 
Q 1206 -91 779 398 
Q 353 888 353 1747 
Q 353 2609 779 3096 
Q 1206 3584 1959 3584 
z
" transform="scale(0.015625)"/>
      <path id="DejaVuSans-6e" d="M 3513 2113 
L 3513 0 
L 2938 0 
L 2938 2094 
Q 2938 2591 2744 2837 
Q 2550 3084 2163 3084 
Q 1697 3084 1428 2787 
Q 1159 2491 1159 1978 
L 1159 0 
L 581 0 
L 581 3500 
L 1159 3500 
L 1159 2956 
Q 1366 3272 1645 3428 
Q 1925 3584 2291 3584 
Q 2894 3584 3203 3211 
Q 3513 2838 3513 2113 
z
" transform="scale(0.015625)"/>
     </defs>
     <use xlink:href="#DejaVuSans-45"/>
     <use xlink:href="#DejaVuSans-43" x="63.183594"/>
     <use xlink:href="#DejaVuSans-47" x="133.007812"/>
     <use xlink:href="#DejaVuSans-20" x="210.498047"/>
     <use xlink:href="#DejaVuSans-57" x="242.285156"/>
     <use xlink:href="#DejaVuSans-61" x="334.787109"/>
     <use xlink:href="#DejaVuSans-76" x="396.066406"/>
     <use xlink:href="#DejaVuSans-65" x="455.246094"/>
     <use xlink:href="#DejaVuSans-6c" x="516.769531"/>
     <use xlink:href="#DejaVuSans-65" x="544.552734"/>
     <use xlink:href="#DejaVuSans-74" x="606.076172"/>
     <use xlink:href="#DejaVuSans-20" x="645.285156"/>
     <use xlink:href="#DejaVuSans-28" x="677.072266"/>
     <use xlink:href="#DejaVuSans-41" x="716.085938"/>
     <use xlink:href="#DejaVuSans-66" x="780.869141"/>
     <use xlink:href="#DejaVuSans-74" x="814.324219"/>
     <use xlink:href="#DejaVuSans-65" x="853.533203"/>
     <use xlink:href="#DejaVuSans-72" x="915.056641"/>
     <use xlink:href="#DejaVuSans-20" x="956.169922"/>
     <use xlink:href="#DejaVuSans-4c" x="987.957031"/>
     <use xlink:href="#DejaVuSans-4d" x="1043.669922"/>
     <use xlink:href="#DejaVuSans-53" x="1129.949219"/>
     <use xlink:href="#DejaVuSans-20" x="1193.425781"/>
     <use xlink:href="#DejaVuSans-46" x="1225.212891"/>
     <use xlink:href="#DejaVuSans-69" x="1275.482422"/>
     <use xlink:href="#DejaVuSans-6c" x="1303.265625"/>
     <use xlink:href="#DejaVuSans-74" x="1331.048828"/>
     <use xlink:href="#DejaVuSans-72" x="1370.257812"/>
     <use xlink:href="#DejaVuSans-61" x="1411.371094"/>
     <use xlink:href="#DejaVuSans-74" x="1472.650391"/>
     <use xlink:href="#DejaVuSans-69" x="1511.859375"/>
     <use xlink:href="#DejaVuSans-6f" x="1539.642578"/>
     <use xlink:href="#DejaVuSans-6e" x="1600.824219"/>
     <use xlink:href="#DejaVuSans-29" x="1664.203125"/>
    </g>
   </g>
  </g>
 </g>
 <defs>
  <clipPath id="p723a166400">
   <rect x="90" y="51.84" width="558" height="332.64"/>
  </clipPath>
 </defs>
</svg>
