<?xml version="1.0" encoding="utf-8" standalone="no"?>
<!DOCTYPE svg PUBLIC "-//W3C//DTD SVG 1.1//EN"
  "http://www.w3.org/Graphics/SVG/1.1/DTD/svg11.dtd">
<svg xmlns:xlink="http://www.w3.org/1999/xlink" width="720pt" height="432pt" viewBox="0 0 720 432" xmlns="http://www.w3.org/2000/svg" version="1.1">
 <metadata>
  <rdf:RDF xmlns:dc="http://purl.org/dc/elements/1.1/" xmlns:cc="http://creativecommons.org/ns#" xmlns:rdf="http://www.w3.org/1999/02/22-rdf-syntax-ns#">
   <cc:Work>
    <dc:type rdf:resource="http://purl.org/dc/dcmitype/StillImage"/>
    <dc:date>2023-11-09T12:20:57.505922</dc:date>
    <dc:format>image/svg+xml</dc:format>
    <dc:creator>
     <cc:Agent>
      <dc:title>Matplotlib v3.8.0, https://matplotlib.org/</dc:title>
     </cc:Agent>
    </dc:creator>
   </cc:Work>
  </rdf:RDF>
 </metadata>
 <defs>
  <style type="text/css">*{stroke-linejoin: round; stroke-linecap: butt}</style>
 </defs>
 <g id="figure_1">
  <g id="patch_1">
   <path d="M 0 432 
L 720 432 
L 720 0 
L 0 0 
z
" style="fill: #ffffff"/>
  </g>
  <g id="axes_1">
   <g id="patch_2">
    <path d="M 90 384.48 
L 648 384.48 
L 648 51.84 
L 90 51.84 
z
" style="fill: #ffffff"/>
   </g>
   <g id="matplotlib.axis_1">
    <g id="xtick_1">
     <g id="line2d_1">
      <defs>
       <path id="m9f7fcc33a5" d="M 0 0 
L 0 3.5 
" style="stroke: #000000; stroke-width: 0.8"/>
      </defs>
      <g>
       <use xlink:href="#m9f7fcc33a5" x="115.363636" y="384.48" style="stroke: #000000; stroke-width: 0.8"/>
      </g>
     </g>
     <g id="text_1">
      <!-- 0.0 -->
      <g transform="translate(107.412074 399.078438) scale(0.1 -0.1)">
       <defs>
        <path id="DejaVuSans-30" d="M 2034 4250 
Q 1547 4250 1301 3770 
Q 1056 3291 1056 2328 
Q 1056 1369 1301 889 
Q 1547 409 2034 409 
Q 2525 409 2770 889 
Q 3016 1369 3016 2328 
Q 3016 3291 2770 3770 
Q 2525 4250 2034 4250 
z
M 2034 4750 
Q 2819 4750 3233 4129 
Q 3647 3509 3647 2328 
Q 3647 1150 3233 529 
Q 2819 -91 2034 -91 
Q 1250 -91 836 529 
Q 422 1150 422 2328 
Q 422 3509 836 4129 
Q 1250 4750 2034 4750 
z
" transform="scale(0.015625)"/>
        <path id="DejaVuSans-2e" d="M 684 794 
L 1344 794 
L 1344 0 
L 684 0 
L 684 794 
z
" transform="scale(0.015625)"/>
       </defs>
       <use xlink:href="#DejaVuSans-30"/>
       <use xlink:href="#DejaVuSans-2e" x="63.623047"/>
       <use xlink:href="#DejaVuSans-30" x="95.410156"/>
      </g>
     </g>
    </g>
    <g id="xtick_2">
     <g id="line2d_2">
      <g>
       <use xlink:href="#m9f7fcc33a5" x="199.909091" y="384.48" style="stroke: #000000; stroke-width: 0.8"/>
      </g>
     </g>
     <g id="text_2">
      <!-- 0.1 -->
      <g transform="translate(191.957528 399.078438) scale(0.1 -0.1)">
       <defs>
        <path id="DejaVuSans-31" d="M 794 531 
L 1825 531 
L 1825 4091 
L 703 3866 
L 703 4441 
L 1819 4666 
L 2450 4666 
L 2450 531 
L 3481 531 
L 3481 0 
L 794 0 
L 794 531 
z
" transform="scale(0.015625)"/>
       </defs>
       <use xlink:href="#DejaVuSans-30"/>
       <use xlink:href="#DejaVuSans-2e" x="63.623047"/>
       <use xlink:href="#DejaVuSans-31" x="95.410156"/>
      </g>
     </g>
    </g>
    <g id="xtick_3">
     <g id="line2d_3">
      <g>
       <use xlink:href="#m9f7fcc33a5" x="284.454545" y="384.48" style="stroke: #000000; stroke-width: 0.8"/>
      </g>
     </g>
     <g id="text_3">
      <!-- 0.2 -->
      <g transform="translate(276.502983 399.078438) scale(0.1 -0.1)">
       <defs>
        <path id="DejaVuSans-32" d="M 1228 531 
L 3431 531 
L 3431 0 
L 469 0 
L 469 531 
Q 828 903 1448 1529 
Q 2069 2156 2228 2338 
Q 2531 2678 2651 2914 
Q 2772 3150 2772 3378 
Q 2772 3750 2511 3984 
Q 2250 4219 1831 4219 
Q 1534 4219 1204 4116 
Q 875 4013 500 3803 
L 500 4441 
Q 881 4594 1212 4672 
Q 1544 4750 1819 4750 
Q 2544 4750 2975 4387 
Q 3406 4025 3406 3419 
Q 3406 3131 3298 2873 
Q 3191 2616 2906 2266 
Q 2828 2175 2409 1742 
Q 1991 1309 1228 531 
z
" transform="scale(0.015625)"/>
       </defs>
       <use xlink:href="#DejaVuSans-30"/>
       <use xlink:href="#DejaVuSans-2e" x="63.623047"/>
       <use xlink:href="#DejaVuSans-32" x="95.410156"/>
      </g>
     </g>
    </g>
    <g id="xtick_4">
     <g id="line2d_4">
      <g>
       <use xlink:href="#m9f7fcc33a5" x="369" y="384.48" style="stroke: #000000; stroke-width: 0.8"/>
      </g>
     </g>
     <g id="text_4">
      <!-- 0.3 -->
      <g transform="translate(361.048438 399.078438) scale(0.1 -0.1)">
       <defs>
        <path id="DejaVuSans-33" d="M 2597 2516 
Q 3050 2419 3304 2112 
Q 3559 1806 3559 1356 
Q 3559 666 3084 287 
Q 2609 -91 1734 -91 
Q 1441 -91 1130 -33 
Q 819 25 488 141 
L 488 750 
Q 750 597 1062 519 
Q 1375 441 1716 441 
Q 2309 441 2620 675 
Q 2931 909 2931 1356 
Q 2931 1769 2642 2001 
Q 2353 2234 1838 2234 
L 1294 2234 
L 1294 2753 
L 1863 2753 
Q 2328 2753 2575 2939 
Q 2822 3125 2822 3475 
Q 2822 3834 2567 4026 
Q 2313 4219 1838 4219 
Q 1578 4219 1281 4162 
Q 984 4106 628 3988 
L 628 4550 
Q 988 4650 1302 4700 
Q 1616 4750 1894 4750 
Q 2613 4750 3031 4423 
Q 3450 4097 3450 3541 
Q 3450 3153 3228 2886 
Q 3006 2619 2597 2516 
z
" transform="scale(0.015625)"/>
       </defs>
       <use xlink:href="#DejaVuSans-30"/>
       <use xlink:href="#DejaVuSans-2e" x="63.623047"/>
       <use xlink:href="#DejaVuSans-33" x="95.410156"/>
      </g>
     </g>
    </g>
    <g id="xtick_5">
     <g id="line2d_5">
      <g>
       <use xlink:href="#m9f7fcc33a5" x="453.545455" y="384.48" style="stroke: #000000; stroke-width: 0.8"/>
      </g>
     </g>
     <g id="text_5">
      <!-- 0.4 -->
      <g transform="translate(445.593892 399.078438) scale(0.1 -0.1)">
       <defs>
        <path id="DejaVuSans-34" d="M 2419 4116 
L 825 1625 
L 2419 1625 
L 2419 4116 
z
M 2253 4666 
L 3047 4666 
L 3047 1625 
L 3713 1625 
L 3713 1100 
L 3047 1100 
L 3047 0 
L 2419 0 
L 2419 1100 
L 313 1100 
L 313 1709 
L 2253 4666 
z
" transform="scale(0.015625)"/>
       </defs>
       <use xlink:href="#DejaVuSans-30"/>
       <use xlink:href="#DejaVuSans-2e" x="63.623047"/>
       <use xlink:href="#DejaVuSans-34" x="95.410156"/>
      </g>
     </g>
    </g>
    <g id="xtick_6">
     <g id="line2d_6">
      <g>
       <use xlink:href="#m9f7fcc33a5" x="538.090909" y="384.48" style="stroke: #000000; stroke-width: 0.8"/>
      </g>
     </g>
     <g id="text_6">
      <!-- 0.5 -->
      <g transform="translate(530.139347 399.078438) scale(0.1 -0.1)">
       <defs>
        <path id="DejaVuSans-35" d="M 691 4666 
L 3169 4666 
L 3169 4134 
L 1269 4134 
L 1269 2991 
Q 1406 3038 1543 3061 
Q 1681 3084 1819 3084 
Q 2600 3084 3056 2656 
Q 3513 2228 3513 1497 
Q 3513 744 3044 326 
Q 2575 -91 1722 -91 
Q 1428 -91 1123 -41 
Q 819 9 494 109 
L 494 744 
Q 775 591 1075 516 
Q 1375 441 1709 441 
Q 2250 441 2565 725 
Q 2881 1009 2881 1497 
Q 2881 1984 2565 2268 
Q 2250 2553 1709 2553 
Q 1456 2553 1204 2497 
Q 953 2441 691 2322 
L 691 4666 
z
" transform="scale(0.015625)"/>
       </defs>
       <use xlink:href="#DejaVuSans-30"/>
       <use xlink:href="#DejaVuSans-2e" x="63.623047"/>
       <use xlink:href="#DejaVuSans-35" x="95.410156"/>
      </g>
     </g>
    </g>
    <g id="xtick_7">
     <g id="line2d_7">
      <g>
       <use xlink:href="#m9f7fcc33a5" x="622.636364" y="384.48" style="stroke: #000000; stroke-width: 0.8"/>
      </g>
     </g>
     <g id="text_7">
      <!-- 0.6 -->
      <g transform="translate(614.684801 399.078438) scale(0.1 -0.1)">
       <defs>
        <path id="DejaVuSans-36" d="M 2113 2584 
Q 1688 2584 1439 2293 
Q 1191 2003 1191 1497 
Q 1191 994 1439 701 
Q 1688 409 2113 409 
Q 2538 409 2786 701 
Q 3034 994 3034 1497 
Q 3034 2003 2786 2293 
Q 2538 2584 2113 2584 
z
M 3366 4563 
L 3366 3988 
Q 3128 4100 2886 4159 
Q 2644 4219 2406 4219 
Q 1781 4219 1451 3797 
Q 1122 3375 1075 2522 
Q 1259 2794 1537 2939 
Q 1816 3084 2150 3084 
Q 2853 3084 3261 2657 
Q 3669 2231 3669 1497 
Q 3669 778 3244 343 
Q 2819 -91 2113 -91 
Q 1303 -91 875 529 
Q 447 1150 447 2328 
Q 447 3434 972 4092 
Q 1497 4750 2381 4750 
Q 2619 4750 2861 4703 
Q 3103 4656 3366 4563 
z
" transform="scale(0.015625)"/>
       </defs>
       <use xlink:href="#DejaVuSans-30"/>
       <use xlink:href="#DejaVuSans-2e" x="63.623047"/>
       <use xlink:href="#DejaVuSans-36" x="95.410156"/>
      </g>
     </g>
    </g>
    <g id="text_8">
     <!-- Time (s) -->
     <g transform="translate(348.671094 412.756563) scale(0.1 -0.1)">
      <defs>
       <path id="DejaVuSans-54" d="M -19 4666 
L 3928 4666 
L 3928 4134 
L 2272 4134 
L 2272 0 
L 1638 0 
L 1638 4134 
L -19 4134 
L -19 4666 
z
" transform="scale(0.015625)"/>
       <path id="DejaVuSans-69" d="M 603 3500 
L 1178 3500 
L 1178 0 
L 603 0 
L 603 3500 
z
M 603 4863 
L 1178 4863 
L 1178 4134 
L 603 4134 
L 603 4863 
z
" transform="scale(0.015625)"/>
       <path id="DejaVuSans-6d" d="M 3328 2828 
Q 3544 3216 3844 3400 
Q 4144 3584 4550 3584 
Q 5097 3584 5394 3201 
Q 5691 2819 5691 2113 
L 5691 0 
L 5113 0 
L 5113 2094 
Q 5113 2597 4934 2840 
Q 4756 3084 4391 3084 
Q 3944 3084 3684 2787 
Q 3425 2491 3425 1978 
L 3425 0 
L 2847 0 
L 2847 2094 
Q 2847 2600 2669 2842 
Q 2491 3084 2119 3084 
Q 1678 3084 1418 2786 
Q 1159 2488 1159 1978 
L 1159 0 
L 581 0 
L 581 3500 
L 1159 3500 
L 1159 2956 
Q 1356 3278 1631 3431 
Q 1906 3584 2284 3584 
Q 2666 3584 2933 3390 
Q 3200 3197 3328 2828 
z
" transform="scale(0.015625)"/>
       <path id="DejaVuSans-65" d="M 3597 1894 
L 3597 1613 
L 953 1613 
Q 991 1019 1311 708 
Q 1631 397 2203 397 
Q 2534 397 2845 478 
Q 3156 559 3463 722 
L 3463 178 
Q 3153 47 2828 -22 
Q 2503 -91 2169 -91 
Q 1331 -91 842 396 
Q 353 884 353 1716 
Q 353 2575 817 3079 
Q 1281 3584 2069 3584 
Q 2775 3584 3186 3129 
Q 3597 2675 3597 1894 
z
M 3022 2063 
Q 3016 2534 2758 2815 
Q 2500 3097 2075 3097 
Q 1594 3097 1305 2825 
Q 1016 2553 972 2059 
L 3022 2063 
z
" transform="scale(0.015625)"/>
       <path id="DejaVuSans-20" transform="scale(0.015625)"/>
       <path id="DejaVuSans-28" d="M 1984 4856 
Q 1566 4138 1362 3434 
Q 1159 2731 1159 2009 
Q 1159 1288 1364 580 
Q 1569 -128 1984 -844 
L 1484 -844 
Q 1016 -109 783 600 
Q 550 1309 550 2009 
Q 550 2706 781 3412 
Q 1013 4119 1484 4856 
L 1984 4856 
z
" transform="scale(0.015625)"/>
       <path id="DejaVuSans-73" d="M 2834 3397 
L 2834 2853 
Q 2591 2978 2328 3040 
Q 2066 3103 1784 3103 
Q 1356 3103 1142 2972 
Q 928 2841 928 2578 
Q 928 2378 1081 2264 
Q 1234 2150 1697 2047 
L 1894 2003 
Q 2506 1872 2764 1633 
Q 3022 1394 3022 966 
Q 3022 478 2636 193 
Q 2250 -91 1575 -91 
Q 1294 -91 989 -36 
Q 684 19 347 128 
L 347 722 
Q 666 556 975 473 
Q 1284 391 1588 391 
Q 1994 391 2212 530 
Q 2431 669 2431 922 
Q 2431 1156 2273 1281 
Q 2116 1406 1581 1522 
L 1381 1569 
Q 847 1681 609 1914 
Q 372 2147 372 2553 
Q 372 3047 722 3315 
Q 1072 3584 1716 3584 
Q 2034 3584 2315 3537 
Q 2597 3491 2834 3397 
z
" transform="scale(0.015625)"/>
       <path id="DejaVuSans-29" d="M 513 4856 
L 1013 4856 
Q 1481 4119 1714 3412 
Q 1947 2706 1947 2009 
Q 1947 1309 1714 600 
Q 1481 -109 1013 -844 
L 513 -844 
Q 928 -128 1133 580 
Q 1338 1288 1338 2009 
Q 1338 2731 1133 3434 
Q 928 4138 513 4856 
z
" transform="scale(0.015625)"/>
      </defs>
      <use xlink:href="#DejaVuSans-54"/>
      <use xlink:href="#DejaVuSans-69" x="57.958984"/>
      <use xlink:href="#DejaVuSans-6d" x="85.742188"/>
      <use xlink:href="#DejaVuSans-65" x="183.154297"/>
      <use xlink:href="#DejaVuSans-20" x="244.677734"/>
      <use xlink:href="#DejaVuSans-28" x="276.464844"/>
      <use xlink:href="#DejaVuSans-73" x="315.478516"/>
      <use xlink:href="#DejaVuSans-29" x="367.578125"/>
     </g>
    </g>
   </g>
   <g id="matplotlib.axis_2">
    <g id="ytick_1">
     <g id="line2d_8">
      <defs>
       <path id="m3f9b7629a3" d="M 0 0 
L -3.5 0 
" style="stroke: #000000; stroke-width: 0.8"/>
      </defs>
      <g>
       <use xlink:href="#m3f9b7629a3" x="90" y="343.36008" style="stroke: #000000; stroke-width: 0.8"/>
      </g>
     </g>
     <g id="text_9">
      <!-- 0.0 -->
      <g transform="translate(67.096875 347.159299) scale(0.1 -0.1)">
       <use xlink:href="#DejaVuSans-30"/>
       <use xlink:href="#DejaVuSans-2e" x="63.623047"/>
       <use xlink:href="#DejaVuSans-30" x="95.410156"/>
      </g>
     </g>
    </g>
    <g id="ytick_2">
     <g id="line2d_9">
      <g>
       <use xlink:href="#m3f9b7629a3" x="90" y="271.874308" style="stroke: #000000; stroke-width: 0.8"/>
      </g>
     </g>
     <g id="text_10">
      <!-- 0.2 -->
      <g transform="translate(67.096875 275.673527) scale(0.1 -0.1)">
       <use xlink:href="#DejaVuSans-30"/>
       <use xlink:href="#DejaVuSans-2e" x="63.623047"/>
       <use xlink:href="#DejaVuSans-32" x="95.410156"/>
      </g>
     </g>
    </g>
    <g id="ytick_3">
     <g id="line2d_10">
      <g>
       <use xlink:href="#m3f9b7629a3" x="90" y="200.388536" style="stroke: #000000; stroke-width: 0.8"/>
      </g>
     </g>
     <g id="text_11">
      <!-- 0.4 -->
      <g transform="translate(67.096875 204.187754) scale(0.1 -0.1)">
       <use xlink:href="#DejaVuSans-30"/>
       <use xlink:href="#DejaVuSans-2e" x="63.623047"/>
       <use xlink:href="#DejaVuSans-34" x="95.410156"/>
      </g>
     </g>
    </g>
    <g id="ytick_4">
     <g id="line2d_11">
      <g>
       <use xlink:href="#m3f9b7629a3" x="90" y="128.902763" style="stroke: #000000; stroke-width: 0.8"/>
      </g>
     </g>
     <g id="text_12">
      <!-- 0.6 -->
      <g transform="translate(67.096875 132.701982) scale(0.1 -0.1)">
       <use xlink:href="#DejaVuSans-30"/>
       <use xlink:href="#DejaVuSans-2e" x="63.623047"/>
       <use xlink:href="#DejaVuSans-36" x="95.410156"/>
      </g>
     </g>
    </g>
    <g id="ytick_5">
     <g id="line2d_12">
      <g>
       <use xlink:href="#m3f9b7629a3" x="90" y="57.416991" style="stroke: #000000; stroke-width: 0.8"/>
      </g>
     </g>
     <g id="text_13">
      <!-- 0.8 -->
      <g transform="translate(67.096875 61.21621) scale(0.1 -0.1)">
       <defs>
        <path id="DejaVuSans-38" d="M 2034 2216 
Q 1584 2216 1326 1975 
Q 1069 1734 1069 1313 
Q 1069 891 1326 650 
Q 1584 409 2034 409 
Q 2484 409 2743 651 
Q 3003 894 3003 1313 
Q 3003 1734 2745 1975 
Q 2488 2216 2034 2216 
z
M 1403 2484 
Q 997 2584 770 2862 
Q 544 3141 544 3541 
Q 544 4100 942 4425 
Q 1341 4750 2034 4750 
Q 2731 4750 3128 4425 
Q 3525 4100 3525 3541 
Q 3525 3141 3298 2862 
Q 3072 2584 2669 2484 
Q 3125 2378 3379 2068 
Q 3634 1759 3634 1313 
Q 3634 634 3220 271 
Q 2806 -91 2034 -91 
Q 1263 -91 848 271 
Q 434 634 434 1313 
Q 434 1759 690 2068 
Q 947 2378 1403 2484 
z
M 1172 3481 
Q 1172 3119 1398 2916 
Q 1625 2713 2034 2713 
Q 2441 2713 2670 2916 
Q 2900 3119 2900 3481 
Q 2900 3844 2670 4047 
Q 2441 4250 2034 4250 
Q 1625 4250 1398 4047 
Q 1172 3844 1172 3481 
z
" transform="scale(0.015625)"/>
       </defs>
       <use xlink:href="#DejaVuSans-30"/>
       <use xlink:href="#DejaVuSans-2e" x="63.623047"/>
       <use xlink:href="#DejaVuSans-38" x="95.410156"/>
      </g>
     </g>
    </g>
    <g id="text_14">
     <!-- Amplitude -->
     <g transform="translate(61.017187 243.782656) rotate(-90) scale(0.1 -0.1)">
      <defs>
       <path id="DejaVuSans-41" d="M 2188 4044 
L 1331 1722 
L 3047 1722 
L 2188 4044 
z
M 1831 4666 
L 2547 4666 
L 4325 0 
L 3669 0 
L 3244 1197 
L 1141 1197 
L 716 0 
L 50 0 
L 1831 4666 
z
" transform="scale(0.015625)"/>
       <path id="DejaVuSans-70" d="M 1159 525 
L 1159 -1331 
L 581 -1331 
L 581 3500 
L 1159 3500 
L 1159 2969 
Q 1341 3281 1617 3432 
Q 1894 3584 2278 3584 
Q 2916 3584 3314 3078 
Q 3713 2572 3713 1747 
Q 3713 922 3314 415 
Q 2916 -91 2278 -91 
Q 1894 -91 1617 61 
Q 1341 213 1159 525 
z
M 3116 1747 
Q 3116 2381 2855 2742 
Q 2594 3103 2138 3103 
Q 1681 3103 1420 2742 
Q 1159 2381 1159 1747 
Q 1159 1113 1420 752 
Q 1681 391 2138 391 
Q 2594 391 2855 752 
Q 3116 1113 3116 1747 
z
" transform="scale(0.015625)"/>
       <path id="DejaVuSans-6c" d="M 603 4863 
L 1178 4863 
L 1178 0 
L 603 0 
L 603 4863 
z
" transform="scale(0.015625)"/>
       <path id="DejaVuSans-74" d="M 1172 4494 
L 1172 3500 
L 2356 3500 
L 2356 3053 
L 1172 3053 
L 1172 1153 
Q 1172 725 1289 603 
Q 1406 481 1766 481 
L 2356 481 
L 2356 0 
L 1766 0 
Q 1100 0 847 248 
Q 594 497 594 1153 
L 594 3053 
L 172 3053 
L 172 3500 
L 594 3500 
L 594 4494 
L 1172 4494 
z
" transform="scale(0.015625)"/>
       <path id="DejaVuSans-75" d="M 544 1381 
L 544 3500 
L 1119 3500 
L 1119 1403 
Q 1119 906 1312 657 
Q 1506 409 1894 409 
Q 2359 409 2629 706 
Q 2900 1003 2900 1516 
L 2900 3500 
L 3475 3500 
L 3475 0 
L 2900 0 
L 2900 538 
Q 2691 219 2414 64 
Q 2138 -91 1772 -91 
Q 1169 -91 856 284 
Q 544 659 544 1381 
z
M 1991 3584 
L 1991 3584 
z
" transform="scale(0.015625)"/>
       <path id="DejaVuSans-64" d="M 2906 2969 
L 2906 4863 
L 3481 4863 
L 3481 0 
L 2906 0 
L 2906 525 
Q 2725 213 2448 61 
Q 2172 -91 1784 -91 
Q 1150 -91 751 415 
Q 353 922 353 1747 
Q 353 2572 751 3078 
Q 1150 3584 1784 3584 
Q 2172 3584 2448 3432 
Q 2725 3281 2906 2969 
z
M 947 1747 
Q 947 1113 1208 752 
Q 1469 391 1925 391 
Q 2381 391 2643 752 
Q 2906 1113 2906 1747 
Q 2906 2381 2643 2742 
Q 2381 3103 1925 3103 
Q 1469 3103 1208 2742 
Q 947 2381 947 1747 
z
" transform="scale(0.015625)"/>
      </defs>
      <use xlink:href="#DejaVuSans-41"/>
      <use xlink:href="#DejaVuSans-6d" x="68.408203"/>
      <use xlink:href="#DejaVuSans-70" x="165.820312"/>
      <use xlink:href="#DejaVuSans-6c" x="229.296875"/>
      <use xlink:href="#DejaVuSans-69" x="257.080078"/>
      <use xlink:href="#DejaVuSans-74" x="284.863281"/>
      <use xlink:href="#DejaVuSans-75" x="324.072266"/>
      <use xlink:href="#DejaVuSans-64" x="387.451172"/>
      <use xlink:href="#DejaVuSans-65" x="450.927734"/>
     </g>
    </g>
   </g>
   <g id="line2d_13">
    <path d="M 115.363636 356.431486 
L 116.210502 351.756722 
L 117.057368 344.577949 
L 117.904234 346.507034 
L 118.7511 345.823331 
L 119.597966 351.538496 
L 120.444832 360.772751 
L 121.291698 361.578234 
L 122.98543 344.198772 
L 123.832296 346.42146 
L 124.679162 345.568823 
L 125.526028 346.19808 
L 126.372894 350.256832 
L 127.21976 349.23696 
L 128.066626 349.618012 
L 128.913492 355.191349 
L 129.760358 359.217493 
L 130.607224 354.784812 
L 131.45409 352.079116 
L 132.300956 351.978712 
L 133.147822 352.542425 
L 133.994688 341.710996 
L 134.841554 342.687114 
L 137.382152 353.666978 
L 138.229018 353.945631 
L 139.075884 355.105064 
L 139.92275 354.005095 
L 140.769616 346.894639 
L 141.616482 351.985361 
L 142.463348 348.992878 
L 143.310214 349.931808 
L 144.15708 349.432516 
L 145.003946 350.715204 
L 145.850812 350.130708 
L 146.697678 348.624211 
L 147.544544 350.648737 
L 148.39141 346.930878 
L 149.238276 355.228638 
L 150.932008 350.398451 
L 151.778874 352.124486 
L 152.62574 353.082141 
L 153.472606 348.537912 
L 154.319472 349.290218 
L 155.166338 348.3835 
L 156.013204 348.527455 
L 156.86007 353.677095 
L 157.706936 355.810026 
L 158.553802 352.526633 
L 159.400668 347.568036 
L 160.247534 347.608682 
L 161.0944 345.244677 
L 161.941266 348.58284 
L 162.788132 349.279594 
L 163.634998 353.225131 
L 164.481864 354.093708 
L 165.32873 354.077626 
L 166.175596 354.658834 
L 167.022462 348.443397 
L 167.869328 350.101953 
L 168.716194 347.414674 
L 169.56306 350.25214 
L 170.409926 343.842517 
L 171.256792 343.341283 
L 172.103658 347.674216 
L 172.950524 360.2778 
L 174.644256 341.018466 
L 175.491122 332.98089 
L 176.337988 335.366881 
L 177.184854 340.147885 
L 178.03172 346.138575 
L 178.878586 344.478283 
L 179.725452 338.160805 
L 180.572317 333.78126 
L 181.419183 337.868982 
L 182.266049 337.524452 
L 183.112915 340.070231 
L 183.959781 339.610478 
L 184.806647 334.792912 
L 185.653513 340.757295 
L 186.500379 340.476421 
L 187.347245 332.309091 
L 188.194111 333.833509 
L 189.040977 333.285027 
L 189.887843 343.116835 
L 190.734709 334.107546 
L 191.581575 334.632653 
L 192.428441 339.73694 
L 193.275307 344.11119 
L 194.969039 333.131483 
L 195.815905 332.811275 
L 196.662771 340.929446 
L 197.509637 341.815821 
L 198.356503 338.494326 
L 199.203369 328.998884 
L 200.050235 333.830635 
L 200.897101 330.644227 
L 201.743967 328.881216 
L 202.590833 326.246959 
L 203.437699 323.11608 
L 204.284565 323.497856 
L 205.131431 339.445762 
L 205.978297 344.082953 
L 206.825163 335.979169 
L 207.672029 329.481571 
L 208.518895 326.049732 
L 209.365761 329.832861 
L 210.212627 332.166644 
L 211.059493 325.635727 
L 211.906359 327.519689 
L 212.753225 336.695798 
L 213.600091 335.511249 
L 214.446957 337.472577 
L 215.293823 331.931559 
L 216.140689 335.93719 
L 216.987555 342.441403 
L 217.834421 345.958024 
L 218.681287 346.186272 
L 220.375019 338.658282 
L 221.221885 336.277066 
L 222.068751 341.192249 
L 222.915617 345.092218 
L 223.762483 346.987141 
L 224.609349 353.477446 
L 225.456215 349.207647 
L 226.303081 346.250148 
L 227.149947 347.773135 
L 227.996813 347.606109 
L 228.843679 344.150074 
L 229.690545 345.113119 
L 230.537411 346.349299 
L 231.384277 348.803148 
L 232.231143 344.120771 
L 233.078009 341.937157 
L 233.924875 352.126846 
L 234.771741 355.0688 
L 235.618607 350.630082 
L 236.465473 353.382773 
L 237.312339 353.291013 
L 238.159205 350.154867 
L 239.006071 351.732024 
L 239.852937 349.257036 
L 240.699803 347.82089 
L 242.393535 365.170406 
L 244.087267 353.63284 
L 244.934133 354.837497 
L 245.780999 355.1238 
L 246.627865 360.076443 
L 247.474731 362.163027 
L 248.321597 360.991231 
L 249.168463 355.928195 
L 250.015329 357.923684 
L 250.862195 361.204081 
L 251.709061 363.504088 
L 252.555927 362.7257 
L 253.402793 366.358151 
L 254.249659 363.078011 
L 255.096525 355.111786 
L 255.94339 362.030454 
L 256.790256 363.833659 
L 257.637122 360.852039 
L 258.483988 360.905093 
L 259.330854 357.802607 
L 260.17772 359.177208 
L 261.024586 361.949407 
L 261.871452 363.584352 
L 262.718318 361.775861 
L 263.565184 361.122641 
L 264.41205 361.033485 
L 265.258916 360.401706 
L 266.105782 358.305882 
L 266.952648 361.572138 
L 267.799514 362.834471 
L 268.64638 363.206636 
L 269.493246 366.96041 
L 270.340112 364.405225 
L 271.186978 365.831874 
L 272.033844 362.747172 
L 272.88071 363.168701 
L 273.727576 355.598873 
L 274.574442 355.848177 
L 275.421308 357.715054 
L 276.268174 367.618192 
L 277.11504 369.132884 
L 277.961906 363.792563 
L 278.808772 353.199821 
L 279.655638 361.39668 
L 280.502504 361.979618 
L 281.34937 354.977479 
L 282.196236 358.664948 
L 283.043102 357.735959 
L 283.889968 359.250673 
L 284.736834 364.658094 
L 285.5837 359.57014 
L 286.430566 356.466005 
L 287.277432 359.395302 
L 288.124298 361.121037 
L 288.971164 365.674875 
L 289.81803 366.743334 
L 290.664896 365.646125 
L 291.511762 365.034665 
L 292.358628 367.836336 
L 293.205494 365.6191 
L 294.05236 362.848835 
L 294.899226 365.021259 
L 295.746092 362.969548 
L 296.592958 357.885199 
L 297.439824 365.097802 
L 298.28669 369.288532 
L 299.133556 367.782138 
L 299.980422 369.36 
L 301.674154 356.674173 
L 302.52102 355.264103 
L 303.367886 351.580113 
L 304.214752 352.724724 
L 305.061618 354.67359 
L 305.908484 351.329669 
L 306.75535 346.000342 
L 307.602216 339.06932 
L 308.449082 335.04487 
L 309.295948 332.741365 
L 310.142814 340.1984 
L 310.98968 341.906649 
L 311.836546 324.701515 
L 312.683412 318.531996 
L 313.530278 314.210415 
L 314.377144 308.725056 
L 315.22401 302.509312 
L 316.070876 295.443209 
L 316.917742 285.717671 
L 317.764608 278.487887 
L 318.611474 264.344576 
L 319.45834 255.235815 
L 320.305206 231.016997 
L 321.998938 198.805557 
L 322.845804 189.692922 
L 323.69267 170.95728 
L 324.539536 161.52322 
L 326.233268 133.152463 
L 327.080134 120.770589 
L 327.927 105.976449 
L 329.620732 82.120323 
L 330.467598 71.061734 
L 331.314463 66.96 
L 332.161329 74.691274 
L 333.008195 78.376521 
L 333.855061 75.736927 
L 334.701927 78.507722 
L 335.548793 89.428034 
L 336.395659 91.704895 
L 337.242525 102.656905 
L 338.089391 105.349646 
L 338.936257 123.104289 
L 339.783123 148.00831 
L 342.323721 198.229943 
L 343.170587 222.526462 
L 344.017453 239.01733 
L 344.864319 252.908548 
L 345.711185 259.217536 
L 346.558051 272.25011 
L 347.404917 275.83593 
L 348.251783 288.082315 
L 349.098649 293.084298 
L 349.945515 300.082778 
L 350.792381 309.170739 
L 351.639247 313.415873 
L 352.486113 324.78251 
L 353.332979 321.700323 
L 354.179845 330.152961 
L 355.026711 334.848991 
L 355.873577 338.103837 
L 356.720443 337.083335 
L 358.414175 331.110998 
L 359.261041 334.626254 
L 360.107907 331.470724 
L 360.954773 326.730068 
L 361.801639 325.235779 
L 363.495371 337.624871 
L 364.342237 330.776477 
L 365.189103 336.586986 
L 366.035969 339.874838 
L 366.882835 345.013603 
L 367.729701 353.827014 
L 368.576567 351.751163 
L 369.423433 345.720694 
L 370.270299 343.43877 
L 371.117165 344.637217 
L 371.964031 349.161774 
L 372.810897 352.709731 
L 373.657763 352.515873 
L 374.504629 350.458022 
L 375.351495 354.025457 
L 376.198361 355.428663 
L 377.045227 352.057804 
L 377.892093 349.191256 
L 378.738959 350.538507 
L 379.585825 350.531069 
L 380.432691 347.52939 
L 381.279557 348.892299 
L 382.126423 346.725455 
L 382.973289 353.095649 
L 383.820155 355.868266 
L 384.667021 349.971565 
L 385.513887 349.284613 
L 386.360753 350.517769 
L 387.207619 354.714783 
L 388.054485 352.526157 
L 388.901351 355.645485 
L 389.748217 351.95812 
L 390.595083 349.134044 
L 391.441949 352.210473 
L 392.288815 351.320773 
L 393.135681 354.890247 
L 393.982547 353.696919 
L 394.829413 349.546166 
L 395.676279 357.610612 
L 396.523145 357.532736 
L 397.370011 358.880643 
L 398.216877 353.23086 
L 399.063743 351.307281 
L 399.910609 353.714604 
L 400.757475 354.56605 
L 401.604341 353.566531 
L 402.451207 351.441334 
L 403.298073 351.500812 
L 404.991805 347.968218 
L 405.838671 350.102148 
L 407.532402 353.072101 
L 408.379268 360.533012 
L 409.226134 354.642487 
L 410.073 346.784212 
L 410.919866 347.217261 
L 411.766732 347.080808 
L 412.613598 343.862175 
L 413.460464 349.688383 
L 414.30733 350.906002 
L 415.154196 343.921918 
L 416.001062 348.518419 
L 416.847928 350.813668 
L 417.694794 345.815564 
L 418.54166 349.023918 
L 419.388526 344.490639 
L 420.235392 346.10159 
L 421.082258 344.871572 
L 421.929124 345.06202 
L 422.77599 347.255954 
L 423.622856 347.257886 
L 424.469722 346.125781 
L 425.316588 340.722305 
L 426.163454 339.516513 
L 427.01032 344.156278 
L 427.857186 344.043821 
L 429.550918 348.692654 
L 430.397784 343.548225 
L 431.24465 341.976582 
L 432.091516 343.011792 
L 432.938382 341.560758 
L 433.785248 338.012038 
L 434.632114 342.567812 
L 435.47898 337.065841 
L 436.325846 334.761698 
L 437.172712 335.064177 
L 438.019578 336.215664 
L 438.866444 339.003762 
L 439.71331 335.801272 
L 440.560176 339.011556 
L 441.407042 337.16307 
L 442.253908 332.70837 
L 443.100774 332.848871 
L 443.94764 331.683505 
L 444.794506 331.059378 
L 445.641372 334.193352 
L 446.488238 333.957969 
L 447.335104 326.711738 
L 448.18197 326.840715 
L 449.028836 319.928336 
L 449.875702 321.397337 
L 450.722568 330.011478 
L 451.569434 332.610191 
L 452.4163 336.031305 
L 453.263166 327.927243 
L 454.110032 324.503558 
L 454.956898 325.695514 
L 455.803764 323.541499 
L 456.65063 327.008166 
L 457.497496 326.124628 
L 458.344362 324.409189 
L 459.191228 323.222294 
L 460.038094 323.088505 
L 460.88496 324.073613 
L 461.731826 324.264253 
L 462.578692 326.738625 
L 463.425558 325.562694 
L 464.272424 321.448647 
L 465.11929 317.91215 
L 466.813022 318.834209 
L 468.506754 314.006826 
L 469.35362 318.18911 
L 470.200486 317.891725 
L 471.047352 319.410055 
L 471.894218 320.510538 
L 472.741084 312.482591 
L 473.58795 309.956786 
L 474.434816 316.497089 
L 475.281682 316.871429 
L 476.128548 316.920994 
L 476.975414 317.262936 
L 477.82228 316.41965 
L 478.669146 313.849644 
L 479.516012 317.217473 
L 480.362878 316.623373 
L 481.209744 314.740483 
L 482.05661 314.850622 
L 482.903475 314.318676 
L 483.750341 313.027949 
L 484.597207 317.926267 
L 485.444073 317.847829 
L 486.290939 317.031225 
L 487.137805 320.811098 
L 487.984671 322.074284 
L 488.831537 323.837434 
L 489.678403 325.045107 
L 490.525269 327.139221 
L 491.372135 321.160769 
L 492.219001 321.106365 
L 493.065867 317.116388 
L 493.912733 312.150628 
L 494.759599 316.782055 
L 495.606465 320.735435 
L 496.453331 320.038117 
L 497.300197 318.531059 
L 498.147063 325.865401 
L 498.993929 323.770288 
L 499.840795 319.498851 
L 500.687661 323.132568 
L 501.534527 335.173227 
L 502.381393 324.308644 
L 503.228259 321.503274 
L 504.075125 325.302252 
L 504.921991 321.09509 
L 505.768857 320.701907 
L 507.462589 325.700796 
L 508.309455 323.649471 
L 509.156321 321.923688 
L 510.003187 331.044266 
L 510.850053 332.871781 
L 511.696919 340.581416 
L 512.543785 342.004035 
L 513.390651 334.310612 
L 514.237517 338.187739 
L 515.084383 335.357867 
L 515.931249 332.024231 
L 516.778115 336.93436 
L 517.624981 335.488883 
L 519.318713 339.235116 
L 520.165579 338.586919 
L 521.012445 341.769365 
L 521.859311 339.070395 
L 522.706177 340.182562 
L 523.553043 339.599003 
L 525.246775 351.722137 
L 526.093641 352.328744 
L 526.940507 346.382895 
L 527.787373 343.136419 
L 528.634239 340.373748 
L 529.481105 339.462645 
L 531.174837 341.164217 
L 532.021703 343.598204 
L 532.868569 341.316234 
L 533.715435 344.210202 
L 534.562301 355.571239 
L 535.409167 361.770045 
L 536.256033 355.400937 
L 537.102899 347.831075 
L 537.949765 348.422757 
L 538.796631 356.620726 
L 539.643497 351.399011 
L 540.490363 353.31526 
L 541.337229 351.686937 
L 542.184095 352.893739 
L 543.030961 353.477579 
L 543.877827 353.631732 
L 544.724693 350.584819 
L 545.571559 353.341279 
L 546.418425 359.483177 
L 547.265291 358.981695 
L 548.959023 362.211974 
L 549.805889 358.431052 
L 550.652755 358.309916 
L 551.499621 356.31057 
L 552.346487 353.208776 
L 553.193353 354.869572 
L 554.040219 358.290098 
L 554.887085 359.042127 
L 555.733951 353.664133 
L 556.580817 357.796024 
L 557.427683 356.373192 
L 558.274548 356.999409 
L 559.121414 355.196083 
L 559.96828 361.440972 
L 560.815146 361.933363 
L 561.662012 363.923172 
L 562.508878 363.136777 
L 563.355744 359.99035 
L 564.20261 361.194723 
L 565.049476 364.638977 
L 565.896342 361.086739 
L 566.743208 355.464199 
L 567.590074 360.6994 
L 568.43694 359.272187 
L 569.283806 356.966046 
L 570.130672 359.628684 
L 570.977538 359.605448 
L 571.824404 356.860918 
L 572.67127 356.427746 
L 573.518136 360.702374 
L 574.365002 361.251682 
L 575.211868 353.172048 
L 576.058734 355.538551 
L 576.9056 362.50842 
L 577.752466 360.608037 
L 578.599332 356.983965 
L 579.446198 357.469765 
L 580.293064 359.458743 
L 581.13993 357.454795 
L 581.986796 357.784497 
L 582.833662 354.581017 
L 583.680528 353.188194 
L 584.527394 358.076639 
L 585.37426 351.665459 
L 586.221126 357.943186 
L 587.067992 367.379047 
L 587.914858 363.403423 
L 589.60859 357.926659 
L 590.455456 352.879274 
L 591.302322 360.866423 
L 592.149188 364.703276 
L 592.996054 352.9517 
L 593.84292 355.14226 
L 595.536652 365.644896 
L 596.383518 352.783034 
L 597.230384 357.774823 
L 598.07725 358.487625 
L 598.924116 357.736058 
L 599.770982 357.345423 
L 600.617848 357.627988 
L 601.464714 355.358205 
L 602.31158 354.364415 
L 603.158446 358.800608 
L 604.005312 359.265248 
L 604.852178 355.347452 
L 605.699044 355.392125 
L 606.54591 357.213407 
L 607.392776 353.541758 
L 608.239642 353.257129 
L 609.086508 356.744114 
L 609.933374 364.477054 
L 610.78024 368.24193 
L 611.627106 365.804119 
L 612.473972 357.945849 
L 613.320838 347.426304 
L 614.167704 351.969662 
L 615.01457 359.887832 
L 615.861436 358.600502 
L 616.708302 351.787231 
L 617.555168 356.534492 
L 618.402034 360.422112 
L 619.2489 361.96172 
L 620.942632 355.627018 
L 621.789498 359.204864 
L 622.636364 355.969289 
L 622.636364 355.969289 
" clip-path="url(#p8b33803eb8)" style="fill: none; stroke: #1f77b4; stroke-width: 1.5; stroke-linecap: square"/>
   </g>
   <g id="patch_3">
    <path d="M 90 384.48 
L 90 51.84 
" style="fill: none; stroke: #000000; stroke-width: 0.8; stroke-linejoin: miter; stroke-linecap: square"/>
   </g>
   <g id="patch_4">
    <path d="M 648 384.48 
L 648 51.84 
" style="fill: none; stroke: #000000; stroke-width: 0.8; stroke-linejoin: miter; stroke-linecap: square"/>
   </g>
   <g id="patch_5">
    <path d="M 90 384.48 
L 648 384.48 
" style="fill: none; stroke: #000000; stroke-width: 0.8; stroke-linejoin: miter; stroke-linecap: square"/>
   </g>
   <g id="patch_6">
    <path d="M 90 51.84 
L 648 51.84 
" style="fill: none; stroke: #000000; stroke-width: 0.8; stroke-linejoin: miter; stroke-linecap: square"/>
   </g>
   <g id="text_15">
    <!-- ECG Data Sample (Wavelet) -->
    <g transform="translate(284.9625 45.84) scale(0.12 -0.12)">
     <defs>
      <path id="DejaVuSans-45" d="M 628 4666 
L 3578 4666 
L 3578 4134 
L 1259 4134 
L 1259 2753 
L 3481 2753 
L 3481 2222 
L 1259 2222 
L 1259 531 
L 3634 531 
L 3634 0 
L 628 0 
L 628 4666 
z
" transform="scale(0.015625)"/>
      <path id="DejaVuSans-43" d="M 4122 4306 
L 4122 3641 
Q 3803 3938 3442 4084 
Q 3081 4231 2675 4231 
Q 1875 4231 1450 3742 
Q 1025 3253 1025 2328 
Q 1025 1406 1450 917 
Q 1875 428 2675 428 
Q 3081 428 3442 575 
Q 3803 722 4122 1019 
L 4122 359 
Q 3791 134 3420 21 
Q 3050 -91 2638 -91 
Q 1578 -91 968 557 
Q 359 1206 359 2328 
Q 359 3453 968 4101 
Q 1578 4750 2638 4750 
Q 3056 4750 3426 4639 
Q 3797 4528 4122 4306 
z
" transform="scale(0.015625)"/>
      <path id="DejaVuSans-47" d="M 3809 666 
L 3809 1919 
L 2778 1919 
L 2778 2438 
L 4434 2438 
L 4434 434 
Q 4069 175 3628 42 
Q 3188 -91 2688 -91 
Q 1594 -91 976 548 
Q 359 1188 359 2328 
Q 359 3472 976 4111 
Q 1594 4750 2688 4750 
Q 3144 4750 3555 4637 
Q 3966 4525 4313 4306 
L 4313 3634 
Q 3963 3931 3569 4081 
Q 3175 4231 2741 4231 
Q 1884 4231 1454 3753 
Q 1025 3275 1025 2328 
Q 1025 1384 1454 906 
Q 1884 428 2741 428 
Q 3075 428 3337 486 
Q 3600 544 3809 666 
z
" transform="scale(0.015625)"/>
      <path id="DejaVuSans-44" d="M 1259 4147 
L 1259 519 
L 2022 519 
Q 2988 519 3436 956 
Q 3884 1394 3884 2338 
Q 3884 3275 3436 3711 
Q 2988 4147 2022 4147 
L 1259 4147 
z
M 628 4666 
L 1925 4666 
Q 3281 4666 3915 4102 
Q 4550 3538 4550 2338 
Q 4550 1131 3912 565 
Q 3275 0 1925 0 
L 628 0 
L 628 4666 
z
" transform="scale(0.015625)"/>
      <path id="DejaVuSans-61" d="M 2194 1759 
Q 1497 1759 1228 1600 
Q 959 1441 959 1056 
Q 959 750 1161 570 
Q 1363 391 1709 391 
Q 2188 391 2477 730 
Q 2766 1069 2766 1631 
L 2766 1759 
L 2194 1759 
z
M 3341 1997 
L 3341 0 
L 2766 0 
L 2766 531 
Q 2569 213 2275 61 
Q 1981 -91 1556 -91 
Q 1019 -91 701 211 
Q 384 513 384 1019 
Q 384 1609 779 1909 
Q 1175 2209 1959 2209 
L 2766 2209 
L 2766 2266 
Q 2766 2663 2505 2880 
Q 2244 3097 1772 3097 
Q 1472 3097 1187 3025 
Q 903 2953 641 2809 
L 641 3341 
Q 956 3463 1253 3523 
Q 1550 3584 1831 3584 
Q 2591 3584 2966 3190 
Q 3341 2797 3341 1997 
z
" transform="scale(0.015625)"/>
      <path id="DejaVuSans-53" d="M 3425 4513 
L 3425 3897 
Q 3066 4069 2747 4153 
Q 2428 4238 2131 4238 
Q 1616 4238 1336 4038 
Q 1056 3838 1056 3469 
Q 1056 3159 1242 3001 
Q 1428 2844 1947 2747 
L 2328 2669 
Q 3034 2534 3370 2195 
Q 3706 1856 3706 1288 
Q 3706 609 3251 259 
Q 2797 -91 1919 -91 
Q 1588 -91 1214 -16 
Q 841 59 441 206 
L 441 856 
Q 825 641 1194 531 
Q 1563 422 1919 422 
Q 2459 422 2753 634 
Q 3047 847 3047 1241 
Q 3047 1584 2836 1778 
Q 2625 1972 2144 2069 
L 1759 2144 
Q 1053 2284 737 2584 
Q 422 2884 422 3419 
Q 422 4038 858 4394 
Q 1294 4750 2059 4750 
Q 2388 4750 2728 4690 
Q 3069 4631 3425 4513 
z
" transform="scale(0.015625)"/>
      <path id="DejaVuSans-57" d="M 213 4666 
L 850 4666 
L 1831 722 
L 2809 4666 
L 3519 4666 
L 4500 722 
L 5478 4666 
L 6119 4666 
L 4947 0 
L 4153 0 
L 3169 4050 
L 2175 0 
L 1381 0 
L 213 4666 
z
" transform="scale(0.015625)"/>
      <path id="DejaVuSans-76" d="M 191 3500 
L 800 3500 
L 1894 563 
L 2988 3500 
L 3597 3500 
L 2284 0 
L 1503 0 
L 191 3500 
z
" transform="scale(0.015625)"/>
     </defs>
     <use xlink:href="#DejaVuSans-45"/>
     <use xlink:href="#DejaVuSans-43" x="63.183594"/>
     <use xlink:href="#DejaVuSans-47" x="133.007812"/>
     <use xlink:href="#DejaVuSans-20" x="210.498047"/>
     <use xlink:href="#DejaVuSans-44" x="242.285156"/>
     <use xlink:href="#DejaVuSans-61" x="319.287109"/>
     <use xlink:href="#DejaVuSans-74" x="380.566406"/>
     <use xlink:href="#DejaVuSans-61" x="419.775391"/>
     <use xlink:href="#DejaVuSans-20" x="481.054688"/>
     <use xlink:href="#DejaVuSans-53" x="512.841797"/>
     <use xlink:href="#DejaVuSans-61" x="576.318359"/>
     <use xlink:href="#DejaVuSans-6d" x="637.597656"/>
     <use xlink:href="#DejaVuSans-70" x="735.009766"/>
     <use xlink:href="#DejaVuSans-6c" x="798.486328"/>
     <use xlink:href="#DejaVuSans-65" x="826.269531"/>
     <use xlink:href="#DejaVuSans-20" x="887.792969"/>
     <use xlink:href="#DejaVuSans-28" x="919.580078"/>
     <use xlink:href="#DejaVuSans-57" x="958.59375"/>
     <use xlink:href="#DejaVuSans-61" x="1051.095703"/>
     <use xlink:href="#DejaVuSans-76" x="1112.375"/>
     <use xlink:href="#DejaVuSans-65" x="1171.554688"/>
     <use xlink:href="#DejaVuSans-6c" x="1233.078125"/>
     <use xlink:href="#DejaVuSans-65" x="1260.861328"/>
     <use xlink:href="#DejaVuSans-74" x="1322.384766"/>
     <use xlink:href="#DejaVuSans-29" x="1361.59375"/>
    </g>
   </g>
  </g>
 </g>
 <defs>
  <clipPath id="p8b33803eb8">
   <rect x="90" y="51.84" width="558" height="332.64"/>
  </clipPath>
 </defs>
</svg>
