<?xml version="1.0" encoding="utf-8" standalone="no"?>
<!DOCTYPE svg PUBLIC "-//W3C//DTD SVG 1.1//EN"
  "http://www.w3.org/Graphics/SVG/1.1/DTD/svg11.dtd">
<svg xmlns:xlink="http://www.w3.org/1999/xlink" width="720pt" height="432pt" viewBox="0 0 720 432" xmlns="http://www.w3.org/2000/svg" version="1.1">
 <metadata>
  <rdf:RDF xmlns:dc="http://purl.org/dc/elements/1.1/" xmlns:cc="http://creativecommons.org/ns#" xmlns:rdf="http://www.w3.org/1999/02/22-rdf-syntax-ns#">
   <cc:Work>
    <dc:type rdf:resource="http://purl.org/dc/dcmitype/StillImage"/>
    <dc:date>2023-11-09T12:20:59.210459</dc:date>
    <dc:format>image/svg+xml</dc:format>
    <dc:creator>
     <cc:Agent>
      <dc:title>Matplotlib v3.8.0, https://matplotlib.org/</dc:title>
     </cc:Agent>
    </dc:creator>
   </cc:Work>
  </rdf:RDF>
 </metadata>
 <defs>
  <style type="text/css">*{stroke-linejoin: round; stroke-linecap: butt}</style>
 </defs>
 <g id="figure_1">
  <g id="patch_1">
   <path d="M 0 432 
L 720 432 
L 720 0 
L 0 0 
z
" style="fill: #ffffff"/>
  </g>
  <g id="axes_1">
   <g id="patch_2">
    <path d="M 90 384.48 
L 648 384.48 
L 648 51.84 
L 90 51.84 
z
" style="fill: #ffffff"/>
   </g>
   <g id="matplotlib.axis_1">
    <g id="xtick_1">
     <g id="line2d_1">
      <defs>
       <path id="m8683893494" d="M 0 0 
L 0 3.5 
" style="stroke: #000000; stroke-width: 0.8"/>
      </defs>
      <g>
       <use xlink:href="#m8683893494" x="115.363636" y="384.48" style="stroke: #000000; stroke-width: 0.8"/>
      </g>
     </g>
     <g id="text_1">
      <!-- 0 -->
      <g transform="translate(112.182386 399.078438) scale(0.1 -0.1)">
       <defs>
        <path id="DejaVuSans-30" d="M 2034 4250 
Q 1547 4250 1301 3770 
Q 1056 3291 1056 2328 
Q 1056 1369 1301 889 
Q 1547 409 2034 409 
Q 2525 409 2770 889 
Q 3016 1369 3016 2328 
Q 3016 3291 2770 3770 
Q 2525 4250 2034 4250 
z
M 2034 4750 
Q 2819 4750 3233 4129 
Q 3647 3509 3647 2328 
Q 3647 1150 3233 529 
Q 2819 -91 2034 -91 
Q 1250 -91 836 529 
Q 422 1150 422 2328 
Q 422 3509 836 4129 
Q 1250 4750 2034 4750 
z
" transform="scale(0.015625)"/>
       </defs>
       <use xlink:href="#DejaVuSans-30"/>
      </g>
     </g>
    </g>
    <g id="xtick_2">
     <g id="line2d_2">
      <g>
       <use xlink:href="#m8683893494" x="199.909091" y="384.48" style="stroke: #000000; stroke-width: 0.8"/>
      </g>
     </g>
     <g id="text_2">
      <!-- 5 -->
      <g transform="translate(196.727841 399.078438) scale(0.1 -0.1)">
       <defs>
        <path id="DejaVuSans-35" d="M 691 4666 
L 3169 4666 
L 3169 4134 
L 1269 4134 
L 1269 2991 
Q 1406 3038 1543 3061 
Q 1681 3084 1819 3084 
Q 2600 3084 3056 2656 
Q 3513 2228 3513 1497 
Q 3513 744 3044 326 
Q 2575 -91 1722 -91 
Q 1428 -91 1123 -41 
Q 819 9 494 109 
L 494 744 
Q 775 591 1075 516 
Q 1375 441 1709 441 
Q 2250 441 2565 725 
Q 2881 1009 2881 1497 
Q 2881 1984 2565 2268 
Q 2250 2553 1709 2553 
Q 1456 2553 1204 2497 
Q 953 2441 691 2322 
L 691 4666 
z
" transform="scale(0.015625)"/>
       </defs>
       <use xlink:href="#DejaVuSans-35"/>
      </g>
     </g>
    </g>
    <g id="xtick_3">
     <g id="line2d_3">
      <g>
       <use xlink:href="#m8683893494" x="284.454545" y="384.48" style="stroke: #000000; stroke-width: 0.8"/>
      </g>
     </g>
     <g id="text_3">
      <!-- 10 -->
      <g transform="translate(278.092045 399.078438) scale(0.1 -0.1)">
       <defs>
        <path id="DejaVuSans-31" d="M 794 531 
L 1825 531 
L 1825 4091 
L 703 3866 
L 703 4441 
L 1819 4666 
L 2450 4666 
L 2450 531 
L 3481 531 
L 3481 0 
L 794 0 
L 794 531 
z
" transform="scale(0.015625)"/>
       </defs>
       <use xlink:href="#DejaVuSans-31"/>
       <use xlink:href="#DejaVuSans-30" x="63.623047"/>
      </g>
     </g>
    </g>
    <g id="xtick_4">
     <g id="line2d_4">
      <g>
       <use xlink:href="#m8683893494" x="369" y="384.48" style="stroke: #000000; stroke-width: 0.8"/>
      </g>
     </g>
     <g id="text_4">
      <!-- 15 -->
      <g transform="translate(362.6375 399.078438) scale(0.1 -0.1)">
       <use xlink:href="#DejaVuSans-31"/>
       <use xlink:href="#DejaVuSans-35" x="63.623047"/>
      </g>
     </g>
    </g>
    <g id="xtick_5">
     <g id="line2d_5">
      <g>
       <use xlink:href="#m8683893494" x="453.545455" y="384.48" style="stroke: #000000; stroke-width: 0.8"/>
      </g>
     </g>
     <g id="text_5">
      <!-- 20 -->
      <g transform="translate(447.182955 399.078438) scale(0.1 -0.1)">
       <defs>
        <path id="DejaVuSans-32" d="M 1228 531 
L 3431 531 
L 3431 0 
L 469 0 
L 469 531 
Q 828 903 1448 1529 
Q 2069 2156 2228 2338 
Q 2531 2678 2651 2914 
Q 2772 3150 2772 3378 
Q 2772 3750 2511 3984 
Q 2250 4219 1831 4219 
Q 1534 4219 1204 4116 
Q 875 4013 500 3803 
L 500 4441 
Q 881 4594 1212 4672 
Q 1544 4750 1819 4750 
Q 2544 4750 2975 4387 
Q 3406 4025 3406 3419 
Q 3406 3131 3298 2873 
Q 3191 2616 2906 2266 
Q 2828 2175 2409 1742 
Q 1991 1309 1228 531 
z
" transform="scale(0.015625)"/>
       </defs>
       <use xlink:href="#DejaVuSans-32"/>
       <use xlink:href="#DejaVuSans-30" x="63.623047"/>
      </g>
     </g>
    </g>
    <g id="xtick_6">
     <g id="line2d_6">
      <g>
       <use xlink:href="#m8683893494" x="538.090909" y="384.48" style="stroke: #000000; stroke-width: 0.8"/>
      </g>
     </g>
     <g id="text_6">
      <!-- 25 -->
      <g transform="translate(531.728409 399.078438) scale(0.1 -0.1)">
       <use xlink:href="#DejaVuSans-32"/>
       <use xlink:href="#DejaVuSans-35" x="63.623047"/>
      </g>
     </g>
    </g>
    <g id="xtick_7">
     <g id="line2d_7">
      <g>
       <use xlink:href="#m8683893494" x="622.636364" y="384.48" style="stroke: #000000; stroke-width: 0.8"/>
      </g>
     </g>
     <g id="text_7">
      <!-- 30 -->
      <g transform="translate(616.273864 399.078438) scale(0.1 -0.1)">
       <defs>
        <path id="DejaVuSans-33" d="M 2597 2516 
Q 3050 2419 3304 2112 
Q 3559 1806 3559 1356 
Q 3559 666 3084 287 
Q 2609 -91 1734 -91 
Q 1441 -91 1130 -33 
Q 819 25 488 141 
L 488 750 
Q 750 597 1062 519 
Q 1375 441 1716 441 
Q 2309 441 2620 675 
Q 2931 909 2931 1356 
Q 2931 1769 2642 2001 
Q 2353 2234 1838 2234 
L 1294 2234 
L 1294 2753 
L 1863 2753 
Q 2328 2753 2575 2939 
Q 2822 3125 2822 3475 
Q 2822 3834 2567 4026 
Q 2313 4219 1838 4219 
Q 1578 4219 1281 4162 
Q 984 4106 628 3988 
L 628 4550 
Q 988 4650 1302 4700 
Q 1616 4750 1894 4750 
Q 2613 4750 3031 4423 
Q 3450 4097 3450 3541 
Q 3450 3153 3228 2886 
Q 3006 2619 2597 2516 
z
" transform="scale(0.015625)"/>
       </defs>
       <use xlink:href="#DejaVuSans-33"/>
       <use xlink:href="#DejaVuSans-30" x="63.623047"/>
      </g>
     </g>
    </g>
    <g id="text_8">
     <!-- Time (s) -->
     <g transform="translate(348.671094 412.756563) scale(0.1 -0.1)">
      <defs>
       <path id="DejaVuSans-54" d="M -19 4666 
L 3928 4666 
L 3928 4134 
L 2272 4134 
L 2272 0 
L 1638 0 
L 1638 4134 
L -19 4134 
L -19 4666 
z
" transform="scale(0.015625)"/>
       <path id="DejaVuSans-69" d="M 603 3500 
L 1178 3500 
L 1178 0 
L 603 0 
L 603 3500 
z
M 603 4863 
L 1178 4863 
L 1178 4134 
L 603 4134 
L 603 4863 
z
" transform="scale(0.015625)"/>
       <path id="DejaVuSans-6d" d="M 3328 2828 
Q 3544 3216 3844 3400 
Q 4144 3584 4550 3584 
Q 5097 3584 5394 3201 
Q 5691 2819 5691 2113 
L 5691 0 
L 5113 0 
L 5113 2094 
Q 5113 2597 4934 2840 
Q 4756 3084 4391 3084 
Q 3944 3084 3684 2787 
Q 3425 2491 3425 1978 
L 3425 0 
L 2847 0 
L 2847 2094 
Q 2847 2600 2669 2842 
Q 2491 3084 2119 3084 
Q 1678 3084 1418 2786 
Q 1159 2488 1159 1978 
L 1159 0 
L 581 0 
L 581 3500 
L 1159 3500 
L 1159 2956 
Q 1356 3278 1631 3431 
Q 1906 3584 2284 3584 
Q 2666 3584 2933 3390 
Q 3200 3197 3328 2828 
z
" transform="scale(0.015625)"/>
       <path id="DejaVuSans-65" d="M 3597 1894 
L 3597 1613 
L 953 1613 
Q 991 1019 1311 708 
Q 1631 397 2203 397 
Q 2534 397 2845 478 
Q 3156 559 3463 722 
L 3463 178 
Q 3153 47 2828 -22 
Q 2503 -91 2169 -91 
Q 1331 -91 842 396 
Q 353 884 353 1716 
Q 353 2575 817 3079 
Q 1281 3584 2069 3584 
Q 2775 3584 3186 3129 
Q 3597 2675 3597 1894 
z
M 3022 2063 
Q 3016 2534 2758 2815 
Q 2500 3097 2075 3097 
Q 1594 3097 1305 2825 
Q 1016 2553 972 2059 
L 3022 2063 
z
" transform="scale(0.015625)"/>
       <path id="DejaVuSans-20" transform="scale(0.015625)"/>
       <path id="DejaVuSans-28" d="M 1984 4856 
Q 1566 4138 1362 3434 
Q 1159 2731 1159 2009 
Q 1159 1288 1364 580 
Q 1569 -128 1984 -844 
L 1484 -844 
Q 1016 -109 783 600 
Q 550 1309 550 2009 
Q 550 2706 781 3412 
Q 1013 4119 1484 4856 
L 1984 4856 
z
" transform="scale(0.015625)"/>
       <path id="DejaVuSans-73" d="M 2834 3397 
L 2834 2853 
Q 2591 2978 2328 3040 
Q 2066 3103 1784 3103 
Q 1356 3103 1142 2972 
Q 928 2841 928 2578 
Q 928 2378 1081 2264 
Q 1234 2150 1697 2047 
L 1894 2003 
Q 2506 1872 2764 1633 
Q 3022 1394 3022 966 
Q 3022 478 2636 193 
Q 2250 -91 1575 -91 
Q 1294 -91 989 -36 
Q 684 19 347 128 
L 347 722 
Q 666 556 975 473 
Q 1284 391 1588 391 
Q 1994 391 2212 530 
Q 2431 669 2431 922 
Q 2431 1156 2273 1281 
Q 2116 1406 1581 1522 
L 1381 1569 
Q 847 1681 609 1914 
Q 372 2147 372 2553 
Q 372 3047 722 3315 
Q 1072 3584 1716 3584 
Q 2034 3584 2315 3537 
Q 2597 3491 2834 3397 
z
" transform="scale(0.015625)"/>
       <path id="DejaVuSans-29" d="M 513 4856 
L 1013 4856 
Q 1481 4119 1714 3412 
Q 1947 2706 1947 2009 
Q 1947 1309 1714 600 
Q 1481 -109 1013 -844 
L 513 -844 
Q 928 -128 1133 580 
Q 1338 1288 1338 2009 
Q 1338 2731 1133 3434 
Q 928 4138 513 4856 
z
" transform="scale(0.015625)"/>
      </defs>
      <use xlink:href="#DejaVuSans-54"/>
      <use xlink:href="#DejaVuSans-69" x="57.958984"/>
      <use xlink:href="#DejaVuSans-6d" x="85.742188"/>
      <use xlink:href="#DejaVuSans-65" x="183.154297"/>
      <use xlink:href="#DejaVuSans-20" x="244.677734"/>
      <use xlink:href="#DejaVuSans-28" x="276.464844"/>
      <use xlink:href="#DejaVuSans-73" x="315.478516"/>
      <use xlink:href="#DejaVuSans-29" x="367.578125"/>
     </g>
    </g>
   </g>
   <g id="matplotlib.axis_2">
    <g id="ytick_1">
     <g id="line2d_8">
      <defs>
       <path id="m4571a7979a" d="M 0 0 
L -3.5 0 
" style="stroke: #000000; stroke-width: 0.8"/>
      </defs>
      <g>
       <use xlink:href="#m4571a7979a" x="90" y="357.096989" style="stroke: #000000; stroke-width: 0.8"/>
      </g>
     </g>
     <g id="text_9">
      <!-- −2 -->
      <g transform="translate(68.257812 360.896208) scale(0.1 -0.1)">
       <defs>
        <path id="DejaVuSans-2212" d="M 678 2272 
L 4684 2272 
L 4684 1741 
L 678 1741 
L 678 2272 
z
" transform="scale(0.015625)"/>
       </defs>
       <use xlink:href="#DejaVuSans-2212"/>
       <use xlink:href="#DejaVuSans-32" x="83.789062"/>
      </g>
     </g>
    </g>
    <g id="ytick_2">
     <g id="line2d_9">
      <g>
       <use xlink:href="#m4571a7979a" x="90" y="316.935856" style="stroke: #000000; stroke-width: 0.8"/>
      </g>
     </g>
     <g id="text_10">
      <!-- 0 -->
      <g transform="translate(76.6375 320.735074) scale(0.1 -0.1)">
       <use xlink:href="#DejaVuSans-30"/>
      </g>
     </g>
    </g>
    <g id="ytick_3">
     <g id="line2d_10">
      <g>
       <use xlink:href="#m4571a7979a" x="90" y="276.774722" style="stroke: #000000; stroke-width: 0.8"/>
      </g>
     </g>
     <g id="text_11">
      <!-- 2 -->
      <g transform="translate(76.6375 280.573941) scale(0.1 -0.1)">
       <use xlink:href="#DejaVuSans-32"/>
      </g>
     </g>
    </g>
    <g id="ytick_4">
     <g id="line2d_11">
      <g>
       <use xlink:href="#m4571a7979a" x="90" y="236.613589" style="stroke: #000000; stroke-width: 0.8"/>
      </g>
     </g>
     <g id="text_12">
      <!-- 4 -->
      <g transform="translate(76.6375 240.412807) scale(0.1 -0.1)">
       <defs>
        <path id="DejaVuSans-34" d="M 2419 4116 
L 825 1625 
L 2419 1625 
L 2419 4116 
z
M 2253 4666 
L 3047 4666 
L 3047 1625 
L 3713 1625 
L 3713 1100 
L 3047 1100 
L 3047 0 
L 2419 0 
L 2419 1100 
L 313 1100 
L 313 1709 
L 2253 4666 
z
" transform="scale(0.015625)"/>
       </defs>
       <use xlink:href="#DejaVuSans-34"/>
      </g>
     </g>
    </g>
    <g id="ytick_5">
     <g id="line2d_12">
      <g>
       <use xlink:href="#m4571a7979a" x="90" y="196.452455" style="stroke: #000000; stroke-width: 0.8"/>
      </g>
     </g>
     <g id="text_13">
      <!-- 6 -->
      <g transform="translate(76.6375 200.251674) scale(0.1 -0.1)">
       <defs>
        <path id="DejaVuSans-36" d="M 2113 2584 
Q 1688 2584 1439 2293 
Q 1191 2003 1191 1497 
Q 1191 994 1439 701 
Q 1688 409 2113 409 
Q 2538 409 2786 701 
Q 3034 994 3034 1497 
Q 3034 2003 2786 2293 
Q 2538 2584 2113 2584 
z
M 3366 4563 
L 3366 3988 
Q 3128 4100 2886 4159 
Q 2644 4219 2406 4219 
Q 1781 4219 1451 3797 
Q 1122 3375 1075 2522 
Q 1259 2794 1537 2939 
Q 1816 3084 2150 3084 
Q 2853 3084 3261 2657 
Q 3669 2231 3669 1497 
Q 3669 778 3244 343 
Q 2819 -91 2113 -91 
Q 1303 -91 875 529 
Q 447 1150 447 2328 
Q 447 3434 972 4092 
Q 1497 4750 2381 4750 
Q 2619 4750 2861 4703 
Q 3103 4656 3366 4563 
z
" transform="scale(0.015625)"/>
       </defs>
       <use xlink:href="#DejaVuSans-36"/>
      </g>
     </g>
    </g>
    <g id="ytick_6">
     <g id="line2d_13">
      <g>
       <use xlink:href="#m4571a7979a" x="90" y="156.291322" style="stroke: #000000; stroke-width: 0.8"/>
      </g>
     </g>
     <g id="text_14">
      <!-- 8 -->
      <g transform="translate(76.6375 160.090541) scale(0.1 -0.1)">
       <defs>
        <path id="DejaVuSans-38" d="M 2034 2216 
Q 1584 2216 1326 1975 
Q 1069 1734 1069 1313 
Q 1069 891 1326 650 
Q 1584 409 2034 409 
Q 2484 409 2743 651 
Q 3003 894 3003 1313 
Q 3003 1734 2745 1975 
Q 2488 2216 2034 2216 
z
M 1403 2484 
Q 997 2584 770 2862 
Q 544 3141 544 3541 
Q 544 4100 942 4425 
Q 1341 4750 2034 4750 
Q 2731 4750 3128 4425 
Q 3525 4100 3525 3541 
Q 3525 3141 3298 2862 
Q 3072 2584 2669 2484 
Q 3125 2378 3379 2068 
Q 3634 1759 3634 1313 
Q 3634 634 3220 271 
Q 2806 -91 2034 -91 
Q 1263 -91 848 271 
Q 434 634 434 1313 
Q 434 1759 690 2068 
Q 947 2378 1403 2484 
z
M 1172 3481 
Q 1172 3119 1398 2916 
Q 1625 2713 2034 2713 
Q 2441 2713 2670 2916 
Q 2900 3119 2900 3481 
Q 2900 3844 2670 4047 
Q 2441 4250 2034 4250 
Q 1625 4250 1398 4047 
Q 1172 3844 1172 3481 
z
" transform="scale(0.015625)"/>
       </defs>
       <use xlink:href="#DejaVuSans-38"/>
      </g>
     </g>
    </g>
    <g id="ytick_7">
     <g id="line2d_14">
      <g>
       <use xlink:href="#m4571a7979a" x="90" y="116.130188" style="stroke: #000000; stroke-width: 0.8"/>
      </g>
     </g>
     <g id="text_15">
      <!-- 10 -->
      <g transform="translate(70.275 119.929407) scale(0.1 -0.1)">
       <use xlink:href="#DejaVuSans-31"/>
       <use xlink:href="#DejaVuSans-30" x="63.623047"/>
      </g>
     </g>
    </g>
    <g id="ytick_8">
     <g id="line2d_15">
      <g>
       <use xlink:href="#m4571a7979a" x="90" y="75.969055" style="stroke: #000000; stroke-width: 0.8"/>
      </g>
     </g>
     <g id="text_16">
      <!-- 12 -->
      <g transform="translate(70.275 79.768274) scale(0.1 -0.1)">
       <use xlink:href="#DejaVuSans-31"/>
       <use xlink:href="#DejaVuSans-32" x="63.623047"/>
      </g>
     </g>
    </g>
    <g id="text_17">
     <!-- Amplitude -->
     <g transform="translate(62.178125 243.782656) rotate(-90) scale(0.1 -0.1)">
      <defs>
       <path id="DejaVuSans-41" d="M 2188 4044 
L 1331 1722 
L 3047 1722 
L 2188 4044 
z
M 1831 4666 
L 2547 4666 
L 4325 0 
L 3669 0 
L 3244 1197 
L 1141 1197 
L 716 0 
L 50 0 
L 1831 4666 
z
" transform="scale(0.015625)"/>
       <path id="DejaVuSans-70" d="M 1159 525 
L 1159 -1331 
L 581 -1331 
L 581 3500 
L 1159 3500 
L 1159 2969 
Q 1341 3281 1617 3432 
Q 1894 3584 2278 3584 
Q 2916 3584 3314 3078 
Q 3713 2572 3713 1747 
Q 3713 922 3314 415 
Q 2916 -91 2278 -91 
Q 1894 -91 1617 61 
Q 1341 213 1159 525 
z
M 3116 1747 
Q 3116 2381 2855 2742 
Q 2594 3103 2138 3103 
Q 1681 3103 1420 2742 
Q 1159 2381 1159 1747 
Q 1159 1113 1420 752 
Q 1681 391 2138 391 
Q 2594 391 2855 752 
Q 3116 1113 3116 1747 
z
" transform="scale(0.015625)"/>
       <path id="DejaVuSans-6c" d="M 603 4863 
L 1178 4863 
L 1178 0 
L 603 0 
L 603 4863 
z
" transform="scale(0.015625)"/>
       <path id="DejaVuSans-74" d="M 1172 4494 
L 1172 3500 
L 2356 3500 
L 2356 3053 
L 1172 3053 
L 1172 1153 
Q 1172 725 1289 603 
Q 1406 481 1766 481 
L 2356 481 
L 2356 0 
L 1766 0 
Q 1100 0 847 248 
Q 594 497 594 1153 
L 594 3053 
L 172 3053 
L 172 3500 
L 594 3500 
L 594 4494 
L 1172 4494 
z
" transform="scale(0.015625)"/>
       <path id="DejaVuSans-75" d="M 544 1381 
L 544 3500 
L 1119 3500 
L 1119 1403 
Q 1119 906 1312 657 
Q 1506 409 1894 409 
Q 2359 409 2629 706 
Q 2900 1003 2900 1516 
L 2900 3500 
L 3475 3500 
L 3475 0 
L 2900 0 
L 2900 538 
Q 2691 219 2414 64 
Q 2138 -91 1772 -91 
Q 1169 -91 856 284 
Q 544 659 544 1381 
z
M 1991 3584 
L 1991 3584 
z
" transform="scale(0.015625)"/>
       <path id="DejaVuSans-64" d="M 2906 2969 
L 2906 4863 
L 3481 4863 
L 3481 0 
L 2906 0 
L 2906 525 
Q 2725 213 2448 61 
Q 2172 -91 1784 -91 
Q 1150 -91 751 415 
Q 353 922 353 1747 
Q 353 2572 751 3078 
Q 1150 3584 1784 3584 
Q 2172 3584 2448 3432 
Q 2725 3281 2906 2969 
z
M 947 1747 
Q 947 1113 1208 752 
Q 1469 391 1925 391 
Q 2381 391 2643 752 
Q 2906 1113 2906 1747 
Q 2906 2381 2643 2742 
Q 2381 3103 1925 3103 
Q 1469 3103 1208 2742 
Q 947 2381 947 1747 
z
" transform="scale(0.015625)"/>
      </defs>
      <use xlink:href="#DejaVuSans-41"/>
      <use xlink:href="#DejaVuSans-6d" x="68.408203"/>
      <use xlink:href="#DejaVuSans-70" x="165.820312"/>
      <use xlink:href="#DejaVuSans-6c" x="229.296875"/>
      <use xlink:href="#DejaVuSans-69" x="257.080078"/>
      <use xlink:href="#DejaVuSans-74" x="284.863281"/>
      <use xlink:href="#DejaVuSans-75" x="324.072266"/>
      <use xlink:href="#DejaVuSans-64" x="387.451172"/>
      <use xlink:href="#DejaVuSans-65" x="450.927734"/>
     </g>
    </g>
   </g>
   <g id="line2d_16">
    <path d="M 115.363636 316.935856 
L 156.234271 317.045962 
L 159.092003 317.109872 
L 163.454694 317.080257 
L 173.465209 316.698984 
L 178.436648 316.600277 
L 182.494965 316.779308 
L 195.109567 317.427287 
L 198.542227 317.186037 
L 204.409877 316.486525 
L 208.299098 316.135576 
L 211.12301 316.140126 
L 215.316604 316.630061 
L 219.408741 317.422536 
L 223.264142 318.094267 
L 225.766771 318.266694 
L 227.829749 318.164303 
L 230.011094 317.831885 
L 232.818097 317.117394 
L 239.243766 315.223784 
L 241.272924 314.94288 
L 243.065348 314.96875 
L 244.621036 315.179344 
L 246.498008 315.671525 
L 248.442618 316.41772 
L 251.621633 317.94057 
L 253.397147 318.764072 
L 255.477034 319.524525 
L 257.015813 319.843854 
L 258.470043 319.922132 
L 259.805906 319.78094 
L 261.192497 319.397056 
L 262.646728 318.791375 
L 264.388422 317.759163 
L 266.46831 316.264482 
L 270.002427 313.715009 
L 271.473567 312.918592 
L 273.079984 312.38696 
L 274.162202 312.26027 
L 275.26133 312.359278 
L 276.343548 312.678197 
L 277.442675 313.241244 
L 278.592532 314.088853 
L 279.962214 315.391509 
L 281.399535 317.061133 
L 286.370973 323.574342 
L 286.50625 324.170335 
L 286.573889 324.021295 
L 286.709166 323.976273 
L 286.726076 323.989189 
L 286.945901 324.076299 
L 287.081178 324.101846 
L 287.114998 324.160827 
L 287.165727 324.030804 
L 287.216456 323.934412 
L 287.267185 323.999255 
L 287.453191 324.305392 
L 287.48701 324.232847 
L 287.740655 324.467922 
L 287.774474 324.381175 
L 287.791384 324.374457 
L 287.808294 324.433873 
L 288.197216 325.491784 
L 288.214125 325.481596 
L 288.247945 325.409877 
L 288.281764 325.554776 
L 289.600717 332.286658 
L 289.617627 332.244602 
L 289.719085 332.175477 
L 289.735994 332.200567 
L 289.786723 332.315401 
L 289.820543 332.161934 
L 290.023458 331.437813 
L 290.040368 331.444479 
L 290.158736 330.45989 
L 291.224044 318.437483 
L 291.376231 317.181898 
L 291.579147 315.814727 
L 291.629876 315.581802 
L 291.663695 315.759769 
L 291.748243 316.370914 
L 291.798972 316.115202 
L 291.951159 312.237122 
L 292.103346 309.471595 
L 292.137165 309.836173 
L 292.255533 314.602989 
L 292.627545 331.525038 
L 292.830461 333.095403 
L 292.88119 332.923804 
L 293.067196 330.623625 
L 293.35466 324.201401 
L 293.675944 310.010351 
L 294.217053 290.034267 
L 294.453788 286.15733 
L 294.470698 286.162839 
L 294.538336 286.030196 
L 294.605975 286.619027 
L 294.84271 292.321785 
L 295.130174 303.507675 
L 295.705102 327.14878 
L 295.941837 331.298989 
L 296.060205 331.637188 
L 296.077115 331.523618 
L 296.280031 329.48962 
L 296.973326 316.634236 
L 297.024055 316.926235 
L 297.125513 318.653036 
L 298.123183 339.892631 
L 298.444466 344.830722 
L 298.461376 344.773107 
L 298.73193 343.216514 
L 299.053214 334.113358 
L 299.797239 295.511038 
L 300.186161 280.233592 
L 300.270709 279.918332 
L 300.287619 279.956592 
L 300.473625 283.736081 
L 300.642721 292.534731 
L 301.606572 350.768034 
L 301.724939 351.489228 
L 301.741849 351.448888 
L 302.029313 345.301909 
L 302.232229 336.270962 
L 302.384416 319.659608 
L 302.570422 276.289366 
L 302.824067 156.062029 
L 303.043892 82.048164 
L 303.060802 83.420064 
L 303.17917 114.545876 
L 303.787917 329.144721 
L 304.024652 342.302325 
L 304.345936 348.457435 
L 304.362845 348.467488 
L 304.379755 348.393134 
L 304.582671 344.768849 
L 304.819406 334.536177 
L 305.343605 295.434101 
L 305.647979 279.052845 
L 305.800166 277.480808 
L 305.817076 277.530321 
L 305.884714 278.171784 
L 306.003082 281.265416 
L 306.290546 296.595925 
L 306.916203 330.816407 
L 307.271306 340.665865 
L 307.288216 340.801078 
L 307.355854 340.636977 
L 307.372764 340.638324 
L 307.660228 337.227539 
L 308.218247 328.281352 
L 308.285885 328.08997 
L 308.319705 328.202368 
L 308.471891 330.840488 
L 308.894633 340.185521 
L 309.283555 350.362367 
L 309.807754 360.003622 
L 309.841574 360.088096 
L 309.875393 359.963425 
L 309.99376 359.177348 
L 310.145947 356.931561 
L 310.382682 349.451787 
L 311.48181 299.271753 
L 311.583268 298.558258 
L 311.633997 298.888721 
L 311.752364 301.191804 
L 311.870732 306.444946 
L 312.158196 329.277294 
L 312.648576 362.116667 
L 312.95295 367.924669 
L 312.96986 367.849064 
L 313.054408 367.528363 
L 313.155866 365.975618 
L 313.44333 358.251082 
L 313.629336 343.297768 
L 313.832252 302.476811 
L 314.085897 190.839704 
L 314.339542 104.742697 
L 314.356451 105.45966 
L 314.441 123.713285 
L 315.201934 353.360775 
L 315.38794 357.794331 
L 315.40485 357.793087 
L 315.641585 360.450564 
L 315.743043 359.981488 
L 315.810682 358.774816 
L 315.979778 353.247695 
L 316.233423 337.987717 
L 316.977448 288.757016 
L 317.045086 288.15604 
L 317.112725 288.456281 
L 317.33255 293.141657 
L 317.721473 313.548097 
L 318.499317 349.373691 
L 318.516226 349.464353 
L 318.566955 349.316034 
L 318.702232 348.140572 
L 319.175703 340.203417 
L 319.480077 335.673838 
L 319.530806 335.899788 
L 319.699902 339.026411 
L 319.953547 343.727801 
L 319.970457 343.703543 
L 319.987366 343.806571 
L 320.427017 349.481458 
L 321.035765 360.520452 
L 321.052674 360.438894 
L 321.357048 356.041825 
L 321.830519 337.2933 
L 322.692911 298.568793 
L 322.76055 297.998627 
L 322.845098 298.098617 
L 322.980375 301.060925 
L 323.166381 312.490546 
L 323.690581 348.869353 
L 324.011864 358.53288 
L 324.147141 359.506419 
L 324.21478 359.136056 
L 324.350057 356.786906 
L 324.68825 343.484237 
L 324.874256 322.169087 
L 325.077172 269.466379 
L 325.499914 102.623185 
L 325.584462 112.520625 
L 325.770468 190.810448 
L 326.108661 309.43024 
L 326.362306 336.206818 
L 326.615951 343.445546 
L 326.751228 344.682791 
L 326.785047 344.254074 
L 326.987963 340.688289 
L 327.309247 326.35791 
L 328.239278 271.271022 
L 328.340736 271.717163 
L 328.459103 274.068686 
L 328.61129 280.459069 
L 329.338405 318.061776 
L 329.710418 330.474547 
L 329.828785 331.20065 
L 329.862605 330.891349 
L 330.031701 328.882525 
L 330.623539 318.841821 
L 330.691178 318.903584 
L 330.809545 320.391516 
L 331.367564 332.52563 
L 331.587389 336.064923 
L 332.263775 348.67279 
L 332.280685 348.621522 
L 332.51742 346.262634 
L 333.02471 329.187302 
L 333.836373 292.998173 
L 333.887102 292.810565 
L 333.954741 292.68112 
L 333.98856 292.833386 
L 334.090018 293.86065 
L 334.191476 296.547777 
L 334.377482 306.734098 
L 335.172236 354.725992 
L 335.358242 356.925922 
L 335.375152 356.998755 
L 335.425881 356.827056 
L 335.510429 355.757294 
L 335.831713 346.444264 
L 336.034628 330.40483 
L 336.237544 290.350937 
L 336.491189 183.790247 
L 336.727924 111.772514 
L 336.744834 112.436221 
L 336.829382 128.995616 
L 337.556497 340.077904 
L 337.793233 348.471738 
L 337.979239 350.158111 
L 338.046877 349.974018 
L 338.148335 349.547279 
L 338.368161 343.628816 
L 339.044547 297.700201 
L 339.348921 283.461418 
L 339.433469 282.773083 
L 339.501108 283.081719 
L 339.653295 285.878388 
L 339.85621 295.491614 
L 340.566416 330.960882 
L 340.921519 342.229816 
L 340.938428 342.235919 
L 340.955338 342.148328 
L 341.158254 340.951744 
L 341.682453 332.695677 
L 341.953008 328.933057 
L 342.003736 328.977441 
L 342.037556 329.139148 
L 342.206652 332.91915 
L 342.494116 339.770531 
L 342.511026 339.711586 
L 342.527936 339.850409 
L 342.764671 342.704243 
L 343.441057 357.451137 
L 343.610154 357.949453 
L 343.846889 356.189892 
L 344.151263 349.654865 
L 344.540185 330.640396 
L 345.165842 304.153102 
L 345.334938 303.030552 
L 345.351848 303.028878 
L 345.504035 306.05075 
L 345.774589 322.891388 
L 346.298789 356.700361 
L 346.636982 368.340398 
L 346.72153 369.095929 
L 346.772259 368.846755 
L 346.907536 365.639098 
L 347.313368 345.618778 
L 347.499374 318.028298 
L 347.7192 244.469929 
L 348.057393 126.574613 
L 348.074302 127.202512 
L 348.158851 143.743679 
L 348.902876 346.029394 
L 349.17343 353.741812 
L 349.342527 355.342765 
L 349.359436 355.273139 
L 349.494713 353.117431 
L 349.900545 334.821012 
L 350.729118 285.102674 
L 350.779847 284.618627 
L 350.847486 284.83828 
L 350.881305 284.778011 
L 350.932034 285.011355 
L 351.016582 286.569208 
L 351.168769 293.613433 
L 351.692969 322.187195 
L 352.267897 340.745308 
L 352.403174 341.245779 
L 352.453903 340.865002 
L 352.927373 332.400836 
L 352.978102 331.964776 
L 353.028831 331.587637 
L 353.07956 332.055307 
L 353.434663 337.580038 
L 353.519211 336.94384 
L 353.553031 336.751361 
L 353.58685 336.49852 
L 353.654488 336.711532 
L 353.975772 341.400956 
L 354.449242 350.289195 
L 354.466152 350.326328 
L 354.499971 350.136062 
L 354.702887 348.963953 
L 354.719797 348.979659 
L 354.736706 348.935539 
L 355.142538 341.397479 
L 355.345454 333.454471 
L 356.00493 297.277972 
L 356.207846 293.562944 
L 356.241666 293.699776 
L 356.275485 293.737841 
L 356.309304 293.860725 
L 356.326214 293.654188 
L 356.343124 293.334556 
L 356.410762 293.857149 
L 356.546039 297.732814 
L 356.901142 318.302992 
L 357.47607 350.96263 
L 357.848083 345.846349 
L 358.237005 337.494223 
L 358.372282 323.372308 
L 358.609017 269.406397 
L 359.048668 115.214221 
L 359.133217 126.58701 
L 359.369952 224.661409 
L 359.674326 309.437354 
L 359.94488 334.150628 
L 360.130886 337.009297 
L 360.198525 337.349084 
L 360.249254 337.015195 
L 360.299983 337.159887 
L 360.519808 334.468386 
L 360.891821 321.261013 
L 361.41602 288.043878 
L 361.703484 276.159154 
L 361.88949 274.721221 
L 361.92331 274.920319 
L 361.990948 276.063966 
L 362.176954 282.877543 
L 362.565876 304.823226 
L 363.073166 330.233659 
L 363.36063 335.941377 
L 363.597365 334.400228 
L 363.766462 333.47492 
L 363.783372 333.555653 
L 364.104655 340.011072 
L 364.256842 340.971349 
L 364.459758 340.547965 
L 364.476667 340.648747 
L 364.696493 342.959539 
L 365.406698 353.668893 
L 365.457427 353.590043 
L 365.677253 350.13417 
L 366.099994 342.488087 
L 366.996206 304.250057 
L 367.063845 303.753828 
L 367.097664 303.994214 
L 367.30058 307.395141 
L 367.672592 329.298247 
L 368.179882 360.697458 
L 368.433527 367.27147 
L 368.602623 369.36 
L 368.704081 368.480081 
L 368.856268 364.057912 
L 369.008455 355.782951 
L 369.22828 327.987386 
L 369.448106 264.216538 
L 369.820118 130.357843 
L 369.870847 133.904614 
L 369.989215 167.683229 
L 370.496504 329.606552 
L 370.750149 346.998732 
L 370.885426 348.906965 
L 370.902336 348.87462 
L 370.919246 348.882391 
L 370.936155 348.781984 
L 371.392716 345.217861 
L 371.646361 333.470233 
L 372.458024 279.115629 
L 372.559482 278.529744 
L 372.593302 278.735054 
L 372.897675 284.220136 
L 373.117501 293.688544 
L 373.793887 326.500885 
L 373.996803 330.646624 
L 374.182809 331.941716 
L 374.199719 331.942009 
L 374.571731 338.445692 
L 374.723918 340.852346 
L 374.808466 340.688415 
L 374.960653 340.33527 
L 374.994473 340.03616 
L 375.045202 340.513194 
L 375.062111 340.48018 
L 375.09593 340.561484 
L 375.214298 341.0528 
L 375.231208 341.009697 
L 375.298846 341.081872 
L 375.366485 340.483064 
L 375.417214 340.672067 
L 375.467943 340.463231 
L 375.484853 340.533498 
L 375.535581 340.494771 
L 376.009052 345.213549 
L 376.059781 344.61717 
L 376.195058 341.81137 
L 376.871444 321.775618 
L 377.497101 298.202772 
L 377.514011 298.252335 
L 377.801475 301.611333 
L 378.105849 320.624991 
L 378.596229 352.317136 
L 378.883693 360.839628 
L 379.01897 361.480271 
L 379.137338 360.65168 
L 379.458621 353.304986 
L 379.593899 341.720453 
L 379.796814 305.566692 
L 380.067369 207.919165 
L 380.321014 128.199857 
L 380.337923 128.386432 
L 380.405562 137.156719 
L 380.574659 201.534403 
L 380.929761 320.064156 
L 381.183406 344.319383 
L 381.369412 348.183272 
L 381.589238 351.178804 
L 381.623057 351.09862 
L 381.656876 351.158738 
L 381.741425 349.826612 
L 382.130347 335.42678 
L 382.620727 307.496728 
L 382.95892 291.204496 
L 383.026558 290.243215 
L 383.094197 290.606794 
L 383.111107 290.554937 
L 383.128016 290.82471 
L 383.144926 290.887231 
L 383.178745 290.702342 
L 383.212565 290.563254 
L 383.246384 290.734785 
L 383.702945 306.69528 
L 384.091867 327.031535 
L 384.345512 337.427881 
L 384.599156 340.019507 
L 384.954259 347.110154 
L 385.106446 348.857697 
L 385.123356 348.646584 
L 385.224814 348.115597 
L 385.258633 348.206978 
L 385.275543 348.187059 
L 385.39391 347.276136 
L 385.41082 347.427256 
L 385.715194 350.427095 
L 385.732103 350.405523 
L 385.749013 350.427121 
L 386.290122 355.203235 
L 386.340851 354.694599 
L 386.39158 354.284423 
L 386.662134 349.5372 
L 386.763592 348.014849 
L 387.930358 306.026662 
L 387.947268 305.990334 
L 388.285461 313.938618 
L 388.623654 336.235787 
L 388.928028 354.226458 
L 389.31695 360.780712 
L 389.401498 360.348426 
L 389.621324 356.842072 
L 389.858059 349.347271 
L 390.027155 332.815304 
L 390.246981 281.287093 
L 390.686632 130.185639 
L 390.754271 138.776413 
L 390.923367 202.425078 
L 391.27847 317.900161 
L 391.549024 343.155161 
L 391.735031 346.608347 
L 391.937946 348.198886 
L 392.022495 347.856319 
L 392.123953 346.411522 
L 392.377597 337.114008 
L 392.614333 322.366447 
L 393.290719 280.288824 
L 393.459815 278.619566 
L 393.476725 278.706472 
L 393.69655 280.969592 
L 393.882557 288.092692 
L 394.457485 314.649272 
L 394.998594 334.22092 
L 395.218419 338.041646 
L 395.269148 337.613988 
L 395.387516 336.435013 
L 395.65807 332.03964 
L 395.708799 331.621122 
L 395.742619 331.321932 
L 395.827167 331.525966 
L 395.894806 331.157228 
L 395.928625 331.418834 
L 396.14845 333.987798 
L 396.266818 335.22204 
L 396.317547 334.916461 
L 396.334457 334.983152 
L 396.368276 334.828527 
L 396.740288 327.066744 
L 397.991603 290.988735 
L 398.008512 291.040689 
L 398.194519 292.593348 
L 398.431254 300.329994 
L 398.651079 316.135566 
L 399.141459 349.039434 
L 399.412014 356.880475 
L 399.513472 357.218139 
L 399.547291 357.105745 
L 399.699478 354.206314 
L 399.936213 347.861105 
L 400.122219 335.522854 
L 400.308225 302.11058 
L 400.528051 217.517659 
L 400.815515 120.896234 
L 400.832425 121.676392 
L 400.916973 139.103144 
L 401.660998 348.775327 
L 401.880823 355.612636 
L 402.04992 357.403995 
L 402.083739 357.245332 
L 402.117558 357.296631 
L 402.202107 356.637143 
L 402.337384 353.540039 
L 402.5403 345.150147 
L 403.03068 310.842664 
L 403.385783 291.318187 
L 403.52106 290.217867 
L 403.554879 290.311781 
L 403.723976 292.516159 
L 403.960711 302.143842 
L 404.50182 325.088937 
L 405.161296 350.59142 
L 405.279664 350.197473 
L 405.516399 349.005283 
L 405.533309 348.985337 
L 405.550218 349.024661 
L 405.600947 349.553751 
L 405.685496 349.396077 
L 405.837682 348.774674 
L 406.361882 346.616391 
L 406.378791 346.65887 
L 406.42952 346.824091 
L 406.46334 346.586624 
L 406.530978 346.003247 
L 406.835352 339.492725 
L 407.291913 322.51736 
L 407.782293 306.69476 
L 408.035938 304.960267 
L 408.103576 305.278201 
L 408.221944 306.751402 
L 408.374131 312.876434 
L 408.695414 337.260766 
L 409.084336 361.412158 
L 409.337981 365.688429 
L 409.354891 365.749764 
L 409.38871 365.55845 
L 409.507078 364.755123 
L 409.86218 356.04215 
L 410.048186 341.258542 
L 410.251102 301.392587 
L 410.504747 195.679589 
L 410.741482 123.645191 
L 410.758392 124.38373 
L 410.84294 141.545619 
L 411.536236 347.907632 
L 411.806791 359.059669 
L 411.975887 361.316196 
L 411.992797 361.300738 
L 412.009706 361.307678 
L 412.026616 361.262136 
L 412.128074 360.154664 
L 412.297171 355.829436 
L 412.567725 340.70605 
L 413.29484 290.83137 
L 413.379388 290.120039 
L 413.430117 290.43636 
L 413.869768 298.598325 
L 414.478516 327.997716 
L 415.053444 354.45141 
L 415.104173 355.092984 
L 415.171812 354.763721 
L 415.205631 354.902935 
L 415.23945 354.78609 
L 415.526915 352.09583 
L 415.543824 352.100121 
L 415.560734 352.159269 
L 415.594553 351.893518 
L 415.848198 349.671873 
L 415.882017 349.768142 
L 415.915837 349.506001 
L 416.034204 349.110071 
L 416.270939 346.632236 
L 416.676771 338.939307 
L 416.812048 334.977307 
L 417.031874 325.803829 
L 417.809718 295.429139 
L 417.928085 295.948625 
L 418.147911 300.439705 
L 418.350827 309.430625 
L 419.16249 356.498609 
L 419.365406 359.38488 
L 419.399225 359.483587 
L 419.449954 359.256673 
L 419.568322 357.614167 
L 419.805057 350.424595 
L 420.007973 331.729465 
L 420.210889 284.124969 
L 420.515263 137.326051 
L 420.66745 98.630567 
L 420.701269 100.536853 
L 420.802727 128.308664 
L 421.394565 333.647462 
L 421.6313 348.257719 
L 421.952583 355.26446 
L 421.986403 355.044968 
L 422.070951 354.440528 
L 422.290776 346.282428 
L 422.57824 329.203024 
L 423.322265 285.631613 
L 423.356085 285.58786 
L 423.389904 285.697596 
L 423.559 288.351994 
L 423.829555 299.499452 
L 424.353754 323.933808 
L 425.097779 347.758098 
L 425.199237 347.384269 
L 425.334514 346.466757 
L 425.672707 344.051134 
L 425.689617 344.049649 
L 425.892533 343.33032 
L 426.416732 339.99153 
L 427.110028 321.299267 
L 427.803324 293.359466 
L 427.820233 293.430242 
L 428.192246 299.652528 
L 428.361342 307.484166 
L 429.105367 353.497793 
L 429.409741 357.226824 
L 429.426651 357.293881 
L 429.46047 357.066741 
L 429.714115 352.674943 
L 429.883211 344.222783 
L 430.052308 323.641856 
L 430.238314 272.694114 
L 430.661055 101.764603 
L 430.745604 114.049024 
L 430.965429 214.798332 
L 431.286713 321.932589 
L 431.540357 347.506042 
L 431.810912 354.13871 
L 431.929279 355.084498 
L 431.963099 354.882798 
L 432.182924 350.542442 
L 432.40275 341.410195 
L 432.910039 305.983921 
L 433.265142 286.514914 
L 433.34969 285.837646 
L 433.38351 286.133975 
L 433.620245 291.390093 
L 433.84007 302.326932 
L 434.296631 323.106633 
L 435.091385 353.73512 
L 435.192843 353.461249 
L 435.395759 352.121797 
L 435.429578 352.199795 
L 435.446488 352.220576 
L 435.463397 352.101822 
L 435.480307 352.00808 
L 435.531036 352.180977 
L 435.564855 352.143137 
L 435.581765 352.104519 
L 435.632494 352.174271 
L 435.666313 352.278405 
L 435.700132 351.966336 
L 435.903048 352.203275 
L 435.919958 352.128835 
L 436.105964 351.168624 
L 436.562525 345.244007 
L 437.238911 321.643534 
L 437.729291 302.387647 
L 437.847659 301.752467 
L 437.864568 301.804007 
L 438.084394 304.482412 
L 438.304219 313.183391 
L 438.574774 333.671069 
L 438.963696 358.298224 
L 439.352618 366.185841 
L 439.386437 366.323865 
L 439.420256 365.953662 
L 439.589353 363.405521 
L 439.809178 356.056308 
L 439.961365 342.944061 
L 440.164281 301.057403 
L 440.417926 185.815823 
L 440.654661 105.138772 
L 440.671571 105.657612 
L 440.756119 123.170336 
L 441.517054 350.867189 
L 441.821427 359.886716 
L 442.091982 362.546796 
L 442.15962 362.712608 
L 442.19344 362.540847 
L 442.328717 358.57798 
L 442.497814 343.830845 
L 443.005103 297.675604 
L 443.241838 289.957002 
L 443.275658 289.751473 
L 443.343296 289.913925 
L 443.410935 290.496232 
L 443.613851 295.171952 
L 444.408605 332.531284 
L 444.865165 352.541576 
L 445.000442 353.143951 
L 445.017352 353.091697 
L 445.473913 350.634548 
L 445.524642 350.810432 
L 445.744467 351.495591 
L 445.795196 351.387949 
L 445.913564 350.103021 
L 446.302486 341.84976 
L 447.5538 295.805483 
L 447.655258 295.560093 
L 447.689078 295.608075 
L 447.807445 297.554743 
L 447.959632 303.589235 
L 448.297825 327.345582 
L 448.754386 353.451561 
L 449.04185 359.323807 
L 449.126398 359.452658 
L 449.160217 359.372582 
L 449.194037 359.314833 
L 449.363133 356.229814 
L 449.481501 352.831859 
L 449.650597 342.369583 
L 449.836604 314.433182 
L 450.039519 242.345067 
L 450.377713 101.618365 
L 450.411532 102.843842 
L 450.51299 129.200253 
L 451.121737 335.831288 
L 451.375382 350.744579 
L 451.629027 354.208823 
L 451.713575 353.935513 
L 451.882672 351.155596 
L 452.102497 342.074068 
L 453.015619 287.854203 
L 453.049438 287.814957 
L 453.083257 287.631174 
L 453.117077 287.995602 
L 453.269264 290.89572 
L 453.43836 297.177518 
L 454.013288 321.358998 
L 454.368391 338.108743 
L 454.672765 349.222765 
L 454.740403 349.655201 
L 454.791132 349.41847 
L 454.994048 347.449947 
L 455.264603 345.291572 
L 455.39988 344.834029 
L 455.450609 344.920252 
L 455.687344 346.643591 
L 455.704254 346.574756 
L 455.721163 346.549749 
L 455.771892 346.661366 
L 455.788802 346.657716 
L 455.974808 344.375155 
L 456.448279 331.480107 
L 456.837201 315.297208 
L 457.293761 299.607518 
L 457.530496 297.208294 
L 457.564316 297.052427 
L 457.615045 297.274952 
L 457.699593 298.28119 
L 457.85178 303.864474 
L 458.139244 325.683735 
L 458.578895 354.807815 
L 458.83254 361.422806 
L 458.950907 362.051488 
L 458.967817 361.967031 
L 459.069275 361.314746 
L 459.33983 355.195126 
L 459.492016 346.675306 
L 459.678023 322.174527 
L 459.880938 258.013993 
L 460.252951 102.514342 
L 460.320589 109.40696 
L 460.472776 170.328733 
L 460.861698 319.901704 
L 461.132253 348.438486 
L 461.335169 352.51707 
L 461.487356 353.860966 
L 461.554994 353.735619 
L 461.656452 352.798615 
L 461.876278 347.274256 
L 462.129923 333.353289 
L 462.857038 288.31541 
L 462.873947 288.282773 
L 462.907767 288.392061 
L 462.958496 288.706949 
L 463.279779 297.575792 
L 464.125262 330.992048 
L 464.429636 336.473793 
L 464.598732 337.116867 
L 464.734009 337.762015 
L 465.072202 342.578078 
L 465.139841 342.457993 
L 465.17366 342.550395 
L 465.224389 342.374673 
L 465.562582 341.125795 
L 465.579492 341.138087 
L 465.68095 341.586381 
L 466.103691 347.411878 
L 466.205149 346.941385 
L 466.424975 345.639347 
L 466.695529 340.31109 
L 466.966084 331.107871 
L 467.794657 294.956951 
L 467.929934 296.262773 
L 468.13285 301.529531 
L 468.386495 316.686433 
L 468.978333 354.228423 
L 469.282706 359.789874 
L 469.316526 360.012749 
L 469.384164 359.745871 
L 469.502532 358.53047 
L 469.806906 348.568976 
L 469.976002 329.44047 
L 470.178918 275.941107 
L 470.618569 107.229305 
L 470.686208 116.477986 
L 470.872214 195.588507 
L 471.227317 321.149943 
L 471.480961 347.654682 
L 471.700787 352.306859 
L 471.886793 353.80955 
L 472.02207 352.323398 
L 472.309535 343.577994 
L 472.596999 326.482642 
L 473.222656 290.311658 
L 473.256475 290.131486 
L 473.307204 290.333594 
L 473.391752 291.923827 
L 473.594668 298.111905 
L 474.626157 337.008651 
L 474.812163 338.288892 
L 474.862892 338.255636 
L 474.896712 338.090246 
L 475.116537 336.734801 
L 475.184176 336.808102 
L 475.268724 337.505591 
L 475.573098 341.885631 
L 475.657646 341.490256 
L 475.708375 341.196156 
L 475.792923 341.212017 
L 475.877472 341.152137 
L 475.894381 341.215275 
L 476.215665 344.449321 
L 476.418581 348.545841 
L 476.689135 353.232228 
L 476.706045 353.348086 
L 476.790593 353.277555 
L 477.027328 351.445365 
L 477.297883 344.038835 
L 477.788263 321.319957 
L 478.244823 301.297238 
L 478.464649 298.454834 
L 478.498468 298.459707 
L 478.616836 300.095101 
L 478.769023 305.980635 
L 479.107216 330.264463 
L 479.563776 358.766592 
L 479.817421 363.542497 
L 479.85124 363.691929 
L 479.901969 363.374967 
L 480.104885 359.523663 
L 480.37544 349.26555 
L 480.561446 328.630554 
L 480.764362 275.328911 
L 481.204013 107.393246 
L 481.271651 116.740103 
L 481.457658 194.935529 
L 481.81276 319.009225 
L 482.066405 344.784885 
L 482.286231 350.563671 
L 482.438418 352.273844 
L 482.472237 352.263387 
L 482.506056 352.15826 
L 482.692062 348.453559 
L 482.928798 337.533711 
L 483.892648 282.335952 
L 483.926467 282.491218 
L 484.027925 284.042795 
L 484.28157 294.222687 
L 484.974866 325.039129 
L 485.329969 333.296823 
L 485.414517 332.767802 
L 485.820349 328.319301 
L 485.854168 328.477975 
L 485.887987 328.635606 
L 486.327638 334.253147 
L 486.344548 334.225693 
L 486.361458 334.191531 
L 486.395277 334.347011 
L 486.412186 334.308104 
L 486.564373 335.906636 
L 487.595862 347.520776 
L 487.663501 347.726876 
L 487.69732 347.576794 
L 487.815688 344.821113 
L 488.610442 309.19597 
L 488.948635 296.837369 
L 489.117731 295.180251 
L 489.134641 295.092989 
L 489.18537 295.394057 
L 489.371376 298.638318 
L 489.591202 309.998441 
L 490.301407 354.901459 
L 490.571961 358.961457 
L 490.588871 359.006474 
L 490.605781 358.945981 
L 490.876335 353.731495 
L 491.096161 343.017076 
L 491.282167 318.108482 
L 491.501992 252.263452 
L 491.874005 115.418785 
L 491.924734 119.995317 
L 492.060011 168.332215 
L 492.465843 320.609922 
L 492.719488 343.681508 
L 492.939313 349.641465 
L 493.10841 351.895442 
L 493.125319 351.799679 
L 493.243687 349.902996 
L 493.56497 338.501553 
L 493.953892 316.043614 
L 494.495001 289.39105 
L 494.56264 289.618554 
L 494.697917 292.582105 
L 495.002291 304.507236 
L 495.577219 326.680822 
L 495.983051 333.838186 
L 496.185967 335.170198 
L 496.236696 335.073216 
L 496.253605 335.162925 
L 496.473431 337.478771 
L 496.862353 342.622019 
L 496.99763 342.210513 
L 497.01454 342.343852 
L 497.50492 345.769003 
L 497.809294 349.167162 
L 497.843113 348.95929 
L 497.944571 349.007461 
L 497.9953 349.212507 
L 498.029119 349.010563 
L 498.181306 346.767407 
L 498.519499 336.648933 
L 499.44953 297.584348 
L 499.46644 297.601541 
L 499.550988 297.07655 
L 499.618627 297.467549 
L 499.838452 302.74278 
L 500.227374 330.538635 
L 500.717754 359.517027 
L 500.954489 363.368472 
L 500.988309 363.155118 
L 501.055947 362.546575 
L 501.42796 352.676129 
L 501.613966 335.794358 
L 501.799972 294.455939 
L 502.036707 189.320584 
L 502.290352 103.671471 
L 502.307262 104.527625 
L 502.40872 129.091126 
L 503.034377 338.28542 
L 503.254202 350.316988 
L 503.457118 353.048899 
L 503.575486 352.963581 
L 503.812221 349.149178 
L 504.065866 338.368209 
L 504.84371 289.60161 
L 504.928258 289.161098 
L 504.978987 289.51186 
L 505.097355 291.410109 
L 505.520096 311.646922 
L 505.909018 326.012928 
L 506.281031 334.61716 
L 506.467037 335.738731 
L 506.500856 335.678782 
L 506.551585 335.891982 
L 506.602314 335.645027 
L 506.754501 334.709053 
L 506.78832 335.055622 
L 506.957417 337.647133 
L 507.177242 341.58851 
L 507.194152 341.694928 
L 507.227971 341.230432 
L 507.464706 340.278965 
L 507.481616 340.350033 
L 508.039635 347.713343 
L 508.25946 350.042243 
L 508.377828 350.379513 
L 508.411647 350.259028 
L 508.445466 349.93004 
L 508.783659 343.851954 
L 509.104943 332.713998 
L 509.899697 295.065068 
L 509.933516 295.254991 
L 510.001155 295.803681 
L 510.23789 300.934058 
L 510.474625 315.40485 
L 511.083372 359.641917 
L 511.320108 365.459602 
L 511.404656 365.776304 
L 511.421566 365.566791 
L 511.624481 362.654668 
L 511.827397 357.066776 
L 512.013403 344.572217 
L 512.19941 310.233965 
L 512.419235 220.457902 
L 512.740519 90.49177 
L 512.757428 91.372935 
L 512.841977 111.499635 
L 513.569092 348.257483 
L 513.788917 355.144433 
L 513.974923 356.655892 
L 514.025652 356.517371 
L 514.228568 352.706287 
L 514.465303 342.688764 
L 515.395334 288.342868 
L 515.462973 288.63633 
L 515.581341 290.239973 
L 515.801166 298.135342 
L 516.376094 325.899393 
L 516.765016 334.263866 
L 516.967932 336.659983 
L 516.984842 336.583292 
L 517.137029 335.338488 
L 517.187758 335.359821 
L 517.204667 335.344425 
L 517.221577 335.425565 
L 517.289216 336.166501 
L 517.542861 341.875358 
L 517.627409 341.829748 
L 517.931783 339.03959 
L 518.016331 338.933342 
L 518.05015 338.683315 
L 518.100879 338.973975 
L 518.286885 340.108981 
L 518.489801 343.470415 
L 518.675807 345.269905 
L 518.726536 345.136409 
L 518.811085 345.431306 
L 518.844904 345.33676 
L 518.895633 345.476368 
L 518.912543 345.497077 
L 518.929452 345.351046 
L 519.284555 339.632921 
L 519.927122 309.471946 
L 520.316044 293.112338 
L 520.50205 291.702652 
L 520.535869 291.794325 
L 520.552779 291.77869 
L 520.569689 291.803475 
L 520.654237 293.03682 
L 520.789514 299.464165 
L 521.076978 323.292511 
L 521.584268 355.927686 
L 521.770274 359.580404 
L 521.804093 359.44753 
L 521.97319 358.437675 
L 522.379022 348.490712 
L 522.531209 333.991138 
L 522.717215 293.143579 
L 522.97086 174.313139 
L 523.190685 97.560039 
L 523.207595 97.580118 
L 523.275233 108.082651 
L 523.46124 192.229919 
L 523.799433 316.219052 
L 524.053078 344.343835 
L 524.323632 352.42684 
L 524.442 353.344526 
L 524.475819 353.189869 
L 524.492729 353.198434 
L 524.509638 353.121667 
L 524.830922 344.710253 
L 525.270573 317.065799 
L 525.811682 288.97247 
L 525.845501 288.938031 
L 525.862411 289.012089 
L 526.031507 291.505282 
L 526.335881 303.544184 
L 526.87699 326.498642 
L 527.35046 339.819988 
L 527.36737 339.815063 
L 527.435008 339.655286 
L 527.705563 335.681162 
L 527.959208 331.709115 
L 528.009937 331.900992 
L 528.128304 333.765313 
L 528.584865 338.86265 
L 528.753961 341.232724 
L 529.531806 352.412639 
L 529.599444 352.267172 
L 529.80236 349.71522 
L 530.191282 337.496911 
L 530.563295 317.681828 
L 531.155132 296.660029 
L 531.25659 297.202271 
L 531.459506 301.85136 
L 531.730061 319.393197 
L 532.23735 354.075914 
L 532.490995 359.91556 
L 532.575543 360.459802 
L 532.626272 360.305405 
L 532.74464 359.053555 
L 533.133562 347.333444 
L 533.302659 328.758136 
L 533.505574 275.976923 
L 533.928316 113.869972 
L 534.012864 124.225747 
L 534.19887 202.291882 
L 534.537063 316.84851 
L 534.790708 344.703688 
L 535.010534 350.591439 
L 535.21345 352.606024 
L 535.247269 352.426815 
L 535.416365 349.259561 
L 535.720739 336.891992 
L 536.1773 306.48777 
L 536.498583 289.391488 
L 536.583132 288.838688 
L 536.633861 289.172923 
L 536.819867 293.035294 
L 536.972054 298.186545 
L 537.682259 327.037192 
L 538.105 338.401662 
L 538.13882 338.475646 
L 538.172639 338.355898 
L 538.274097 337.459711 
L 538.443194 333.57626 
L 538.679929 329.814398 
L 538.696838 329.909963 
L 538.781387 330.197178 
L 539.018122 334.902642 
L 539.204128 337.090062 
L 539.390134 337.29229 
L 539.626869 339.370698 
L 539.829785 343.244977 
L 540.235617 351.493058 
L 540.269436 351.384817 
L 540.337075 351.155958 
L 540.489262 349.588825 
L 540.810545 341.254069 
L 541.250196 322.002726 
L 541.757486 299.146168 
L 541.943492 297.297419 
L 541.994221 297.174838 
L 542.011131 297.352389 
L 542.197137 300.935435 
L 542.467691 316.625289 
L 543.076439 354.525339 
L 543.330084 359.35269 
L 543.397722 359.568173 
L 543.431542 359.425051 
L 543.51609 358.722191 
L 543.651367 355.597988 
L 543.837373 348.872791 
L 544.02338 333.661312 
L 544.226295 293.005383 
L 544.47994 187.542103 
L 544.716675 116.524861 
L 544.733585 117.158108 
L 544.818133 133.906311 
L 545.545248 340.738629 
L 545.781984 347.698793 
L 545.96799 349.446628 
L 545.984899 349.32032 
L 546.221635 345.311016 
L 546.593647 327.068604 
L 547.016388 297.99418 
L 547.303853 284.086085 
L 547.40531 283.50041 
L 547.43913 283.636359 
L 547.709684 288.640181 
L 548.825721 334.506236 
L 548.927179 335.036336 
L 548.944089 334.868833 
L 549.163915 332.311096 
L 549.40065 329.617054 
L 549.451379 329.256278 
L 549.519017 329.579595 
L 549.535927 329.540936 
L 549.552837 329.682301 
L 550.161584 336.671194 
L 550.87179 346.413254 
L 551.091615 348.582914 
L 551.209983 349.193555 
L 551.243802 348.938837 
L 551.429808 345.604284 
L 551.869459 330.059623 
L 552.748761 296.873766 
L 552.79949 296.571582 
L 552.83331 296.807355 
L 552.985496 300.335691 
L 553.171503 311.540339 
L 553.881708 355.61324 
L 554.202992 359.67872 
L 554.28754 358.896179 
L 554.608823 349.567353 
L 554.828649 331.069268 
L 555.031565 287.157997 
L 555.302119 169.160406 
L 555.505035 115.362618 
L 555.521945 116.287431 
L 555.623403 139.789362 
L 556.24906 336.704728 
L 556.485795 348.326588 
L 556.73944 351.835796 
L 556.756349 351.93626 
L 556.807078 351.763148 
L 556.874717 350.866935 
L 557.145272 342.718164 
L 557.449645 323.500848 
L 558.126031 282.893837 
L 558.17676 282.765906 
L 558.227489 282.934024 
L 558.464225 288.922812 
L 558.870056 310.120874 
L 559.512623 338.284346 
L 559.715539 341.572857 
L 559.732449 341.565124 
L 559.867726 340.323849 
L 560.15519 334.864149 
L 560.544112 328.92592 
L 560.747028 331.110122 
L 561.863065 351.098809 
L 562.082891 353.724675 
L 562.201258 354.144652 
L 562.251987 354.029558 
L 562.370355 353.332579 
L 562.60709 348.102151 
L 562.928373 334.420176 
L 563.672398 301.216171 
L 563.858404 299.471795 
L 563.942953 300.608671 
L 564.179688 308.295141 
L 564.467152 328.884924 
L 564.906803 354.119191 
L 565.194267 361.321436 
L 565.228086 361.402862 
L 565.244996 361.443287 
L 565.261906 361.336421 
L 565.346454 360.182154 
L 565.735376 348.543065 
L 565.921382 333.116176 
L 566.124298 291.840865 
L 566.394853 176.258971 
L 566.597768 114.840913 
L 566.631588 115.715411 
L 566.716136 134.054506 
L 567.409432 339.744836 
L 567.646167 348.59937 
L 567.781444 350.037424 
L 567.832173 349.809448 
L 567.98436 348.270775 
L 568.153457 344.0851 
L 568.373282 333.914618 
L 569.303313 278.556484 
L 569.354042 278.62489 
L 569.4555 279.108695 
L 569.607687 282.313035 
L 569.776783 290.531965 
L 570.554628 334.09078 
L 570.791363 338.990407 
L 570.875911 339.189856 
L 570.892821 339.138533 
L 571.197194 335.117569 
L 571.484659 330.149756 
L 571.518478 330.038819 
L 571.721394 328.652031 
L 571.738303 328.663614 
L 571.805942 328.558176 
L 571.839761 328.663742 
L 571.9074 329.583472 
L 572.279412 337.282066 
L 572.313232 337.169922 
L 572.330141 337.208961 
L 572.363961 337.074343 
L 572.38087 337.013587 
L 572.431599 337.200497 
L 572.752883 342.603655 
L 573.209443 352.901247 
L 573.310901 352.607096 
L 573.632185 348.317245 
L 574.156384 332.883245 
L 575.001867 298.653965 
L 575.018776 298.635945 
L 575.204783 301.210653 
L 575.356969 308.634235 
L 576.084085 354.070296 
L 576.388458 359.178076 
L 576.405368 359.170293 
L 576.456097 358.9805 
L 576.591374 356.577173 
L 576.980296 340.711587 
L 577.149393 318.685577 
L 577.386128 248.614084 
L 577.75814 114.633791 
L 577.79196 117.092104 
L 577.910327 152.590674 
L 578.383798 319.998848 
L 578.654352 341.863437 
L 578.941816 347.732846 
L 578.975636 347.988878 
L 579.026365 347.575069 
L 579.178551 345.900804 
L 579.398377 339.272696 
L 579.652022 322.285752 
L 580.362227 276.215078 
L 580.463685 275.928313 
L 580.480595 276.12913 
L 580.768059 281.552404 
L 581.241529 307.918837 
L 581.934825 338.579978 
L 581.951735 338.662705 
L 582.002464 338.430967 
L 582.17156 335.89732 
L 582.391386 332.974542 
L 582.797217 330.2071 
L 582.847946 330.499739 
L 583.219959 338.856356 
L 583.372146 338.750776 
L 583.507423 339.144786 
L 583.6427 341.019743 
L 584.031622 349.0408 
L 584.319086 354.828674 
L 584.352906 354.768351 
L 584.403635 354.843417 
L 584.572731 353.849167 
L 584.741828 350.840466 
L 585.13075 334.611797 
L 585.705678 307.929877 
L 586.010052 300.298302 
L 586.179148 301.217211 
L 586.331335 306.60161 
L 586.804806 341.919946 
L 587.176818 360.735973 
L 587.379734 362.401124 
L 587.481192 362.062419 
L 587.650288 359.448166 
L 587.920843 350.623321 
L 588.089939 336.773166 
L 588.275946 300.932319 
L 588.512681 206.467499 
L 588.800145 106.256532 
L 588.850874 112.364985 
L 589.003061 173.325811 
L 589.375073 316.322598 
L 589.662537 347.834946 
L 589.848543 351.830835 
L 590.01764 352.663229 
L 590.102188 352.424887 
L 590.423472 343.290707 
L 590.947671 310.258214 
L 591.48878 280.539769 
L 591.50569 280.623823 
L 591.674786 284.161084 
L 591.877702 292.912524 
L 592.824643 339.122017 
L 592.926101 340.226737 
L 592.993739 340.092092 
L 593.179745 336.887315 
L 593.416481 333.630996 
L 593.517938 333.459576 
L 593.551758 333.609766 
L 593.670125 334.721693 
L 593.839222 338.734113 
L 594.042138 342.061387 
L 594.075957 341.978769 
L 594.211234 341.716792 
L 594.228144 341.696239 
L 594.245054 341.796406 
L 594.363421 342.475651 
L 594.667795 346.689158 
L 595.242723 354.212866 
L 595.344181 353.056225 
L 595.479458 349.681908 
L 595.88529 332.679334 
L 596.781502 291.491545 
L 596.798411 291.535385 
L 596.899869 292.477559 
L 597.018237 296.182749 
L 597.322611 318.076152 
L 597.914449 358.827236 
L 598.151184 363.568786 
L 598.235732 364.091988 
L 598.286461 363.945965 
L 598.3541 363.593911 
L 598.573925 359.048186 
L 598.793751 347.264496 
L 598.945938 326.505894 
L 599.131944 269.209157 
L 599.554685 66.96 
L 599.639233 79.690066 
L 599.842149 186.026572 
L 600.180342 321.759867 
L 600.433987 351.040401 
L 600.653813 356.242495 
L 600.873638 358.553518 
L 600.907458 358.36904 
L 601.042735 354.931549 
L 601.465476 331.18157 
L 602.158772 283.529295 
L 602.192591 283.116711 
L 602.26023 283.490537 
L 602.446236 287.762353 
L 602.716791 302.018326 
L 603.308628 335.739698 
L 603.629912 345.822905 
L 603.73137 346.406089 
L 603.765189 346.171122 
L 603.866647 344.507015 
L 604.137202 337.270978 
L 604.458485 331.38515 
L 604.543033 330.765268 
L 604.593762 330.155315 
L 604.644491 330.549655 
L 604.745949 332.16629 
L 605.20251 340.789851 
L 605.642161 348.139874 
L 606.098721 358.082159 
L 606.217089 358.689821 
L 606.233999 358.539347 
L 606.369276 356.205834 
L 606.67365 345.510379 
L 607.214759 319.572245 
L 607.823506 288.993604 
L 607.874235 288.826394 
L 607.891145 288.747705 
L 607.924964 288.960806 
L 608.043332 290.86853 
L 608.246248 299.477841 
L 608.60135 329.03813 
L 608.956453 353.613891 
L 609.328465 361.868669 
L 609.362285 361.940118 
L 609.413014 362.168144 
L 609.446833 361.882388 
L 609.61593 359.203245 
L 609.801936 353.798882 
L 609.987942 338.110295 
L 610.190858 290.114583 
L 610.444503 155.771018 
L 610.681238 68.35947 
L 610.748876 79.813669 
L 610.934883 174.097086 
L 611.273076 314.98225 
L 611.54363 348.242227 
L 611.780365 355.521988 
L 611.915643 357.403052 
L 612.000191 357.297092 
L 612.101649 356.382466 
L 612.253836 352.502079 
L 612.422932 343.730853 
L 612.997861 297.539838 
L 613.268415 283.469702 
L 613.352963 282.783279 
L 613.386783 283.001019 
L 613.420602 283.027762 
L 613.488241 284.139406 
L 613.724976 292.427491 
L 614.688826 341.107544 
L 614.857923 343.604572 
L 614.925561 343.235545 
L 615.297574 337.589135 
L 616.007779 324.146897 
L 616.075418 323.629215 
L 616.143056 323.884939 
L 616.261424 324.833689 
L 616.44743 330.707675 
L 616.836352 341.559291 
L 617.715654 354.20792 
L 617.766383 354.142303 
L 617.93548 352.308774 
L 618.307492 341.863516 
L 618.628776 326.591542 
L 619.338981 294.764599 
L 619.491168 293.504602 
L 619.592626 294.635865 
L 619.744813 299.959922 
L 620.015367 318.404747 
L 620.522657 350.367427 
L 620.86085 360.711313 
L 621.046856 358.638408 
L 621.435778 345.3124 
L 621.604875 325.611931 
L 621.807791 271.442477 
L 622.230532 98.8517 
L 622.31508 111.280606 
L 622.517996 205.692187 
L 622.636364 261.022774 
L 622.636364 261.022774 
" clip-path="url(#pbb6385e219)" style="fill: none; stroke: #1f77b4; stroke-width: 1.5; stroke-linecap: square"/>
   </g>
   <g id="patch_3">
    <path d="M 90 384.48 
L 90 51.84 
" style="fill: none; stroke: #000000; stroke-width: 0.8; stroke-linejoin: miter; stroke-linecap: square"/>
   </g>
   <g id="patch_4">
    <path d="M 648 384.48 
L 648 51.84 
" style="fill: none; stroke: #000000; stroke-width: 0.8; stroke-linejoin: miter; stroke-linecap: square"/>
   </g>
   <g id="patch_5">
    <path d="M 90 384.48 
L 648 384.48 
" style="fill: none; stroke: #000000; stroke-width: 0.8; stroke-linejoin: miter; stroke-linecap: square"/>
   </g>
   <g id="patch_6">
    <path d="M 90 51.84 
L 648 51.84 
" style="fill: none; stroke: #000000; stroke-width: 0.8; stroke-linejoin: miter; stroke-linecap: square"/>
   </g>
   <g id="text_18">
    <!-- ECG Data Sample Detected Peeks after Applying Matched Filter -->
    <g transform="translate(178.31625 45.84) scale(0.12 -0.12)">
     <defs>
      <path id="DejaVuSans-45" d="M 628 4666 
L 3578 4666 
L 3578 4134 
L 1259 4134 
L 1259 2753 
L 3481 2753 
L 3481 2222 
L 1259 2222 
L 1259 531 
L 3634 531 
L 3634 0 
L 628 0 
L 628 4666 
z
" transform="scale(0.015625)"/>
      <path id="DejaVuSans-43" d="M 4122 4306 
L 4122 3641 
Q 3803 3938 3442 4084 
Q 3081 4231 2675 4231 
Q 1875 4231 1450 3742 
Q 1025 3253 1025 2328 
Q 1025 1406 1450 917 
Q 1875 428 2675 428 
Q 3081 428 3442 575 
Q 3803 722 4122 1019 
L 4122 359 
Q 3791 134 3420 21 
Q 3050 -91 2638 -91 
Q 1578 -91 968 557 
Q 359 1206 359 2328 
Q 359 3453 968 4101 
Q 1578 4750 2638 4750 
Q 3056 4750 3426 4639 
Q 3797 4528 4122 4306 
z
" transform="scale(0.015625)"/>
      <path id="DejaVuSans-47" d="M 3809 666 
L 3809 1919 
L 2778 1919 
L 2778 2438 
L 4434 2438 
L 4434 434 
Q 4069 175 3628 42 
Q 3188 -91 2688 -91 
Q 1594 -91 976 548 
Q 359 1188 359 2328 
Q 359 3472 976 4111 
Q 1594 4750 2688 4750 
Q 3144 4750 3555 4637 
Q 3966 4525 4313 4306 
L 4313 3634 
Q 3963 3931 3569 4081 
Q 3175 4231 2741 4231 
Q 1884 4231 1454 3753 
Q 1025 3275 1025 2328 
Q 1025 1384 1454 906 
Q 1884 428 2741 428 
Q 3075 428 3337 486 
Q 3600 544 3809 666 
z
" transform="scale(0.015625)"/>
      <path id="DejaVuSans-44" d="M 1259 4147 
L 1259 519 
L 2022 519 
Q 2988 519 3436 956 
Q 3884 1394 3884 2338 
Q 3884 3275 3436 3711 
Q 2988 4147 2022 4147 
L 1259 4147 
z
M 628 4666 
L 1925 4666 
Q 3281 4666 3915 4102 
Q 4550 3538 4550 2338 
Q 4550 1131 3912 565 
Q 3275 0 1925 0 
L 628 0 
L 628 4666 
z
" transform="scale(0.015625)"/>
      <path id="DejaVuSans-61" d="M 2194 1759 
Q 1497 1759 1228 1600 
Q 959 1441 959 1056 
Q 959 750 1161 570 
Q 1363 391 1709 391 
Q 2188 391 2477 730 
Q 2766 1069 2766 1631 
L 2766 1759 
L 2194 1759 
z
M 3341 1997 
L 3341 0 
L 2766 0 
L 2766 531 
Q 2569 213 2275 61 
Q 1981 -91 1556 -91 
Q 1019 -91 701 211 
Q 384 513 384 1019 
Q 384 1609 779 1909 
Q 1175 2209 1959 2209 
L 2766 2209 
L 2766 2266 
Q 2766 2663 2505 2880 
Q 2244 3097 1772 3097 
Q 1472 3097 1187 3025 
Q 903 2953 641 2809 
L 641 3341 
Q 956 3463 1253 3523 
Q 1550 3584 1831 3584 
Q 2591 3584 2966 3190 
Q 3341 2797 3341 1997 
z
" transform="scale(0.015625)"/>
      <path id="DejaVuSans-53" d="M 3425 4513 
L 3425 3897 
Q 3066 4069 2747 4153 
Q 2428 4238 2131 4238 
Q 1616 4238 1336 4038 
Q 1056 3838 1056 3469 
Q 1056 3159 1242 3001 
Q 1428 2844 1947 2747 
L 2328 2669 
Q 3034 2534 3370 2195 
Q 3706 1856 3706 1288 
Q 3706 609 3251 259 
Q 2797 -91 1919 -91 
Q 1588 -91 1214 -16 
Q 841 59 441 206 
L 441 856 
Q 825 641 1194 531 
Q 1563 422 1919 422 
Q 2459 422 2753 634 
Q 3047 847 3047 1241 
Q 3047 1584 2836 1778 
Q 2625 1972 2144 2069 
L 1759 2144 
Q 1053 2284 737 2584 
Q 422 2884 422 3419 
Q 422 4038 858 4394 
Q 1294 4750 2059 4750 
Q 2388 4750 2728 4690 
Q 3069 4631 3425 4513 
z
" transform="scale(0.015625)"/>
      <path id="DejaVuSans-63" d="M 3122 3366 
L 3122 2828 
Q 2878 2963 2633 3030 
Q 2388 3097 2138 3097 
Q 1578 3097 1268 2742 
Q 959 2388 959 1747 
Q 959 1106 1268 751 
Q 1578 397 2138 397 
Q 2388 397 2633 464 
Q 2878 531 3122 666 
L 3122 134 
Q 2881 22 2623 -34 
Q 2366 -91 2075 -91 
Q 1284 -91 818 406 
Q 353 903 353 1747 
Q 353 2603 823 3093 
Q 1294 3584 2113 3584 
Q 2378 3584 2631 3529 
Q 2884 3475 3122 3366 
z
" transform="scale(0.015625)"/>
      <path id="DejaVuSans-50" d="M 1259 4147 
L 1259 2394 
L 2053 2394 
Q 2494 2394 2734 2622 
Q 2975 2850 2975 3272 
Q 2975 3691 2734 3919 
Q 2494 4147 2053 4147 
L 1259 4147 
z
M 628 4666 
L 2053 4666 
Q 2838 4666 3239 4311 
Q 3641 3956 3641 3272 
Q 3641 2581 3239 2228 
Q 2838 1875 2053 1875 
L 1259 1875 
L 1259 0 
L 628 0 
L 628 4666 
z
" transform="scale(0.015625)"/>
      <path id="DejaVuSans-6b" d="M 581 4863 
L 1159 4863 
L 1159 1991 
L 2875 3500 
L 3609 3500 
L 1753 1863 
L 3688 0 
L 2938 0 
L 1159 1709 
L 1159 0 
L 581 0 
L 581 4863 
z
" transform="scale(0.015625)"/>
      <path id="DejaVuSans-66" d="M 2375 4863 
L 2375 4384 
L 1825 4384 
Q 1516 4384 1395 4259 
Q 1275 4134 1275 3809 
L 1275 3500 
L 2222 3500 
L 2222 3053 
L 1275 3053 
L 1275 0 
L 697 0 
L 697 3053 
L 147 3053 
L 147 3500 
L 697 3500 
L 697 3744 
Q 697 4328 969 4595 
Q 1241 4863 1831 4863 
L 2375 4863 
z
" transform="scale(0.015625)"/>
      <path id="DejaVuSans-72" d="M 2631 2963 
Q 2534 3019 2420 3045 
Q 2306 3072 2169 3072 
Q 1681 3072 1420 2755 
Q 1159 2438 1159 1844 
L 1159 0 
L 581 0 
L 581 3500 
L 1159 3500 
L 1159 2956 
Q 1341 3275 1631 3429 
Q 1922 3584 2338 3584 
Q 2397 3584 2469 3576 
Q 2541 3569 2628 3553 
L 2631 2963 
z
" transform="scale(0.015625)"/>
      <path id="DejaVuSans-79" d="M 2059 -325 
Q 1816 -950 1584 -1140 
Q 1353 -1331 966 -1331 
L 506 -1331 
L 506 -850 
L 844 -850 
Q 1081 -850 1212 -737 
Q 1344 -625 1503 -206 
L 1606 56 
L 191 3500 
L 800 3500 
L 1894 763 
L 2988 3500 
L 3597 3500 
L 2059 -325 
z
" transform="scale(0.015625)"/>
      <path id="DejaVuSans-6e" d="M 3513 2113 
L 3513 0 
L 2938 0 
L 2938 2094 
Q 2938 2591 2744 2837 
Q 2550 3084 2163 3084 
Q 1697 3084 1428 2787 
Q 1159 2491 1159 1978 
L 1159 0 
L 581 0 
L 581 3500 
L 1159 3500 
L 1159 2956 
Q 1366 3272 1645 3428 
Q 1925 3584 2291 3584 
Q 2894 3584 3203 3211 
Q 3513 2838 3513 2113 
z
" transform="scale(0.015625)"/>
      <path id="DejaVuSans-67" d="M 2906 1791 
Q 2906 2416 2648 2759 
Q 2391 3103 1925 3103 
Q 1463 3103 1205 2759 
Q 947 2416 947 1791 
Q 947 1169 1205 825 
Q 1463 481 1925 481 
Q 2391 481 2648 825 
Q 2906 1169 2906 1791 
z
M 3481 434 
Q 3481 -459 3084 -895 
Q 2688 -1331 1869 -1331 
Q 1566 -1331 1297 -1286 
Q 1028 -1241 775 -1147 
L 775 -588 
Q 1028 -725 1275 -790 
Q 1522 -856 1778 -856 
Q 2344 -856 2625 -561 
Q 2906 -266 2906 331 
L 2906 616 
Q 2728 306 2450 153 
Q 2172 0 1784 0 
Q 1141 0 747 490 
Q 353 981 353 1791 
Q 353 2603 747 3093 
Q 1141 3584 1784 3584 
Q 2172 3584 2450 3431 
Q 2728 3278 2906 2969 
L 2906 3500 
L 3481 3500 
L 3481 434 
z
" transform="scale(0.015625)"/>
      <path id="DejaVuSans-4d" d="M 628 4666 
L 1569 4666 
L 2759 1491 
L 3956 4666 
L 4897 4666 
L 4897 0 
L 4281 0 
L 4281 4097 
L 3078 897 
L 2444 897 
L 1241 4097 
L 1241 0 
L 628 0 
L 628 4666 
z
" transform="scale(0.015625)"/>
      <path id="DejaVuSans-68" d="M 3513 2113 
L 3513 0 
L 2938 0 
L 2938 2094 
Q 2938 2591 2744 2837 
Q 2550 3084 2163 3084 
Q 1697 3084 1428 2787 
Q 1159 2491 1159 1978 
L 1159 0 
L 581 0 
L 581 4863 
L 1159 4863 
L 1159 2956 
Q 1366 3272 1645 3428 
Q 1925 3584 2291 3584 
Q 2894 3584 3203 3211 
Q 3513 2838 3513 2113 
z
" transform="scale(0.015625)"/>
      <path id="DejaVuSans-46" d="M 628 4666 
L 3309 4666 
L 3309 4134 
L 1259 4134 
L 1259 2759 
L 3109 2759 
L 3109 2228 
L 1259 2228 
L 1259 0 
L 628 0 
L 628 4666 
z
" transform="scale(0.015625)"/>
     </defs>
     <use xlink:href="#DejaVuSans-45"/>
     <use xlink:href="#DejaVuSans-43" x="63.183594"/>
     <use xlink:href="#DejaVuSans-47" x="133.007812"/>
     <use xlink:href="#DejaVuSans-20" x="210.498047"/>
     <use xlink:href="#DejaVuSans-44" x="242.285156"/>
     <use xlink:href="#DejaVuSans-61" x="319.287109"/>
     <use xlink:href="#DejaVuSans-74" x="380.566406"/>
     <use xlink:href="#DejaVuSans-61" x="419.775391"/>
     <use xlink:href="#DejaVuSans-20" x="481.054688"/>
     <use xlink:href="#DejaVuSans-53" x="512.841797"/>
     <use xlink:href="#DejaVuSans-61" x="576.318359"/>
     <use xlink:href="#DejaVuSans-6d" x="637.597656"/>
     <use xlink:href="#DejaVuSans-70" x="735.009766"/>
     <use xlink:href="#DejaVuSans-6c" x="798.486328"/>
     <use xlink:href="#DejaVuSans-65" x="826.269531"/>
     <use xlink:href="#DejaVuSans-20" x="887.792969"/>
     <use xlink:href="#DejaVuSans-44" x="919.580078"/>
     <use xlink:href="#DejaVuSans-65" x="996.582031"/>
     <use xlink:href="#DejaVuSans-74" x="1058.105469"/>
     <use xlink:href="#DejaVuSans-65" x="1097.314453"/>
     <use xlink:href="#DejaVuSans-63" x="1158.837891"/>
     <use xlink:href="#DejaVuSans-74" x="1213.818359"/>
     <use xlink:href="#DejaVuSans-65" x="1253.027344"/>
     <use xlink:href="#DejaVuSans-64" x="1314.550781"/>
     <use xlink:href="#DejaVuSans-20" x="1378.027344"/>
     <use xlink:href="#DejaVuSans-50" x="1409.814453"/>
     <use xlink:href="#DejaVuSans-65" x="1466.492188"/>
     <use xlink:href="#DejaVuSans-65" x="1528.015625"/>
     <use xlink:href="#DejaVuSans-6b" x="1589.539062"/>
     <use xlink:href="#DejaVuSans-73" x="1647.449219"/>
     <use xlink:href="#DejaVuSans-20" x="1699.548828"/>
     <use xlink:href="#DejaVuSans-61" x="1731.335938"/>
     <use xlink:href="#DejaVuSans-66" x="1792.615234"/>
     <use xlink:href="#DejaVuSans-74" x="1826.070312"/>
     <use xlink:href="#DejaVuSans-65" x="1865.279297"/>
     <use xlink:href="#DejaVuSans-72" x="1926.802734"/>
     <use xlink:href="#DejaVuSans-20" x="1967.916016"/>
     <use xlink:href="#DejaVuSans-41" x="1999.703125"/>
     <use xlink:href="#DejaVuSans-70" x="2068.111328"/>
     <use xlink:href="#DejaVuSans-70" x="2131.587891"/>
     <use xlink:href="#DejaVuSans-6c" x="2195.064453"/>
     <use xlink:href="#DejaVuSans-79" x="2222.847656"/>
     <use xlink:href="#DejaVuSans-69" x="2282.027344"/>
     <use xlink:href="#DejaVuSans-6e" x="2309.810547"/>
     <use xlink:href="#DejaVuSans-67" x="2373.189453"/>
     <use xlink:href="#DejaVuSans-20" x="2436.666016"/>
     <use xlink:href="#DejaVuSans-4d" x="2468.453125"/>
     <use xlink:href="#DejaVuSans-61" x="2554.732422"/>
     <use xlink:href="#DejaVuSans-74" x="2616.011719"/>
     <use xlink:href="#DejaVuSans-63" x="2655.220703"/>
     <use xlink:href="#DejaVuSans-68" x="2710.201172"/>
     <use xlink:href="#DejaVuSans-65" x="2773.580078"/>
     <use xlink:href="#DejaVuSans-64" x="2835.103516"/>
     <use xlink:href="#DejaVuSans-20" x="2898.580078"/>
     <use xlink:href="#DejaVuSans-46" x="2930.367188"/>
     <use xlink:href="#DejaVuSans-69" x="2980.636719"/>
     <use xlink:href="#DejaVuSans-6c" x="3008.419922"/>
     <use xlink:href="#DejaVuSans-74" x="3036.203125"/>
     <use xlink:href="#DejaVuSans-65" x="3075.412109"/>
     <use xlink:href="#DejaVuSans-72" x="3136.935547"/>
    </g>
   </g>
  </g>
 </g>
 <defs>
  <clipPath id="pbb6385e219">
   <rect x="90" y="51.84" width="558" height="332.64"/>
  </clipPath>
 </defs>
</svg>
