<?xml version="1.0" encoding="utf-8" standalone="no"?>
<!DOCTYPE svg PUBLIC "-//W3C//DTD SVG 1.1//EN"
  "http://www.w3.org/Graphics/SVG/1.1/DTD/svg11.dtd">
<svg xmlns:xlink="http://www.w3.org/1999/xlink" width="720pt" height="432pt" viewBox="0 0 720 432" xmlns="http://www.w3.org/2000/svg" version="1.1">
 <metadata>
  <rdf:RDF xmlns:dc="http://purl.org/dc/elements/1.1/" xmlns:cc="http://creativecommons.org/ns#" xmlns:rdf="http://www.w3.org/1999/02/22-rdf-syntax-ns#">
   <cc:Work>
    <dc:type rdf:resource="http://purl.org/dc/dcmitype/StillImage"/>
    <dc:date>2023-11-12T19:00:39.884285</dc:date>
    <dc:format>image/svg+xml</dc:format>
    <dc:creator>
     <cc:Agent>
      <dc:title>Matplotlib v3.8.0, https://matplotlib.org/</dc:title>
     </cc:Agent>
    </dc:creator>
   </cc:Work>
  </rdf:RDF>
 </metadata>
 <defs>
  <style type="text/css">*{stroke-linejoin: round; stroke-linecap: butt}</style>
 </defs>
 <g id="figure_1">
  <g id="patch_1">
   <path d="M 0 432 
L 720 432 
L 720 0 
L 0 0 
z
" style="fill: #ffffff"/>
  </g>
  <g id="axes_1">
   <g id="patch_2">
    <path d="M 90 384.48 
L 648 384.48 
L 648 51.84 
L 90 51.84 
z
" style="fill: #ffffff"/>
   </g>
   <g id="matplotlib.axis_1">
    <g id="xtick_1">
     <g id="line2d_1">
      <defs>
       <path id="m53754b6c1c" d="M 0 0 
L 0 3.5 
" style="stroke: #000000; stroke-width: 0.8"/>
      </defs>
      <g>
       <use xlink:href="#m53754b6c1c" x="115.363636" y="384.48" style="stroke: #000000; stroke-width: 0.8"/>
      </g>
     </g>
     <g id="text_1">
      <!-- 0.0 -->
      <g transform="translate(107.412074 399.078438) scale(0.1 -0.1)">
       <defs>
        <path id="DejaVuSans-30" d="M 2034 4250 
Q 1547 4250 1301 3770 
Q 1056 3291 1056 2328 
Q 1056 1369 1301 889 
Q 1547 409 2034 409 
Q 2525 409 2770 889 
Q 3016 1369 3016 2328 
Q 3016 3291 2770 3770 
Q 2525 4250 2034 4250 
z
M 2034 4750 
Q 2819 4750 3233 4129 
Q 3647 3509 3647 2328 
Q 3647 1150 3233 529 
Q 2819 -91 2034 -91 
Q 1250 -91 836 529 
Q 422 1150 422 2328 
Q 422 3509 836 4129 
Q 1250 4750 2034 4750 
z
" transform="scale(0.015625)"/>
        <path id="DejaVuSans-2e" d="M 684 794 
L 1344 794 
L 1344 0 
L 684 0 
L 684 794 
z
" transform="scale(0.015625)"/>
       </defs>
       <use xlink:href="#DejaVuSans-30"/>
       <use xlink:href="#DejaVuSans-2e" x="63.623047"/>
       <use xlink:href="#DejaVuSans-30" x="95.410156"/>
      </g>
     </g>
    </g>
    <g id="xtick_2">
     <g id="line2d_2">
      <g>
       <use xlink:href="#m53754b6c1c" x="199.909091" y="384.48" style="stroke: #000000; stroke-width: 0.8"/>
      </g>
     </g>
     <g id="text_2">
      <!-- 0.1 -->
      <g transform="translate(191.957528 399.078438) scale(0.1 -0.1)">
       <defs>
        <path id="DejaVuSans-31" d="M 794 531 
L 1825 531 
L 1825 4091 
L 703 3866 
L 703 4441 
L 1819 4666 
L 2450 4666 
L 2450 531 
L 3481 531 
L 3481 0 
L 794 0 
L 794 531 
z
" transform="scale(0.015625)"/>
       </defs>
       <use xlink:href="#DejaVuSans-30"/>
       <use xlink:href="#DejaVuSans-2e" x="63.623047"/>
       <use xlink:href="#DejaVuSans-31" x="95.410156"/>
      </g>
     </g>
    </g>
    <g id="xtick_3">
     <g id="line2d_3">
      <g>
       <use xlink:href="#m53754b6c1c" x="284.454545" y="384.48" style="stroke: #000000; stroke-width: 0.8"/>
      </g>
     </g>
     <g id="text_3">
      <!-- 0.2 -->
      <g transform="translate(276.502983 399.078438) scale(0.1 -0.1)">
       <defs>
        <path id="DejaVuSans-32" d="M 1228 531 
L 3431 531 
L 3431 0 
L 469 0 
L 469 531 
Q 828 903 1448 1529 
Q 2069 2156 2228 2338 
Q 2531 2678 2651 2914 
Q 2772 3150 2772 3378 
Q 2772 3750 2511 3984 
Q 2250 4219 1831 4219 
Q 1534 4219 1204 4116 
Q 875 4013 500 3803 
L 500 4441 
Q 881 4594 1212 4672 
Q 1544 4750 1819 4750 
Q 2544 4750 2975 4387 
Q 3406 4025 3406 3419 
Q 3406 3131 3298 2873 
Q 3191 2616 2906 2266 
Q 2828 2175 2409 1742 
Q 1991 1309 1228 531 
z
" transform="scale(0.015625)"/>
       </defs>
       <use xlink:href="#DejaVuSans-30"/>
       <use xlink:href="#DejaVuSans-2e" x="63.623047"/>
       <use xlink:href="#DejaVuSans-32" x="95.410156"/>
      </g>
     </g>
    </g>
    <g id="xtick_4">
     <g id="line2d_4">
      <g>
       <use xlink:href="#m53754b6c1c" x="369" y="384.48" style="stroke: #000000; stroke-width: 0.8"/>
      </g>
     </g>
     <g id="text_4">
      <!-- 0.3 -->
      <g transform="translate(361.048438 399.078438) scale(0.1 -0.1)">
       <defs>
        <path id="DejaVuSans-33" d="M 2597 2516 
Q 3050 2419 3304 2112 
Q 3559 1806 3559 1356 
Q 3559 666 3084 287 
Q 2609 -91 1734 -91 
Q 1441 -91 1130 -33 
Q 819 25 488 141 
L 488 750 
Q 750 597 1062 519 
Q 1375 441 1716 441 
Q 2309 441 2620 675 
Q 2931 909 2931 1356 
Q 2931 1769 2642 2001 
Q 2353 2234 1838 2234 
L 1294 2234 
L 1294 2753 
L 1863 2753 
Q 2328 2753 2575 2939 
Q 2822 3125 2822 3475 
Q 2822 3834 2567 4026 
Q 2313 4219 1838 4219 
Q 1578 4219 1281 4162 
Q 984 4106 628 3988 
L 628 4550 
Q 988 4650 1302 4700 
Q 1616 4750 1894 4750 
Q 2613 4750 3031 4423 
Q 3450 4097 3450 3541 
Q 3450 3153 3228 2886 
Q 3006 2619 2597 2516 
z
" transform="scale(0.015625)"/>
       </defs>
       <use xlink:href="#DejaVuSans-30"/>
       <use xlink:href="#DejaVuSans-2e" x="63.623047"/>
       <use xlink:href="#DejaVuSans-33" x="95.410156"/>
      </g>
     </g>
    </g>
    <g id="xtick_5">
     <g id="line2d_5">
      <g>
       <use xlink:href="#m53754b6c1c" x="453.545455" y="384.48" style="stroke: #000000; stroke-width: 0.8"/>
      </g>
     </g>
     <g id="text_5">
      <!-- 0.4 -->
      <g transform="translate(445.593892 399.078438) scale(0.1 -0.1)">
       <defs>
        <path id="DejaVuSans-34" d="M 2419 4116 
L 825 1625 
L 2419 1625 
L 2419 4116 
z
M 2253 4666 
L 3047 4666 
L 3047 1625 
L 3713 1625 
L 3713 1100 
L 3047 1100 
L 3047 0 
L 2419 0 
L 2419 1100 
L 313 1100 
L 313 1709 
L 2253 4666 
z
" transform="scale(0.015625)"/>
       </defs>
       <use xlink:href="#DejaVuSans-30"/>
       <use xlink:href="#DejaVuSans-2e" x="63.623047"/>
       <use xlink:href="#DejaVuSans-34" x="95.410156"/>
      </g>
     </g>
    </g>
    <g id="xtick_6">
     <g id="line2d_6">
      <g>
       <use xlink:href="#m53754b6c1c" x="538.090909" y="384.48" style="stroke: #000000; stroke-width: 0.8"/>
      </g>
     </g>
     <g id="text_6">
      <!-- 0.5 -->
      <g transform="translate(530.139347 399.078438) scale(0.1 -0.1)">
       <defs>
        <path id="DejaVuSans-35" d="M 691 4666 
L 3169 4666 
L 3169 4134 
L 1269 4134 
L 1269 2991 
Q 1406 3038 1543 3061 
Q 1681 3084 1819 3084 
Q 2600 3084 3056 2656 
Q 3513 2228 3513 1497 
Q 3513 744 3044 326 
Q 2575 -91 1722 -91 
Q 1428 -91 1123 -41 
Q 819 9 494 109 
L 494 744 
Q 775 591 1075 516 
Q 1375 441 1709 441 
Q 2250 441 2565 725 
Q 2881 1009 2881 1497 
Q 2881 1984 2565 2268 
Q 2250 2553 1709 2553 
Q 1456 2553 1204 2497 
Q 953 2441 691 2322 
L 691 4666 
z
" transform="scale(0.015625)"/>
       </defs>
       <use xlink:href="#DejaVuSans-30"/>
       <use xlink:href="#DejaVuSans-2e" x="63.623047"/>
       <use xlink:href="#DejaVuSans-35" x="95.410156"/>
      </g>
     </g>
    </g>
    <g id="xtick_7">
     <g id="line2d_7">
      <g>
       <use xlink:href="#m53754b6c1c" x="622.636364" y="384.48" style="stroke: #000000; stroke-width: 0.8"/>
      </g>
     </g>
     <g id="text_7">
      <!-- 0.6 -->
      <g transform="translate(614.684801 399.078438) scale(0.1 -0.1)">
       <defs>
        <path id="DejaVuSans-36" d="M 2113 2584 
Q 1688 2584 1439 2293 
Q 1191 2003 1191 1497 
Q 1191 994 1439 701 
Q 1688 409 2113 409 
Q 2538 409 2786 701 
Q 3034 994 3034 1497 
Q 3034 2003 2786 2293 
Q 2538 2584 2113 2584 
z
M 3366 4563 
L 3366 3988 
Q 3128 4100 2886 4159 
Q 2644 4219 2406 4219 
Q 1781 4219 1451 3797 
Q 1122 3375 1075 2522 
Q 1259 2794 1537 2939 
Q 1816 3084 2150 3084 
Q 2853 3084 3261 2657 
Q 3669 2231 3669 1497 
Q 3669 778 3244 343 
Q 2819 -91 2113 -91 
Q 1303 -91 875 529 
Q 447 1150 447 2328 
Q 447 3434 972 4092 
Q 1497 4750 2381 4750 
Q 2619 4750 2861 4703 
Q 3103 4656 3366 4563 
z
" transform="scale(0.015625)"/>
       </defs>
       <use xlink:href="#DejaVuSans-30"/>
       <use xlink:href="#DejaVuSans-2e" x="63.623047"/>
       <use xlink:href="#DejaVuSans-36" x="95.410156"/>
      </g>
     </g>
    </g>
    <g id="text_8">
     <!-- Time (s) -->
     <g transform="translate(348.671094 412.756563) scale(0.1 -0.1)">
      <defs>
       <path id="DejaVuSans-54" d="M -19 4666 
L 3928 4666 
L 3928 4134 
L 2272 4134 
L 2272 0 
L 1638 0 
L 1638 4134 
L -19 4134 
L -19 4666 
z
" transform="scale(0.015625)"/>
       <path id="DejaVuSans-69" d="M 603 3500 
L 1178 3500 
L 1178 0 
L 603 0 
L 603 3500 
z
M 603 4863 
L 1178 4863 
L 1178 4134 
L 603 4134 
L 603 4863 
z
" transform="scale(0.015625)"/>
       <path id="DejaVuSans-6d" d="M 3328 2828 
Q 3544 3216 3844 3400 
Q 4144 3584 4550 3584 
Q 5097 3584 5394 3201 
Q 5691 2819 5691 2113 
L 5691 0 
L 5113 0 
L 5113 2094 
Q 5113 2597 4934 2840 
Q 4756 3084 4391 3084 
Q 3944 3084 3684 2787 
Q 3425 2491 3425 1978 
L 3425 0 
L 2847 0 
L 2847 2094 
Q 2847 2600 2669 2842 
Q 2491 3084 2119 3084 
Q 1678 3084 1418 2786 
Q 1159 2488 1159 1978 
L 1159 0 
L 581 0 
L 581 3500 
L 1159 3500 
L 1159 2956 
Q 1356 3278 1631 3431 
Q 1906 3584 2284 3584 
Q 2666 3584 2933 3390 
Q 3200 3197 3328 2828 
z
" transform="scale(0.015625)"/>
       <path id="DejaVuSans-65" d="M 3597 1894 
L 3597 1613 
L 953 1613 
Q 991 1019 1311 708 
Q 1631 397 2203 397 
Q 2534 397 2845 478 
Q 3156 559 3463 722 
L 3463 178 
Q 3153 47 2828 -22 
Q 2503 -91 2169 -91 
Q 1331 -91 842 396 
Q 353 884 353 1716 
Q 353 2575 817 3079 
Q 1281 3584 2069 3584 
Q 2775 3584 3186 3129 
Q 3597 2675 3597 1894 
z
M 3022 2063 
Q 3016 2534 2758 2815 
Q 2500 3097 2075 3097 
Q 1594 3097 1305 2825 
Q 1016 2553 972 2059 
L 3022 2063 
z
" transform="scale(0.015625)"/>
       <path id="DejaVuSans-20" transform="scale(0.015625)"/>
       <path id="DejaVuSans-28" d="M 1984 4856 
Q 1566 4138 1362 3434 
Q 1159 2731 1159 2009 
Q 1159 1288 1364 580 
Q 1569 -128 1984 -844 
L 1484 -844 
Q 1016 -109 783 600 
Q 550 1309 550 2009 
Q 550 2706 781 3412 
Q 1013 4119 1484 4856 
L 1984 4856 
z
" transform="scale(0.015625)"/>
       <path id="DejaVuSans-73" d="M 2834 3397 
L 2834 2853 
Q 2591 2978 2328 3040 
Q 2066 3103 1784 3103 
Q 1356 3103 1142 2972 
Q 928 2841 928 2578 
Q 928 2378 1081 2264 
Q 1234 2150 1697 2047 
L 1894 2003 
Q 2506 1872 2764 1633 
Q 3022 1394 3022 966 
Q 3022 478 2636 193 
Q 2250 -91 1575 -91 
Q 1294 -91 989 -36 
Q 684 19 347 128 
L 347 722 
Q 666 556 975 473 
Q 1284 391 1588 391 
Q 1994 391 2212 530 
Q 2431 669 2431 922 
Q 2431 1156 2273 1281 
Q 2116 1406 1581 1522 
L 1381 1569 
Q 847 1681 609 1914 
Q 372 2147 372 2553 
Q 372 3047 722 3315 
Q 1072 3584 1716 3584 
Q 2034 3584 2315 3537 
Q 2597 3491 2834 3397 
z
" transform="scale(0.015625)"/>
       <path id="DejaVuSans-29" d="M 513 4856 
L 1013 4856 
Q 1481 4119 1714 3412 
Q 1947 2706 1947 2009 
Q 1947 1309 1714 600 
Q 1481 -109 1013 -844 
L 513 -844 
Q 928 -128 1133 580 
Q 1338 1288 1338 2009 
Q 1338 2731 1133 3434 
Q 928 4138 513 4856 
z
" transform="scale(0.015625)"/>
      </defs>
      <use xlink:href="#DejaVuSans-54"/>
      <use xlink:href="#DejaVuSans-69" x="57.958984"/>
      <use xlink:href="#DejaVuSans-6d" x="85.742188"/>
      <use xlink:href="#DejaVuSans-65" x="183.154297"/>
      <use xlink:href="#DejaVuSans-20" x="244.677734"/>
      <use xlink:href="#DejaVuSans-28" x="276.464844"/>
      <use xlink:href="#DejaVuSans-73" x="315.478516"/>
      <use xlink:href="#DejaVuSans-29" x="367.578125"/>
     </g>
    </g>
   </g>
   <g id="matplotlib.axis_2">
    <g id="ytick_1">
     <g id="line2d_8">
      <defs>
       <path id="mb5baab1fbd" d="M 0 0 
L -3.5 0 
" style="stroke: #000000; stroke-width: 0.8"/>
      </defs>
      <g>
       <use xlink:href="#mb5baab1fbd" x="90" y="363.996626" style="stroke: #000000; stroke-width: 0.8"/>
      </g>
     </g>
     <g id="text_9">
      <!-- −0.2 -->
      <g transform="translate(58.717187 367.795845) scale(0.1 -0.1)">
       <defs>
        <path id="DejaVuSans-2212" d="M 678 2272 
L 4684 2272 
L 4684 1741 
L 678 1741 
L 678 2272 
z
" transform="scale(0.015625)"/>
       </defs>
       <use xlink:href="#DejaVuSans-2212"/>
       <use xlink:href="#DejaVuSans-30" x="83.789062"/>
       <use xlink:href="#DejaVuSans-2e" x="147.412109"/>
       <use xlink:href="#DejaVuSans-32" x="179.199219"/>
      </g>
     </g>
    </g>
    <g id="ytick_2">
     <g id="line2d_9">
      <g>
       <use xlink:href="#mb5baab1fbd" x="90" y="300.408101" style="stroke: #000000; stroke-width: 0.8"/>
      </g>
     </g>
     <g id="text_10">
      <!-- 0.0 -->
      <g transform="translate(67.096875 304.20732) scale(0.1 -0.1)">
       <use xlink:href="#DejaVuSans-30"/>
       <use xlink:href="#DejaVuSans-2e" x="63.623047"/>
       <use xlink:href="#DejaVuSans-30" x="95.410156"/>
      </g>
     </g>
    </g>
    <g id="ytick_3">
     <g id="line2d_10">
      <g>
       <use xlink:href="#mb5baab1fbd" x="90" y="236.819576" style="stroke: #000000; stroke-width: 0.8"/>
      </g>
     </g>
     <g id="text_11">
      <!-- 0.2 -->
      <g transform="translate(67.096875 240.618795) scale(0.1 -0.1)">
       <use xlink:href="#DejaVuSans-30"/>
       <use xlink:href="#DejaVuSans-2e" x="63.623047"/>
       <use xlink:href="#DejaVuSans-32" x="95.410156"/>
      </g>
     </g>
    </g>
    <g id="ytick_4">
     <g id="line2d_11">
      <g>
       <use xlink:href="#mb5baab1fbd" x="90" y="173.231051" style="stroke: #000000; stroke-width: 0.8"/>
      </g>
     </g>
     <g id="text_12">
      <!-- 0.4 -->
      <g transform="translate(67.096875 177.030269) scale(0.1 -0.1)">
       <use xlink:href="#DejaVuSans-30"/>
       <use xlink:href="#DejaVuSans-2e" x="63.623047"/>
       <use xlink:href="#DejaVuSans-34" x="95.410156"/>
      </g>
     </g>
    </g>
    <g id="ytick_5">
     <g id="line2d_12">
      <g>
       <use xlink:href="#mb5baab1fbd" x="90" y="109.642526" style="stroke: #000000; stroke-width: 0.8"/>
      </g>
     </g>
     <g id="text_13">
      <!-- 0.6 -->
      <g transform="translate(67.096875 113.441744) scale(0.1 -0.1)">
       <use xlink:href="#DejaVuSans-30"/>
       <use xlink:href="#DejaVuSans-2e" x="63.623047"/>
       <use xlink:href="#DejaVuSans-36" x="95.410156"/>
      </g>
     </g>
    </g>
    <g id="text_14">
     <!-- Amplitude -->
     <g transform="translate(52.6375 243.782656) rotate(-90) scale(0.1 -0.1)">
      <defs>
       <path id="DejaVuSans-41" d="M 2188 4044 
L 1331 1722 
L 3047 1722 
L 2188 4044 
z
M 1831 4666 
L 2547 4666 
L 4325 0 
L 3669 0 
L 3244 1197 
L 1141 1197 
L 716 0 
L 50 0 
L 1831 4666 
z
" transform="scale(0.015625)"/>
       <path id="DejaVuSans-70" d="M 1159 525 
L 1159 -1331 
L 581 -1331 
L 581 3500 
L 1159 3500 
L 1159 2969 
Q 1341 3281 1617 3432 
Q 1894 3584 2278 3584 
Q 2916 3584 3314 3078 
Q 3713 2572 3713 1747 
Q 3713 922 3314 415 
Q 2916 -91 2278 -91 
Q 1894 -91 1617 61 
Q 1341 213 1159 525 
z
M 3116 1747 
Q 3116 2381 2855 2742 
Q 2594 3103 2138 3103 
Q 1681 3103 1420 2742 
Q 1159 2381 1159 1747 
Q 1159 1113 1420 752 
Q 1681 391 2138 391 
Q 2594 391 2855 752 
Q 3116 1113 3116 1747 
z
" transform="scale(0.015625)"/>
       <path id="DejaVuSans-6c" d="M 603 4863 
L 1178 4863 
L 1178 0 
L 603 0 
L 603 4863 
z
" transform="scale(0.015625)"/>
       <path id="DejaVuSans-74" d="M 1172 4494 
L 1172 3500 
L 2356 3500 
L 2356 3053 
L 1172 3053 
L 1172 1153 
Q 1172 725 1289 603 
Q 1406 481 1766 481 
L 2356 481 
L 2356 0 
L 1766 0 
Q 1100 0 847 248 
Q 594 497 594 1153 
L 594 3053 
L 172 3053 
L 172 3500 
L 594 3500 
L 594 4494 
L 1172 4494 
z
" transform="scale(0.015625)"/>
       <path id="DejaVuSans-75" d="M 544 1381 
L 544 3500 
L 1119 3500 
L 1119 1403 
Q 1119 906 1312 657 
Q 1506 409 1894 409 
Q 2359 409 2629 706 
Q 2900 1003 2900 1516 
L 2900 3500 
L 3475 3500 
L 3475 0 
L 2900 0 
L 2900 538 
Q 2691 219 2414 64 
Q 2138 -91 1772 -91 
Q 1169 -91 856 284 
Q 544 659 544 1381 
z
M 1991 3584 
L 1991 3584 
z
" transform="scale(0.015625)"/>
       <path id="DejaVuSans-64" d="M 2906 2969 
L 2906 4863 
L 3481 4863 
L 3481 0 
L 2906 0 
L 2906 525 
Q 2725 213 2448 61 
Q 2172 -91 1784 -91 
Q 1150 -91 751 415 
Q 353 922 353 1747 
Q 353 2572 751 3078 
Q 1150 3584 1784 3584 
Q 2172 3584 2448 3432 
Q 2725 3281 2906 2969 
z
M 947 1747 
Q 947 1113 1208 752 
Q 1469 391 1925 391 
Q 2381 391 2643 752 
Q 2906 1113 2906 1747 
Q 2906 2381 2643 2742 
Q 2381 3103 1925 3103 
Q 1469 3103 1208 2742 
Q 947 2381 947 1747 
z
" transform="scale(0.015625)"/>
      </defs>
      <use xlink:href="#DejaVuSans-41"/>
      <use xlink:href="#DejaVuSans-6d" x="68.408203"/>
      <use xlink:href="#DejaVuSans-70" x="165.820312"/>
      <use xlink:href="#DejaVuSans-6c" x="229.296875"/>
      <use xlink:href="#DejaVuSans-69" x="257.080078"/>
      <use xlink:href="#DejaVuSans-74" x="284.863281"/>
      <use xlink:href="#DejaVuSans-75" x="324.072266"/>
      <use xlink:href="#DejaVuSans-64" x="387.451172"/>
      <use xlink:href="#DejaVuSans-65" x="450.927734"/>
     </g>
    </g>
   </g>
   <g id="line2d_13">
    <path d="M 115.363636 307.334163 
L 116.210502 289.886426 
L 117.057368 275.678523 
L 117.904234 265.33426 
L 118.7511 260.905637 
L 119.597966 263.152538 
L 120.444832 257.322742 
L 121.291698 264.749882 
L 122.138564 277.68347 
L 122.98543 293.959588 
L 123.832296 313.407185 
L 124.679162 326.633598 
L 125.526028 346.029052 
L 126.372894 354.476788 
L 127.21976 360.032835 
L 128.066626 364.319338 
L 128.913492 362.302945 
L 129.760358 353.872379 
L 130.607224 342.69447 
L 131.45409 327.919358 
L 133.147822 292.363199 
L 133.994688 277.929239 
L 134.841554 272.238702 
L 135.68842 249.463836 
L 136.535286 247.127594 
L 138.229018 236.261586 
L 139.075884 247.031575 
L 139.92275 261.077962 
L 140.769616 262.585646 
L 141.616482 275.214963 
L 142.463348 294.857776 
L 143.310214 303.101393 
L 144.15708 299.983647 
L 145.003946 299.253333 
L 145.850812 291.578198 
L 147.544544 256.8347 
L 148.39141 233.192486 
L 150.085142 176.806633 
L 150.932008 157.147923 
L 151.778874 128.902854 
L 154.319472 95.689614 
L 156.013204 83.093999 
L 157.706936 87.072733 
L 158.553802 90.072839 
L 160.247534 98.148264 
L 161.0944 96.60497 
L 161.941266 101.091141 
L 162.788132 99.824139 
L 163.634998 92.386826 
L 164.481864 94.941495 
L 165.32873 84.040196 
L 166.175596 78.44218 
L 167.022462 70.096822 
L 167.869328 66.96 
L 168.716194 77.382795 
L 169.56306 89.773019 
L 172.103658 144.000042 
L 172.950524 169.713651 
L 173.79739 200.022168 
L 175.491122 244.245762 
L 177.184854 279.916381 
L 178.03172 281.198961 
L 178.878586 288.405131 
L 179.725452 292.662065 
L 180.572317 294.900063 
L 181.419183 289.099518 
L 183.112915 264.060264 
L 183.959781 257.382833 
L 185.653513 238.91132 
L 187.347245 228.336549 
L 188.194111 231.017441 
L 189.040977 240.363682 
L 191.581575 283.097079 
L 192.428441 303.311235 
L 193.275307 317.522634 
L 194.969039 332.410298 
L 195.815905 333.916392 
L 196.662771 329.897915 
L 197.509637 327.093025 
L 198.356503 317.144283 
L 199.203369 302.600951 
L 200.050235 297.10118 
L 201.743967 268.671386 
L 202.590833 257.502697 
L 203.437699 253.969083 
L 204.284565 251.545724 
L 205.131431 255.635102 
L 205.978297 261.070332 
L 206.825163 272.017414 
L 207.672029 287.21221 
L 208.518895 297.598124 
L 209.365761 310.436329 
L 210.212627 320.305586 
L 211.059493 333.213739 
L 211.906359 337.75396 
L 212.753225 342.913214 
L 213.600091 339.304566 
L 214.446957 332.955251 
L 215.293823 322.261887 
L 216.140689 302.22101 
L 217.834421 277.504468 
L 218.681287 267.225701 
L 219.528153 259.912702 
L 220.375019 256.446492 
L 221.221885 253.6203 
L 222.068751 254.732463 
L 222.915617 264.142611 
L 224.609349 280.53923 
L 225.456215 290.68319 
L 227.149947 330.494693 
L 227.996813 338.155521 
L 228.843679 342.122173 
L 229.690545 339.889898 
L 230.537411 335.143651 
L 232.231143 321.054659 
L 233.924875 291.715549 
L 236.465473 253.855895 
L 237.312339 245.339166 
L 238.159205 246.41572 
L 239.006071 249.071495 
L 239.852937 255.224956 
L 240.699803 265.496093 
L 241.546669 285.053062 
L 243.240401 311.609855 
L 245.780999 335.273371 
L 246.627865 338.599051 
L 247.474731 335.807197 
L 248.321597 321.668606 
L 249.168463 305.137815 
L 250.015329 299.730565 
L 250.862195 290.237434 
L 251.709061 271.421272 
L 252.555927 257.680109 
L 254.249659 245.512445 
L 255.096525 241.077145 
L 255.94339 242.034789 
L 256.790256 250.51559 
L 259.330854 292.495145 
L 260.17772 305.224932 
L 261.024586 319.737423 
L 261.871452 330.686413 
L 262.718318 336.403339 
L 263.565184 337.306296 
L 264.41205 331.96327 
L 265.258916 320.92621 
L 266.105782 300.790904 
L 269.493246 245.908284 
L 270.340112 236.211034 
L 271.186978 229.85854 
L 272.033844 229.888427 
L 272.88071 229.107242 
L 273.727576 235.840312 
L 274.574442 245.766163 
L 275.421308 265.86745 
L 277.961906 315.605122 
L 278.808772 325.715062 
L 279.655638 324.19784 
L 280.502504 325.007004 
L 281.34937 322.700966 
L 283.043102 304.281278 
L 284.736834 268.770902 
L 285.5837 254.61705 
L 286.430566 237.423349 
L 287.277432 224.076753 
L 288.124298 219.350854 
L 288.971164 219.392505 
L 289.81803 224.538724 
L 292.358628 253.041962 
L 293.205494 264.785809 
L 294.899226 298.938252 
L 295.746092 308.654897 
L 296.592958 314.312686 
L 297.439824 322.316573 
L 298.28669 320.033427 
L 299.133556 311.289051 
L 299.980422 304.423398 
L 300.827288 282.86657 
L 301.674154 271.158969 
L 302.52102 257.428299 
L 304.214752 221.453409 
L 305.061618 215.237312 
L 305.908484 220.029344 
L 306.75535 224.180085 
L 307.602216 222.904817 
L 308.449082 234.345028 
L 310.142814 272.699401 
L 310.98968 291.464693 
L 311.836546 297.497336 
L 313.530278 320.022935 
L 314.377144 325.625084 
L 316.070876 317.496563 
L 316.917742 307.261036 
L 318.611474 277.204648 
L 319.45834 260.626802 
L 320.305206 241.35153 
L 321.152072 229.211845 
L 321.998938 222.722318 
L 322.845804 222.606587 
L 323.69267 223.207498 
L 324.539536 228.663394 
L 326.233268 255.602036 
L 327.080134 272.047619 
L 327.927 284.624475 
L 328.773866 302.937652 
L 329.620732 313.850715 
L 330.467598 322.179858 
L 331.314463 323.695808 
L 332.161329 321.543655 
L 333.008195 315.424849 
L 333.855061 303.411069 
L 334.701927 294.401211 
L 335.548793 283.738051 
L 337.242525 252.287802 
L 338.089391 246.080609 
L 338.936257 235.849215 
L 339.783123 230.083007 
L 340.629989 233.400103 
L 341.476855 240.453978 
L 343.170587 265.013774 
L 344.017453 280.901049 
L 344.864319 291.922848 
L 345.711185 307.327804 
L 346.558051 320.079847 
L 347.404917 323.637943 
L 348.251783 325.223205 
L 349.098649 330.807231 
L 349.945515 329.067767 
L 350.792381 319.776212 
L 351.639247 303.900383 
L 352.486113 296.004913 
L 353.332979 270.195603 
L 354.179845 260.911042 
L 355.873577 246.510467 
L 356.720443 244.044822 
L 357.567309 248.334504 
L 358.414175 251.953963 
L 359.261041 259.951174 
L 360.107907 271.236547 
L 361.801639 302.549444 
L 363.495371 324.647093 
L 364.342237 330.933772 
L 365.189103 333.755831 
L 366.035969 337.007748 
L 366.882835 330.120475 
L 367.729701 315.311343 
L 368.576567 304.445654 
L 370.270299 272.88031 
L 371.117165 261.083367 
L 371.964031 252.69 
L 372.810897 248.581227 
L 373.657763 248.863242 
L 374.504629 253.136391 
L 375.351495 260.752071 
L 376.198361 271.956687 
L 377.045227 286.088283 
L 377.892093 305.570535 
L 380.432691 338.933527 
L 381.279557 336.58711 
L 382.126423 338.389527 
L 382.973289 332.485014 
L 383.820155 330.519811 
L 384.667021 318.846865 
L 386.360753 289.763382 
L 387.207619 277.412582 
L 388.901351 257.530358 
L 389.748217 250.776303 
L 390.595083 251.663681 
L 391.441949 257.986924 
L 392.288815 266.028647 
L 393.135681 272.98078 
L 393.982547 292.417249 
L 395.676279 321.93854 
L 396.523145 329.041378 
L 398.216877 347.62894 
L 399.063743 348.100766 
L 399.910609 340.910812 
L 401.604341 316.524295 
L 402.451207 305.856048 
L 403.298073 291.24881 
L 404.144939 272.277809 
L 404.991805 261.986006 
L 405.838671 248.196835 
L 406.685537 240.310586 
L 407.532402 246.707909 
L 408.379268 246.466591 
L 409.226134 257.224498 
L 410.919866 291.232277 
L 411.766732 307.44894 
L 412.613598 316.099841 
L 414.30733 337.935505 
L 415.154196 346.576231 
L 416.847928 344.738205 
L 418.54166 313.471092 
L 419.388526 303.169115 
L 421.082258 270.382553 
L 421.929124 256.383539 
L 422.77599 244.929656 
L 423.622856 235.77418 
L 424.469722 237.38615 
L 426.163454 253.567839 
L 427.01032 266.349133 
L 427.857186 285.202813 
L 428.704052 299.760452 
L 430.397784 331.518151 
L 431.24465 337.938684 
L 432.091516 338.194628 
L 432.938382 340.780137 
L 433.785248 340.737533 
L 434.632114 334.893748 
L 435.47898 320.948784 
L 436.325846 302.613987 
L 437.172712 291.07871 
L 438.019578 275.226091 
L 438.866444 265.129823 
L 439.71331 247.544098 
L 440.560176 241.878679 
L 441.407042 240.893693 
L 442.253908 243.901112 
L 443.100774 250.192878 
L 443.94764 262.835231 
L 446.488238 310.791153 
L 448.18197 335.84535 
L 449.028836 336.586156 
L 449.875702 345.636393 
L 450.722568 346.062436 
L 451.569434 338.403834 
L 454.956898 278.128589 
L 455.803764 267.515664 
L 456.65063 251.101241 
L 457.497496 247.105338 
L 458.344362 239.586312 
L 459.191228 248.952266 
L 460.038094 253.899454 
L 461.731826 282.496167 
L 462.578692 301.298022 
L 463.425558 315.512919 
L 465.11929 338.028026 
L 465.966156 344.659355 
L 466.813022 348.983375 
L 467.659888 342.692562 
L 468.506754 341.824579 
L 471.894218 286.183348 
L 472.741084 264.616028 
L 473.58795 253.595182 
L 474.434816 245.636761 
L 475.281682 248.293807 
L 476.128548 250.138192 
L 476.975414 252.683323 
L 477.82228 264.679934 
L 478.669146 282.052955 
L 479.516012 296.093937 
L 480.362878 306.385422 
L 482.903475 348.91152 
L 483.750341 349.549313 
L 484.597207 346.485618 
L 485.444073 340.470779 
L 486.290939 328.748235 
L 487.137805 321.657796 
L 487.984671 300.982305 
L 488.831537 285.388809 
L 489.678403 276.331578 
L 490.525269 261.003564 
L 491.372135 252.602248 
L 492.219001 257.033096 
L 493.065867 263.372872 
L 493.912733 262.020662 
L 494.759599 264.24944 
L 495.606465 275.040095 
L 496.453331 294.716292 
L 497.300197 310.137781 
L 498.147063 320.435943 
L 499.840795 343.789464 
L 500.687661 344.142699 
L 501.534527 343.782152 
L 502.381393 336.554044 
L 503.228259 332.238609 
L 505.768857 290.209455 
L 506.615723 274.560955 
L 507.462589 261.007697 
L 508.309455 257.454688 
L 510.003187 257.568194 
L 510.850053 259.07238 
L 511.696919 270.423568 
L 512.543785 287.077084 
L 513.390651 299.149684 
L 515.084383 325.951611 
L 516.778115 343.435912 
L 517.624981 345.615727 
L 518.471847 343.39458 
L 519.318713 334.992628 
L 520.165579 328.723435 
L 522.706177 284.457873 
L 523.553043 272.80623 
L 524.399909 264.3143 
L 525.246775 260.918355 
L 526.093641 259.376969 
L 526.940507 257.379972 
L 527.787373 262.618076 
L 528.634239 273.157238 
L 529.481105 286.939733 
L 532.021703 323.446223 
L 532.868569 331.522602 
L 533.715435 335.7665 
L 534.562301 337.672884 
L 535.409167 335.522638 
L 536.256033 324.887775 
L 539.643497 274.647753 
L 540.490363 261.558691 
L 542.184095 250.270139 
L 543.030961 247.8436 
L 543.877827 248.716671 
L 544.724693 256.821346 
L 545.571559 268.909843 
L 546.418425 284.867065 
L 548.112157 308.427568 
L 548.959023 326.057486 
L 549.805889 334.827298 
L 550.652755 336.928898 
L 551.499621 341.454176 
L 553.193353 326.021241 
L 555.733951 283.042711 
L 556.580817 271.194261 
L 557.427683 255.963219 
L 558.274548 250.354393 
L 559.121414 243.806047 
L 559.96828 239.082055 
L 560.815146 244.746203 
L 561.662012 252.341217 
L 562.508878 254.649162 
L 563.355744 269.666546 
L 565.896342 323.358471 
L 566.743208 328.083417 
L 567.590074 325.571988 
L 568.43694 327.409696 
L 569.283806 323.948891 
L 570.977538 311.350096 
L 572.67127 287.000142 
L 573.518136 265.759667 
L 574.365002 255.8672 
L 576.058734 245.131868 
L 576.9056 244.28932 
L 577.752466 245.477153 
L 578.599332 255.842401 
L 580.293064 286.286043 
L 581.13993 296.825205 
L 581.986796 310.404853 
L 582.833662 326.097229 
L 583.680528 338.294144 
L 584.527394 342.157783 
L 585.37426 344.97698 
L 586.221126 339.7783 
L 587.914858 319.916424 
L 589.60859 290.746778 
L 590.455456 274.927861 
L 591.302322 261.217221 
L 592.149188 254.309918 
L 592.996054 249.721687 
L 593.84292 254.031718 
L 595.536652 269.688802 
L 596.383518 279.160631 
L 597.230384 300.003996 
L 598.07725 309.87993 
L 598.924116 328.134923 
L 599.770982 343.741773 
L 600.617848 353.049861 
L 601.464714 349.18972 
L 602.31158 350.426835 
L 603.158446 350.522853 
L 604.005312 343.645436 
L 605.699044 320.479183 
L 606.54591 309.766742 
L 607.392776 295.725442 
L 608.239642 275.320838 
L 609.086508 263.354749 
L 609.933374 260.40456 
L 610.78024 258.82661 
L 611.627106 261.100536 
L 612.473972 272.179247 
L 613.320838 281.192284 
L 615.01457 316.617134 
L 616.708302 345.292379 
L 617.555168 357.879092 
L 619.2489 369.36 
L 620.095766 363.014501 
L 621.789498 339.993547 
L 622.636364 323.223028 
L 622.636364 323.223028 
" clip-path="url(#p1b7e66d48d)" style="fill: none; stroke: #1f77b4; stroke-width: 1.5; stroke-linecap: square"/>
   </g>
   <g id="patch_3">
    <path d="M 90 384.48 
L 90 51.84 
" style="fill: none; stroke: #000000; stroke-width: 0.8; stroke-linejoin: miter; stroke-linecap: square"/>
   </g>
   <g id="patch_4">
    <path d="M 648 384.48 
L 648 51.84 
" style="fill: none; stroke: #000000; stroke-width: 0.8; stroke-linejoin: miter; stroke-linecap: square"/>
   </g>
   <g id="patch_5">
    <path d="M 90 384.48 
L 648 384.48 
" style="fill: none; stroke: #000000; stroke-width: 0.8; stroke-linejoin: miter; stroke-linecap: square"/>
   </g>
   <g id="patch_6">
    <path d="M 90 51.84 
L 648 51.84 
" style="fill: none; stroke: #000000; stroke-width: 0.8; stroke-linejoin: miter; stroke-linecap: square"/>
   </g>
   <g id="text_15">
    <!-- ECG Wavelet (Original) -->
    <g transform="translate(300.214687 45.84) scale(0.12 -0.12)">
     <defs>
      <path id="DejaVuSans-45" d="M 628 4666 
L 3578 4666 
L 3578 4134 
L 1259 4134 
L 1259 2753 
L 3481 2753 
L 3481 2222 
L 1259 2222 
L 1259 531 
L 3634 531 
L 3634 0 
L 628 0 
L 628 4666 
z
" transform="scale(0.015625)"/>
      <path id="DejaVuSans-43" d="M 4122 4306 
L 4122 3641 
Q 3803 3938 3442 4084 
Q 3081 4231 2675 4231 
Q 1875 4231 1450 3742 
Q 1025 3253 1025 2328 
Q 1025 1406 1450 917 
Q 1875 428 2675 428 
Q 3081 428 3442 575 
Q 3803 722 4122 1019 
L 4122 359 
Q 3791 134 3420 21 
Q 3050 -91 2638 -91 
Q 1578 -91 968 557 
Q 359 1206 359 2328 
Q 359 3453 968 4101 
Q 1578 4750 2638 4750 
Q 3056 4750 3426 4639 
Q 3797 4528 4122 4306 
z
" transform="scale(0.015625)"/>
      <path id="DejaVuSans-47" d="M 3809 666 
L 3809 1919 
L 2778 1919 
L 2778 2438 
L 4434 2438 
L 4434 434 
Q 4069 175 3628 42 
Q 3188 -91 2688 -91 
Q 1594 -91 976 548 
Q 359 1188 359 2328 
Q 359 3472 976 4111 
Q 1594 4750 2688 4750 
Q 3144 4750 3555 4637 
Q 3966 4525 4313 4306 
L 4313 3634 
Q 3963 3931 3569 4081 
Q 3175 4231 2741 4231 
Q 1884 4231 1454 3753 
Q 1025 3275 1025 2328 
Q 1025 1384 1454 906 
Q 1884 428 2741 428 
Q 3075 428 3337 486 
Q 3600 544 3809 666 
z
" transform="scale(0.015625)"/>
      <path id="DejaVuSans-57" d="M 213 4666 
L 850 4666 
L 1831 722 
L 2809 4666 
L 3519 4666 
L 4500 722 
L 5478 4666 
L 6119 4666 
L 4947 0 
L 4153 0 
L 3169 4050 
L 2175 0 
L 1381 0 
L 213 4666 
z
" transform="scale(0.015625)"/>
      <path id="DejaVuSans-61" d="M 2194 1759 
Q 1497 1759 1228 1600 
Q 959 1441 959 1056 
Q 959 750 1161 570 
Q 1363 391 1709 391 
Q 2188 391 2477 730 
Q 2766 1069 2766 1631 
L 2766 1759 
L 2194 1759 
z
M 3341 1997 
L 3341 0 
L 2766 0 
L 2766 531 
Q 2569 213 2275 61 
Q 1981 -91 1556 -91 
Q 1019 -91 701 211 
Q 384 513 384 1019 
Q 384 1609 779 1909 
Q 1175 2209 1959 2209 
L 2766 2209 
L 2766 2266 
Q 2766 2663 2505 2880 
Q 2244 3097 1772 3097 
Q 1472 3097 1187 3025 
Q 903 2953 641 2809 
L 641 3341 
Q 956 3463 1253 3523 
Q 1550 3584 1831 3584 
Q 2591 3584 2966 3190 
Q 3341 2797 3341 1997 
z
" transform="scale(0.015625)"/>
      <path id="DejaVuSans-76" d="M 191 3500 
L 800 3500 
L 1894 563 
L 2988 3500 
L 3597 3500 
L 2284 0 
L 1503 0 
L 191 3500 
z
" transform="scale(0.015625)"/>
      <path id="DejaVuSans-4f" d="M 2522 4238 
Q 1834 4238 1429 3725 
Q 1025 3213 1025 2328 
Q 1025 1447 1429 934 
Q 1834 422 2522 422 
Q 3209 422 3611 934 
Q 4013 1447 4013 2328 
Q 4013 3213 3611 3725 
Q 3209 4238 2522 4238 
z
M 2522 4750 
Q 3503 4750 4090 4092 
Q 4678 3434 4678 2328 
Q 4678 1225 4090 567 
Q 3503 -91 2522 -91 
Q 1538 -91 948 565 
Q 359 1222 359 2328 
Q 359 3434 948 4092 
Q 1538 4750 2522 4750 
z
" transform="scale(0.015625)"/>
      <path id="DejaVuSans-72" d="M 2631 2963 
Q 2534 3019 2420 3045 
Q 2306 3072 2169 3072 
Q 1681 3072 1420 2755 
Q 1159 2438 1159 1844 
L 1159 0 
L 581 0 
L 581 3500 
L 1159 3500 
L 1159 2956 
Q 1341 3275 1631 3429 
Q 1922 3584 2338 3584 
Q 2397 3584 2469 3576 
Q 2541 3569 2628 3553 
L 2631 2963 
z
" transform="scale(0.015625)"/>
      <path id="DejaVuSans-67" d="M 2906 1791 
Q 2906 2416 2648 2759 
Q 2391 3103 1925 3103 
Q 1463 3103 1205 2759 
Q 947 2416 947 1791 
Q 947 1169 1205 825 
Q 1463 481 1925 481 
Q 2391 481 2648 825 
Q 2906 1169 2906 1791 
z
M 3481 434 
Q 3481 -459 3084 -895 
Q 2688 -1331 1869 -1331 
Q 1566 -1331 1297 -1286 
Q 1028 -1241 775 -1147 
L 775 -588 
Q 1028 -725 1275 -790 
Q 1522 -856 1778 -856 
Q 2344 -856 2625 -561 
Q 2906 -266 2906 331 
L 2906 616 
Q 2728 306 2450 153 
Q 2172 0 1784 0 
Q 1141 0 747 490 
Q 353 981 353 1791 
Q 353 2603 747 3093 
Q 1141 3584 1784 3584 
Q 2172 3584 2450 3431 
Q 2728 3278 2906 2969 
L 2906 3500 
L 3481 3500 
L 3481 434 
z
" transform="scale(0.015625)"/>
      <path id="DejaVuSans-6e" d="M 3513 2113 
L 3513 0 
L 2938 0 
L 2938 2094 
Q 2938 2591 2744 2837 
Q 2550 3084 2163 3084 
Q 1697 3084 1428 2787 
Q 1159 2491 1159 1978 
L 1159 0 
L 581 0 
L 581 3500 
L 1159 3500 
L 1159 2956 
Q 1366 3272 1645 3428 
Q 1925 3584 2291 3584 
Q 2894 3584 3203 3211 
Q 3513 2838 3513 2113 
z
" transform="scale(0.015625)"/>
     </defs>
     <use xlink:href="#DejaVuSans-45"/>
     <use xlink:href="#DejaVuSans-43" x="63.183594"/>
     <use xlink:href="#DejaVuSans-47" x="133.007812"/>
     <use xlink:href="#DejaVuSans-20" x="210.498047"/>
     <use xlink:href="#DejaVuSans-57" x="242.285156"/>
     <use xlink:href="#DejaVuSans-61" x="334.787109"/>
     <use xlink:href="#DejaVuSans-76" x="396.066406"/>
     <use xlink:href="#DejaVuSans-65" x="455.246094"/>
     <use xlink:href="#DejaVuSans-6c" x="516.769531"/>
     <use xlink:href="#DejaVuSans-65" x="544.552734"/>
     <use xlink:href="#DejaVuSans-74" x="606.076172"/>
     <use xlink:href="#DejaVuSans-20" x="645.285156"/>
     <use xlink:href="#DejaVuSans-28" x="677.072266"/>
     <use xlink:href="#DejaVuSans-4f" x="716.085938"/>
     <use xlink:href="#DejaVuSans-72" x="794.796875"/>
     <use xlink:href="#DejaVuSans-69" x="835.910156"/>
     <use xlink:href="#DejaVuSans-67" x="863.693359"/>
     <use xlink:href="#DejaVuSans-69" x="927.169922"/>
     <use xlink:href="#DejaVuSans-6e" x="954.953125"/>
     <use xlink:href="#DejaVuSans-61" x="1018.332031"/>
     <use xlink:href="#DejaVuSans-6c" x="1079.611328"/>
     <use xlink:href="#DejaVuSans-29" x="1107.394531"/>
    </g>
   </g>
  </g>
 </g>
 <defs>
  <clipPath id="p1b7e66d48d">
   <rect x="90" y="51.84" width="558" height="332.64"/>
  </clipPath>
 </defs>
</svg>
