<?xml version="1.0" encoding="utf-8" standalone="no"?>
<!DOCTYPE svg PUBLIC "-//W3C//DTD SVG 1.1//EN"
  "http://www.w3.org/Graphics/SVG/1.1/DTD/svg11.dtd">
<svg xmlns:xlink="http://www.w3.org/1999/xlink" width="720pt" height="432pt" viewBox="0 0 720 432" xmlns="http://www.w3.org/2000/svg" version="1.1">
 <metadata>
  <rdf:RDF xmlns:dc="http://purl.org/dc/elements/1.1/" xmlns:cc="http://creativecommons.org/ns#" xmlns:rdf="http://www.w3.org/1999/02/22-rdf-syntax-ns#">
   <cc:Work>
    <dc:type rdf:resource="http://purl.org/dc/dcmitype/StillImage"/>
    <dc:date>2023-11-12T19:27:31.427434</dc:date>
    <dc:format>image/svg+xml</dc:format>
    <dc:creator>
     <cc:Agent>
      <dc:title>Matplotlib v3.8.0, https://matplotlib.org/</dc:title>
     </cc:Agent>
    </dc:creator>
   </cc:Work>
  </rdf:RDF>
 </metadata>
 <defs>
  <style type="text/css">*{stroke-linejoin: round; stroke-linecap: butt}</style>
 </defs>
 <g id="figure_1">
  <g id="patch_1">
   <path d="M 0 432 
L 720 432 
L 720 0 
L 0 0 
z
" style="fill: #ffffff"/>
  </g>
  <g id="axes_1">
   <g id="patch_2">
    <path d="M 90 384.48 
L 648 384.48 
L 648 51.84 
L 90 51.84 
z
" style="fill: #ffffff"/>
   </g>
   <g id="matplotlib.axis_1">
    <g id="xtick_1">
     <g id="line2d_1">
      <defs>
       <path id="m7a19b91e39" d="M 0 0 
L 0 3.5 
" style="stroke: #000000; stroke-width: 0.8"/>
      </defs>
      <g>
       <use xlink:href="#m7a19b91e39" x="115.363636" y="384.48" style="stroke: #000000; stroke-width: 0.8"/>
      </g>
     </g>
     <g id="text_1">
      <!-- 0.0 -->
      <g transform="translate(107.412074 399.078438) scale(0.1 -0.1)">
       <defs>
        <path id="DejaVuSans-30" d="M 2034 4250 
Q 1547 4250 1301 3770 
Q 1056 3291 1056 2328 
Q 1056 1369 1301 889 
Q 1547 409 2034 409 
Q 2525 409 2770 889 
Q 3016 1369 3016 2328 
Q 3016 3291 2770 3770 
Q 2525 4250 2034 4250 
z
M 2034 4750 
Q 2819 4750 3233 4129 
Q 3647 3509 3647 2328 
Q 3647 1150 3233 529 
Q 2819 -91 2034 -91 
Q 1250 -91 836 529 
Q 422 1150 422 2328 
Q 422 3509 836 4129 
Q 1250 4750 2034 4750 
z
" transform="scale(0.015625)"/>
        <path id="DejaVuSans-2e" d="M 684 794 
L 1344 794 
L 1344 0 
L 684 0 
L 684 794 
z
" transform="scale(0.015625)"/>
       </defs>
       <use xlink:href="#DejaVuSans-30"/>
       <use xlink:href="#DejaVuSans-2e" x="63.623047"/>
       <use xlink:href="#DejaVuSans-30" x="95.410156"/>
      </g>
     </g>
    </g>
    <g id="xtick_2">
     <g id="line2d_2">
      <g>
       <use xlink:href="#m7a19b91e39" x="199.909091" y="384.48" style="stroke: #000000; stroke-width: 0.8"/>
      </g>
     </g>
     <g id="text_2">
      <!-- 0.1 -->
      <g transform="translate(191.957528 399.078438) scale(0.1 -0.1)">
       <defs>
        <path id="DejaVuSans-31" d="M 794 531 
L 1825 531 
L 1825 4091 
L 703 3866 
L 703 4441 
L 1819 4666 
L 2450 4666 
L 2450 531 
L 3481 531 
L 3481 0 
L 794 0 
L 794 531 
z
" transform="scale(0.015625)"/>
       </defs>
       <use xlink:href="#DejaVuSans-30"/>
       <use xlink:href="#DejaVuSans-2e" x="63.623047"/>
       <use xlink:href="#DejaVuSans-31" x="95.410156"/>
      </g>
     </g>
    </g>
    <g id="xtick_3">
     <g id="line2d_3">
      <g>
       <use xlink:href="#m7a19b91e39" x="284.454545" y="384.48" style="stroke: #000000; stroke-width: 0.8"/>
      </g>
     </g>
     <g id="text_3">
      <!-- 0.2 -->
      <g transform="translate(276.502983 399.078438) scale(0.1 -0.1)">
       <defs>
        <path id="DejaVuSans-32" d="M 1228 531 
L 3431 531 
L 3431 0 
L 469 0 
L 469 531 
Q 828 903 1448 1529 
Q 2069 2156 2228 2338 
Q 2531 2678 2651 2914 
Q 2772 3150 2772 3378 
Q 2772 3750 2511 3984 
Q 2250 4219 1831 4219 
Q 1534 4219 1204 4116 
Q 875 4013 500 3803 
L 500 4441 
Q 881 4594 1212 4672 
Q 1544 4750 1819 4750 
Q 2544 4750 2975 4387 
Q 3406 4025 3406 3419 
Q 3406 3131 3298 2873 
Q 3191 2616 2906 2266 
Q 2828 2175 2409 1742 
Q 1991 1309 1228 531 
z
" transform="scale(0.015625)"/>
       </defs>
       <use xlink:href="#DejaVuSans-30"/>
       <use xlink:href="#DejaVuSans-2e" x="63.623047"/>
       <use xlink:href="#DejaVuSans-32" x="95.410156"/>
      </g>
     </g>
    </g>
    <g id="xtick_4">
     <g id="line2d_4">
      <g>
       <use xlink:href="#m7a19b91e39" x="369" y="384.48" style="stroke: #000000; stroke-width: 0.8"/>
      </g>
     </g>
     <g id="text_4">
      <!-- 0.3 -->
      <g transform="translate(361.048438 399.078438) scale(0.1 -0.1)">
       <defs>
        <path id="DejaVuSans-33" d="M 2597 2516 
Q 3050 2419 3304 2112 
Q 3559 1806 3559 1356 
Q 3559 666 3084 287 
Q 2609 -91 1734 -91 
Q 1441 -91 1130 -33 
Q 819 25 488 141 
L 488 750 
Q 750 597 1062 519 
Q 1375 441 1716 441 
Q 2309 441 2620 675 
Q 2931 909 2931 1356 
Q 2931 1769 2642 2001 
Q 2353 2234 1838 2234 
L 1294 2234 
L 1294 2753 
L 1863 2753 
Q 2328 2753 2575 2939 
Q 2822 3125 2822 3475 
Q 2822 3834 2567 4026 
Q 2313 4219 1838 4219 
Q 1578 4219 1281 4162 
Q 984 4106 628 3988 
L 628 4550 
Q 988 4650 1302 4700 
Q 1616 4750 1894 4750 
Q 2613 4750 3031 4423 
Q 3450 4097 3450 3541 
Q 3450 3153 3228 2886 
Q 3006 2619 2597 2516 
z
" transform="scale(0.015625)"/>
       </defs>
       <use xlink:href="#DejaVuSans-30"/>
       <use xlink:href="#DejaVuSans-2e" x="63.623047"/>
       <use xlink:href="#DejaVuSans-33" x="95.410156"/>
      </g>
     </g>
    </g>
    <g id="xtick_5">
     <g id="line2d_5">
      <g>
       <use xlink:href="#m7a19b91e39" x="453.545455" y="384.48" style="stroke: #000000; stroke-width: 0.8"/>
      </g>
     </g>
     <g id="text_5">
      <!-- 0.4 -->
      <g transform="translate(445.593892 399.078438) scale(0.1 -0.1)">
       <defs>
        <path id="DejaVuSans-34" d="M 2419 4116 
L 825 1625 
L 2419 1625 
L 2419 4116 
z
M 2253 4666 
L 3047 4666 
L 3047 1625 
L 3713 1625 
L 3713 1100 
L 3047 1100 
L 3047 0 
L 2419 0 
L 2419 1100 
L 313 1100 
L 313 1709 
L 2253 4666 
z
" transform="scale(0.015625)"/>
       </defs>
       <use xlink:href="#DejaVuSans-30"/>
       <use xlink:href="#DejaVuSans-2e" x="63.623047"/>
       <use xlink:href="#DejaVuSans-34" x="95.410156"/>
      </g>
     </g>
    </g>
    <g id="xtick_6">
     <g id="line2d_6">
      <g>
       <use xlink:href="#m7a19b91e39" x="538.090909" y="384.48" style="stroke: #000000; stroke-width: 0.8"/>
      </g>
     </g>
     <g id="text_6">
      <!-- 0.5 -->
      <g transform="translate(530.139347 399.078438) scale(0.1 -0.1)">
       <defs>
        <path id="DejaVuSans-35" d="M 691 4666 
L 3169 4666 
L 3169 4134 
L 1269 4134 
L 1269 2991 
Q 1406 3038 1543 3061 
Q 1681 3084 1819 3084 
Q 2600 3084 3056 2656 
Q 3513 2228 3513 1497 
Q 3513 744 3044 326 
Q 2575 -91 1722 -91 
Q 1428 -91 1123 -41 
Q 819 9 494 109 
L 494 744 
Q 775 591 1075 516 
Q 1375 441 1709 441 
Q 2250 441 2565 725 
Q 2881 1009 2881 1497 
Q 2881 1984 2565 2268 
Q 2250 2553 1709 2553 
Q 1456 2553 1204 2497 
Q 953 2441 691 2322 
L 691 4666 
z
" transform="scale(0.015625)"/>
       </defs>
       <use xlink:href="#DejaVuSans-30"/>
       <use xlink:href="#DejaVuSans-2e" x="63.623047"/>
       <use xlink:href="#DejaVuSans-35" x="95.410156"/>
      </g>
     </g>
    </g>
    <g id="xtick_7">
     <g id="line2d_7">
      <g>
       <use xlink:href="#m7a19b91e39" x="622.636364" y="384.48" style="stroke: #000000; stroke-width: 0.8"/>
      </g>
     </g>
     <g id="text_7">
      <!-- 0.6 -->
      <g transform="translate(614.684801 399.078438) scale(0.1 -0.1)">
       <defs>
        <path id="DejaVuSans-36" d="M 2113 2584 
Q 1688 2584 1439 2293 
Q 1191 2003 1191 1497 
Q 1191 994 1439 701 
Q 1688 409 2113 409 
Q 2538 409 2786 701 
Q 3034 994 3034 1497 
Q 3034 2003 2786 2293 
Q 2538 2584 2113 2584 
z
M 3366 4563 
L 3366 3988 
Q 3128 4100 2886 4159 
Q 2644 4219 2406 4219 
Q 1781 4219 1451 3797 
Q 1122 3375 1075 2522 
Q 1259 2794 1537 2939 
Q 1816 3084 2150 3084 
Q 2853 3084 3261 2657 
Q 3669 2231 3669 1497 
Q 3669 778 3244 343 
Q 2819 -91 2113 -91 
Q 1303 -91 875 529 
Q 447 1150 447 2328 
Q 447 3434 972 4092 
Q 1497 4750 2381 4750 
Q 2619 4750 2861 4703 
Q 3103 4656 3366 4563 
z
" transform="scale(0.015625)"/>
       </defs>
       <use xlink:href="#DejaVuSans-30"/>
       <use xlink:href="#DejaVuSans-2e" x="63.623047"/>
       <use xlink:href="#DejaVuSans-36" x="95.410156"/>
      </g>
     </g>
    </g>
    <g id="text_8">
     <!-- Time (s) -->
     <g transform="translate(348.671094 412.756563) scale(0.1 -0.1)">
      <defs>
       <path id="DejaVuSans-54" d="M -19 4666 
L 3928 4666 
L 3928 4134 
L 2272 4134 
L 2272 0 
L 1638 0 
L 1638 4134 
L -19 4134 
L -19 4666 
z
" transform="scale(0.015625)"/>
       <path id="DejaVuSans-69" d="M 603 3500 
L 1178 3500 
L 1178 0 
L 603 0 
L 603 3500 
z
M 603 4863 
L 1178 4863 
L 1178 4134 
L 603 4134 
L 603 4863 
z
" transform="scale(0.015625)"/>
       <path id="DejaVuSans-6d" d="M 3328 2828 
Q 3544 3216 3844 3400 
Q 4144 3584 4550 3584 
Q 5097 3584 5394 3201 
Q 5691 2819 5691 2113 
L 5691 0 
L 5113 0 
L 5113 2094 
Q 5113 2597 4934 2840 
Q 4756 3084 4391 3084 
Q 3944 3084 3684 2787 
Q 3425 2491 3425 1978 
L 3425 0 
L 2847 0 
L 2847 2094 
Q 2847 2600 2669 2842 
Q 2491 3084 2119 3084 
Q 1678 3084 1418 2786 
Q 1159 2488 1159 1978 
L 1159 0 
L 581 0 
L 581 3500 
L 1159 3500 
L 1159 2956 
Q 1356 3278 1631 3431 
Q 1906 3584 2284 3584 
Q 2666 3584 2933 3390 
Q 3200 3197 3328 2828 
z
" transform="scale(0.015625)"/>
       <path id="DejaVuSans-65" d="M 3597 1894 
L 3597 1613 
L 953 1613 
Q 991 1019 1311 708 
Q 1631 397 2203 397 
Q 2534 397 2845 478 
Q 3156 559 3463 722 
L 3463 178 
Q 3153 47 2828 -22 
Q 2503 -91 2169 -91 
Q 1331 -91 842 396 
Q 353 884 353 1716 
Q 353 2575 817 3079 
Q 1281 3584 2069 3584 
Q 2775 3584 3186 3129 
Q 3597 2675 3597 1894 
z
M 3022 2063 
Q 3016 2534 2758 2815 
Q 2500 3097 2075 3097 
Q 1594 3097 1305 2825 
Q 1016 2553 972 2059 
L 3022 2063 
z
" transform="scale(0.015625)"/>
       <path id="DejaVuSans-20" transform="scale(0.015625)"/>
       <path id="DejaVuSans-28" d="M 1984 4856 
Q 1566 4138 1362 3434 
Q 1159 2731 1159 2009 
Q 1159 1288 1364 580 
Q 1569 -128 1984 -844 
L 1484 -844 
Q 1016 -109 783 600 
Q 550 1309 550 2009 
Q 550 2706 781 3412 
Q 1013 4119 1484 4856 
L 1984 4856 
z
" transform="scale(0.015625)"/>
       <path id="DejaVuSans-73" d="M 2834 3397 
L 2834 2853 
Q 2591 2978 2328 3040 
Q 2066 3103 1784 3103 
Q 1356 3103 1142 2972 
Q 928 2841 928 2578 
Q 928 2378 1081 2264 
Q 1234 2150 1697 2047 
L 1894 2003 
Q 2506 1872 2764 1633 
Q 3022 1394 3022 966 
Q 3022 478 2636 193 
Q 2250 -91 1575 -91 
Q 1294 -91 989 -36 
Q 684 19 347 128 
L 347 722 
Q 666 556 975 473 
Q 1284 391 1588 391 
Q 1994 391 2212 530 
Q 2431 669 2431 922 
Q 2431 1156 2273 1281 
Q 2116 1406 1581 1522 
L 1381 1569 
Q 847 1681 609 1914 
Q 372 2147 372 2553 
Q 372 3047 722 3315 
Q 1072 3584 1716 3584 
Q 2034 3584 2315 3537 
Q 2597 3491 2834 3397 
z
" transform="scale(0.015625)"/>
       <path id="DejaVuSans-29" d="M 513 4856 
L 1013 4856 
Q 1481 4119 1714 3412 
Q 1947 2706 1947 2009 
Q 1947 1309 1714 600 
Q 1481 -109 1013 -844 
L 513 -844 
Q 928 -128 1133 580 
Q 1338 1288 1338 2009 
Q 1338 2731 1133 3434 
Q 928 4138 513 4856 
z
" transform="scale(0.015625)"/>
      </defs>
      <use xlink:href="#DejaVuSans-54"/>
      <use xlink:href="#DejaVuSans-69" x="57.958984"/>
      <use xlink:href="#DejaVuSans-6d" x="85.742188"/>
      <use xlink:href="#DejaVuSans-65" x="183.154297"/>
      <use xlink:href="#DejaVuSans-20" x="244.677734"/>
      <use xlink:href="#DejaVuSans-28" x="276.464844"/>
      <use xlink:href="#DejaVuSans-73" x="315.478516"/>
      <use xlink:href="#DejaVuSans-29" x="367.578125"/>
     </g>
    </g>
   </g>
   <g id="matplotlib.axis_2">
    <g id="ytick_1">
     <g id="line2d_8">
      <defs>
       <path id="m8c9ef6cdb4" d="M 0 0 
L -3.5 0 
" style="stroke: #000000; stroke-width: 0.8"/>
      </defs>
      <g>
       <use xlink:href="#m8c9ef6cdb4" x="90" y="340.170693" style="stroke: #000000; stroke-width: 0.8"/>
      </g>
     </g>
     <g id="text_9">
      <!-- 0.0 -->
      <g transform="translate(67.096875 343.969911) scale(0.1 -0.1)">
       <use xlink:href="#DejaVuSans-30"/>
       <use xlink:href="#DejaVuSans-2e" x="63.623047"/>
       <use xlink:href="#DejaVuSans-30" x="95.410156"/>
      </g>
     </g>
    </g>
    <g id="ytick_2">
     <g id="line2d_9">
      <g>
       <use xlink:href="#m8c9ef6cdb4" x="90" y="279.018455" style="stroke: #000000; stroke-width: 0.8"/>
      </g>
     </g>
     <g id="text_10">
      <!-- 0.2 -->
      <g transform="translate(67.096875 282.817674) scale(0.1 -0.1)">
       <use xlink:href="#DejaVuSans-30"/>
       <use xlink:href="#DejaVuSans-2e" x="63.623047"/>
       <use xlink:href="#DejaVuSans-32" x="95.410156"/>
      </g>
     </g>
    </g>
    <g id="ytick_3">
     <g id="line2d_10">
      <g>
       <use xlink:href="#m8c9ef6cdb4" x="90" y="217.866217" style="stroke: #000000; stroke-width: 0.8"/>
      </g>
     </g>
     <g id="text_11">
      <!-- 0.4 -->
      <g transform="translate(67.096875 221.665436) scale(0.1 -0.1)">
       <use xlink:href="#DejaVuSans-30"/>
       <use xlink:href="#DejaVuSans-2e" x="63.623047"/>
       <use xlink:href="#DejaVuSans-34" x="95.410156"/>
      </g>
     </g>
    </g>
    <g id="ytick_4">
     <g id="line2d_11">
      <g>
       <use xlink:href="#m8c9ef6cdb4" x="90" y="156.713979" style="stroke: #000000; stroke-width: 0.8"/>
      </g>
     </g>
     <g id="text_12">
      <!-- 0.6 -->
      <g transform="translate(67.096875 160.513198) scale(0.1 -0.1)">
       <use xlink:href="#DejaVuSans-30"/>
       <use xlink:href="#DejaVuSans-2e" x="63.623047"/>
       <use xlink:href="#DejaVuSans-36" x="95.410156"/>
      </g>
     </g>
    </g>
    <g id="ytick_5">
     <g id="line2d_12">
      <g>
       <use xlink:href="#m8c9ef6cdb4" x="90" y="95.561742" style="stroke: #000000; stroke-width: 0.8"/>
      </g>
     </g>
     <g id="text_13">
      <!-- 0.8 -->
      <g transform="translate(67.096875 99.36096) scale(0.1 -0.1)">
       <defs>
        <path id="DejaVuSans-38" d="M 2034 2216 
Q 1584 2216 1326 1975 
Q 1069 1734 1069 1313 
Q 1069 891 1326 650 
Q 1584 409 2034 409 
Q 2484 409 2743 651 
Q 3003 894 3003 1313 
Q 3003 1734 2745 1975 
Q 2488 2216 2034 2216 
z
M 1403 2484 
Q 997 2584 770 2862 
Q 544 3141 544 3541 
Q 544 4100 942 4425 
Q 1341 4750 2034 4750 
Q 2731 4750 3128 4425 
Q 3525 4100 3525 3541 
Q 3525 3141 3298 2862 
Q 3072 2584 2669 2484 
Q 3125 2378 3379 2068 
Q 3634 1759 3634 1313 
Q 3634 634 3220 271 
Q 2806 -91 2034 -91 
Q 1263 -91 848 271 
Q 434 634 434 1313 
Q 434 1759 690 2068 
Q 947 2378 1403 2484 
z
M 1172 3481 
Q 1172 3119 1398 2916 
Q 1625 2713 2034 2713 
Q 2441 2713 2670 2916 
Q 2900 3119 2900 3481 
Q 2900 3844 2670 4047 
Q 2441 4250 2034 4250 
Q 1625 4250 1398 4047 
Q 1172 3844 1172 3481 
z
" transform="scale(0.015625)"/>
       </defs>
       <use xlink:href="#DejaVuSans-30"/>
       <use xlink:href="#DejaVuSans-2e" x="63.623047"/>
       <use xlink:href="#DejaVuSans-38" x="95.410156"/>
      </g>
     </g>
    </g>
    <g id="text_14">
     <!-- Amplitude -->
     <g transform="translate(61.017187 243.782656) rotate(-90) scale(0.1 -0.1)">
      <defs>
       <path id="DejaVuSans-41" d="M 2188 4044 
L 1331 1722 
L 3047 1722 
L 2188 4044 
z
M 1831 4666 
L 2547 4666 
L 4325 0 
L 3669 0 
L 3244 1197 
L 1141 1197 
L 716 0 
L 50 0 
L 1831 4666 
z
" transform="scale(0.015625)"/>
       <path id="DejaVuSans-70" d="M 1159 525 
L 1159 -1331 
L 581 -1331 
L 581 3500 
L 1159 3500 
L 1159 2969 
Q 1341 3281 1617 3432 
Q 1894 3584 2278 3584 
Q 2916 3584 3314 3078 
Q 3713 2572 3713 1747 
Q 3713 922 3314 415 
Q 2916 -91 2278 -91 
Q 1894 -91 1617 61 
Q 1341 213 1159 525 
z
M 3116 1747 
Q 3116 2381 2855 2742 
Q 2594 3103 2138 3103 
Q 1681 3103 1420 2742 
Q 1159 2381 1159 1747 
Q 1159 1113 1420 752 
Q 1681 391 2138 391 
Q 2594 391 2855 752 
Q 3116 1113 3116 1747 
z
" transform="scale(0.015625)"/>
       <path id="DejaVuSans-6c" d="M 603 4863 
L 1178 4863 
L 1178 0 
L 603 0 
L 603 4863 
z
" transform="scale(0.015625)"/>
       <path id="DejaVuSans-74" d="M 1172 4494 
L 1172 3500 
L 2356 3500 
L 2356 3053 
L 1172 3053 
L 1172 1153 
Q 1172 725 1289 603 
Q 1406 481 1766 481 
L 2356 481 
L 2356 0 
L 1766 0 
Q 1100 0 847 248 
Q 594 497 594 1153 
L 594 3053 
L 172 3053 
L 172 3500 
L 594 3500 
L 594 4494 
L 1172 4494 
z
" transform="scale(0.015625)"/>
       <path id="DejaVuSans-75" d="M 544 1381 
L 544 3500 
L 1119 3500 
L 1119 1403 
Q 1119 906 1312 657 
Q 1506 409 1894 409 
Q 2359 409 2629 706 
Q 2900 1003 2900 1516 
L 2900 3500 
L 3475 3500 
L 3475 0 
L 2900 0 
L 2900 538 
Q 2691 219 2414 64 
Q 2138 -91 1772 -91 
Q 1169 -91 856 284 
Q 544 659 544 1381 
z
M 1991 3584 
L 1991 3584 
z
" transform="scale(0.015625)"/>
       <path id="DejaVuSans-64" d="M 2906 2969 
L 2906 4863 
L 3481 4863 
L 3481 0 
L 2906 0 
L 2906 525 
Q 2725 213 2448 61 
Q 2172 -91 1784 -91 
Q 1150 -91 751 415 
Q 353 922 353 1747 
Q 353 2572 751 3078 
Q 1150 3584 1784 3584 
Q 2172 3584 2448 3432 
Q 2725 3281 2906 2969 
z
M 947 1747 
Q 947 1113 1208 752 
Q 1469 391 1925 391 
Q 2381 391 2643 752 
Q 2906 1113 2906 1747 
Q 2906 2381 2643 2742 
Q 2381 3103 1925 3103 
Q 1469 3103 1208 2742 
Q 947 2381 947 1747 
z
" transform="scale(0.015625)"/>
      </defs>
      <use xlink:href="#DejaVuSans-41"/>
      <use xlink:href="#DejaVuSans-6d" x="68.408203"/>
      <use xlink:href="#DejaVuSans-70" x="165.820312"/>
      <use xlink:href="#DejaVuSans-6c" x="229.296875"/>
      <use xlink:href="#DejaVuSans-69" x="257.080078"/>
      <use xlink:href="#DejaVuSans-74" x="284.863281"/>
      <use xlink:href="#DejaVuSans-75" x="324.072266"/>
      <use xlink:href="#DejaVuSans-64" x="387.451172"/>
      <use xlink:href="#DejaVuSans-65" x="450.927734"/>
     </g>
    </g>
   </g>
   <g id="line2d_13">
    <path d="M 115.363636 343.365925 
L 116.210502 347.678356 
L 117.057368 346.201715 
L 117.904234 350.162831 
L 118.7511 344.151986 
L 119.597966 346.018952 
L 120.444832 350.715632 
L 121.291698 359.769563 
L 122.138564 345.343167 
L 122.98543 338.240681 
L 123.832296 336.043824 
L 124.679162 343.258178 
L 125.526028 347.962499 
L 126.372894 350.439489 
L 127.21976 344.534511 
L 128.066626 337.292198 
L 128.913492 335.030169 
L 129.760358 340.653514 
L 130.607224 339.128735 
L 131.45409 340.396085 
L 132.300956 338.156819 
L 133.147822 333.154999 
L 133.994688 339.70832 
L 134.841554 337.508906 
L 135.68842 329.680511 
L 136.535286 333.974509 
L 137.382152 334.079879 
L 138.229018 342.68691 
L 139.075884 330.728105 
L 139.92275 332.87031 
L 140.769616 337.692657 
L 141.616482 339.366651 
L 142.463348 331.748673 
L 143.310214 328.372642 
L 144.15708 330.943671 
L 145.003946 339.18407 
L 145.850812 336.921537 
L 146.697678 332.233509 
L 147.544544 324.720959 
L 148.39141 333.10013 
L 149.238276 330.111836 
L 150.085142 329.485712 
L 151.778874 326.295761 
L 152.62574 327.803736 
L 153.472606 341.160949 
L 154.319472 337.814561 
L 155.166338 325.532113 
L 156.013204 321.279138 
L 156.86007 322.053555 
L 157.706936 328.538803 
L 158.553802 330.296462 
L 159.400668 323.398995 
L 160.247534 326.900398 
L 161.0944 334.525857 
L 161.941266 329.305837 
L 162.788132 329.489801 
L 163.634998 323.408522 
L 165.32873 333.734345 
L 166.175596 334.013969 
L 167.022462 331.968619 
L 167.869328 328.270454 
L 168.716194 327.327303 
L 169.56306 328.516134 
L 170.409926 335.625986 
L 171.256792 338.489613 
L 172.103658 338.512091 
L 172.950524 342.927374 
L 173.79739 336.628338 
L 174.644256 335.407115 
L 175.491122 339.275348 
L 176.337988 340.24738 
L 177.184854 338.308607 
L 178.03172 341.348937 
L 179.725452 345.155413 
L 180.572317 340.111437 
L 181.419183 339.762045 
L 182.266049 350.038847 
L 183.112915 348.934093 
L 183.959781 342.348456 
L 184.806647 345.601057 
L 185.653513 345.184261 
L 186.500379 342.794111 
L 187.347245 345.979529 
L 188.194111 344.367308 
L 189.040977 344.638915 
L 189.887843 353.424338 
L 190.734709 358.101687 
L 191.581575 348.46199 
L 192.428441 344.644756 
L 193.275307 349.177895 
L 194.122173 351.014209 
L 194.969039 356.162376 
L 195.815905 356.548433 
L 196.662771 354.349769 
L 197.509637 350.36395 
L 198.356503 354.70303 
L 199.203369 358.097019 
L 200.050235 359.091554 
L 200.897101 357.200364 
L 201.743967 360.340752 
L 202.590833 356.382506 
L 203.437699 350.799859 
L 204.284565 360.89964 
L 205.131431 361.581886 
L 205.978297 357.955517 
L 206.825163 358.898831 
L 207.672029 356.784469 
L 209.365761 362.125617 
L 210.212627 362.426877 
L 211.059493 359.753019 
L 211.906359 359.569053 
L 212.753225 360.076323 
L 213.600091 359.926309 
L 214.446957 358.602198 
L 215.293823 362.434603 
L 216.140689 362.517284 
L 216.987555 361.759414 
L 217.834421 364.305983 
L 218.681287 360.328282 
L 219.528153 361.960485 
L 220.375019 359.12676 
L 221.221885 360.869189 
L 222.068751 354.976598 
L 222.915617 358.600925 
L 223.762483 361.447132 
L 224.609349 369.36 
L 225.456215 366.022963 
L 227.149947 351.023814 
L 227.996813 363.308353 
L 228.843679 362.818747 
L 229.690545 356.064341 
L 230.537411 361.729193 
L 231.384277 360.405738 
L 232.231143 361.645203 
L 233.078009 365.433849 
L 233.924875 358.349556 
L 234.771741 356.579714 
L 235.618607 360.777972 
L 236.465473 361.679132 
L 237.312339 364.42969 
L 238.159205 362.85298 
L 239.006071 360.417665 
L 239.852937 359.882441 
L 240.699803 362.769495 
L 241.546669 360.164003 
L 242.393535 358.634299 
L 243.240401 362.230359 
L 244.087267 360.481847 
L 244.934133 357.064008 
L 245.780999 365.787357 
L 246.627865 367.483614 
L 247.474731 363.652545 
L 248.321597 364.77528 
L 249.168463 358.802847 
L 250.015329 356.74816 
L 250.862195 359.783727 
L 251.709061 359.131996 
L 252.555927 362.455669 
L 253.402793 364.16346 
L 255.94339 350.932909 
L 256.790256 350.070985 
L 257.637122 349.636802 
L 258.483988 356.066073 
L 259.330854 352.750905 
L 260.17772 333.638817 
L 261.024586 332.178264 
L 261.871452 331.259455 
L 262.718318 327.746056 
L 263.565184 323.130221 
L 264.41205 317.722958 
L 265.258916 310.237382 
L 266.105782 305.929125 
L 266.952648 294.948016 
L 267.799514 290.551109 
L 268.64638 271.844659 
L 269.493246 265.426381 
L 270.340112 256.885809 
L 271.186978 253.064734 
L 272.033844 236.741767 
L 272.88071 229.971979 
L 274.574442 201.675495 
L 275.421308 188.623112 
L 276.268174 172.576318 
L 278.808772 131.084185 
L 279.655638 122.274905 
L 280.502504 120.599391 
L 281.34937 109.656112 
L 282.196236 93.238501 
L 283.043102 85.121777 
L 283.889968 84.357067 
L 284.736834 73.916691 
L 285.5837 74.465735 
L 286.430566 66.96 
L 287.277432 76.217545 
L 288.124298 87.956494 
L 288.971164 88.731852 
L 289.81803 92.507761 
L 290.664896 100.762584 
L 291.511762 115.992767 
L 292.358628 123.506269 
L 293.205494 132.440238 
L 294.05236 138.311227 
L 294.899226 154.955852 
L 295.746092 162.981936 
L 296.592958 181.850956 
L 297.439824 192.120686 
L 299.133556 220.316073 
L 299.980422 229.341553 
L 300.827288 245.409698 
L 301.674154 246.286161 
L 302.52102 261.453473 
L 303.367886 270.273344 
L 304.214752 277.654913 
L 305.908484 285.402023 
L 306.75535 290.743247 
L 307.602216 301.347165 
L 308.449082 303.058794 
L 309.295948 304.341072 
L 310.142814 309.102732 
L 310.98968 319.324781 
L 311.836546 324.48303 
L 312.683412 317.129369 
L 313.530278 325.128512 
L 314.377144 327.706484 
L 315.22401 331.378186 
L 316.070876 337.282305 
L 317.764608 327.471019 
L 318.611474 329.48482 
L 319.45834 334.203333 
L 320.305206 339.852347 
L 321.152072 342.215145 
L 321.998938 340.669457 
L 322.845804 338.862666 
L 323.69267 343.295383 
L 324.539536 344.17243 
L 325.386402 341.117751 
L 326.233268 340.588571 
L 327.080134 344.333156 
L 327.927 345.329372 
L 328.773866 343.514062 
L 329.620732 346.504464 
L 330.467598 345.065762 
L 331.314463 351.677747 
L 332.161329 351.99051 
L 333.008195 345.0228 
L 333.855061 346.295786 
L 334.701927 348.706339 
L 335.548793 352.482005 
L 336.395659 348.990337 
L 337.242525 351.91544 
L 338.089391 347.70695 
L 338.936257 346.472659 
L 339.783123 350.873246 
L 340.629989 349.575556 
L 341.476855 352.654284 
L 342.323721 350.108011 
L 343.170587 346.389117 
L 344.017453 355.001668 
L 344.864319 352.422111 
L 345.711185 352.630248 
L 346.558051 347.138512 
L 347.404917 347.913886 
L 348.251783 352.131907 
L 349.098649 352.933127 
L 349.945515 351.78771 
L 350.792381 350.287243 
L 351.639247 351.367014 
L 352.486113 350.111297 
L 353.332979 349.505426 
L 354.179845 352.123291 
L 355.026711 352.528157 
L 355.873577 352.522303 
L 356.720443 357.484309 
L 357.567309 348.671103 
L 358.414175 342.861715 
L 359.261041 347.10199 
L 360.107907 348.518107 
L 360.954773 346.266651 
L 361.801639 352.463367 
L 362.648505 351.249767 
L 363.495371 343.461291 
L 364.342237 349.307856 
L 365.189103 350.061877 
L 366.035969 344.142789 
L 366.882835 348.16633 
L 367.729701 343.490327 
L 368.576567 346.302667 
L 369.423433 345.092444 
L 370.270299 345.49077 
L 371.117165 347.16501 
L 371.964031 345.933818 
L 372.810897 344.230565 
L 373.657763 339.623941 
L 374.504629 340.685376 
L 375.351495 345.804235 
L 376.198361 343.895237 
L 377.045227 344.75536 
L 377.892093 345.05093 
L 378.738959 338.859523 
L 379.585825 338.906791 
L 380.432691 341.126958 
L 381.279557 340.015816 
L 382.126423 337.54658 
L 382.973289 343.023762 
L 383.820155 336.92684 
L 384.667021 336.376856 
L 385.513887 337.944993 
L 386.360753 338.977557 
L 387.207619 340.431534 
L 388.054485 335.689331 
L 388.901351 338.528553 
L 389.748217 335.391972 
L 390.595083 331.427216 
L 391.441949 333.113801 
L 392.288815 332.454149 
L 393.135681 332.143252 
L 393.982547 334.723021 
L 394.829413 332.720707 
L 395.676279 325.43975 
L 396.523145 327.75768 
L 397.370011 322.388565 
L 398.216877 326.193373 
L 399.063743 333.380872 
L 399.910609 331.205066 
L 400.757475 330.584905 
L 401.604341 320.520855 
L 402.451207 319.666865 
L 403.298073 323.144993 
L 404.144939 321.826942 
L 404.991805 325.700091 
L 406.685537 321.709377 
L 407.532402 320.991958 
L 408.379268 321.279087 
L 409.226134 322.084508 
L 410.073 321.526469 
L 410.919866 322.967411 
L 411.766732 320.423194 
L 412.613598 316.574806 
L 413.460464 315.01186 
L 414.30733 317.279851 
L 415.154196 318.056087 
L 416.001062 315.316311 
L 416.847928 313.754111 
L 417.694794 317.915079 
L 418.54166 315.661777 
L 419.388526 315.737811 
L 420.235392 315.201443 
L 421.082258 307.051738 
L 421.929124 307.550899 
L 422.77599 315.187482 
L 423.622856 313.35906 
L 424.469722 311.967786 
L 425.316588 311.432519 
L 426.163454 310.12799 
L 427.01032 307.995294 
L 427.857186 311.937135 
L 428.704052 310.426426 
L 429.550918 308.521467 
L 430.397784 309.191974 
L 431.24465 308.839003 
L 432.091516 307.840498 
L 432.938382 312.415918 
L 433.785248 310.29239 
L 434.632114 308.59197 
L 435.47898 311.726046 
L 436.325846 311.286915 
L 437.172712 311.793179 
L 438.019578 311.996802 
L 438.866444 313.388405 
L 439.71331 307.803179 
L 440.560176 310.631996 
L 442.253908 307.556553 
L 443.100774 314.87704 
L 443.94764 317.657697 
L 444.794506 314.890181 
L 445.641372 312.7669 
L 446.488238 319.234759 
L 447.335104 314.486737 
L 448.18197 310.48733 
L 449.028836 315.402057 
L 449.875702 325.128624 
L 450.722568 310.754564 
L 451.569434 310.957582 
L 452.4163 316.953524 
L 453.263166 313.230004 
L 454.110032 314.690959 
L 454.956898 317.78103 
L 455.803764 319.360877 
L 456.65063 316.259133 
L 457.497496 315.115781 
L 458.344362 323.90957 
L 459.191228 322.285891 
L 460.038094 327.005322 
L 460.88496 324.787095 
L 461.731826 316.957583 
L 462.578692 323.939934 
L 463.425558 322.489119 
L 464.272424 321.979705 
L 465.11929 329.162631 
L 465.966156 327.566347 
L 466.813022 329.956835 
L 467.659888 331.117183 
L 468.506754 329.921541 
L 469.35362 332.891617 
L 470.200486 329.687985 
L 471.047352 331.707517 
L 471.894218 331.586108 
L 472.741084 337.239994 
L 473.58795 340.981456 
L 474.434816 338.577089 
L 475.281682 332.671018 
L 476.128548 332.87742 
L 476.975414 333.965967 
L 478.669146 339.04114 
L 479.516012 340.314488 
L 480.362878 342.119439 
L 481.209744 338.887135 
L 482.05661 341.628562 
L 482.903475 350.196914 
L 483.750341 350.326038 
L 484.597207 340.396808 
L 485.444073 335.348932 
L 486.290939 340.482335 
L 487.137805 349.903141 
L 487.984671 343.478626 
L 488.831537 346.760171 
L 489.678403 345.686346 
L 490.525269 347.848136 
L 491.372135 348.626043 
L 492.219001 348.883481 
L 493.065867 346.517168 
L 493.912733 350.472316 
L 494.759599 355.469149 
L 495.606465 352.560529 
L 496.453331 353.297949 
L 497.300197 354.327435 
L 498.147063 350.741346 
L 498.993929 352.602304 
L 499.840795 352.2919 
L 500.687661 351.402531 
L 502.381393 358.214319 
L 503.228259 357.422224 
L 504.075125 351.792163 
L 504.921991 357.076728 
L 505.768857 354.882818 
L 506.615723 355.493671 
L 507.462589 353.683981 
L 508.309455 359.613971 
L 509.156321 357.70314 
L 510.003187 358.266825 
L 510.850053 356.550571 
L 511.696919 354.125588 
L 512.543785 357.017558 
L 513.390651 360.666115 
L 515.084383 353.451176 
L 515.931249 361.153524 
L 517.624981 357.587856 
L 518.471847 360.90952 
L 519.318713 360.158877 
L 520.165579 357.380173 
L 521.012445 357.849397 
L 521.859311 361.902876 
L 522.706177 360.575272 
L 523.553043 352.487971 
L 524.399909 357.241671 
L 525.246775 363.255944 
L 526.093641 358.510408 
L 526.940507 354.687891 
L 527.787373 356.3002 
L 528.634239 358.333255 
L 529.481105 355.907758 
L 530.327971 356.694579 
L 531.174837 354.059322 
L 532.021703 354.230848 
L 532.868569 359.520596 
L 533.715435 352.366762 
L 534.562301 359.513327 
L 535.409167 365.664151 
L 536.256033 357.481191 
L 537.102899 354.778455 
L 537.949765 354.142479 
L 538.796631 351.939741 
L 539.643497 361.947356 
L 540.490363 363.272588 
L 541.337229 350.675043 
L 543.030961 361.515643 
L 543.877827 363.860253 
L 544.724693 349.626851 
L 545.571559 357.80911 
L 546.418425 358.087 
L 547.265291 356.869684 
L 548.112157 356.506688 
L 548.959023 356.848788 
L 549.805889 354.800974 
L 550.652755 354.811971 
L 551.499621 359.338917 
L 552.346487 358.13419 
L 553.193353 353.849782 
L 554.040219 355.156845 
L 554.887085 357.298652 
L 555.733951 353.630635 
L 556.580817 354.608303 
L 557.427683 358.130642 
L 558.274548 363.350275 
L 559.121414 362.640147 
L 559.96828 357.404868 
L 560.815146 350.741437 
L 561.662012 345.54273 
L 562.508878 355.730274 
L 563.355744 363.238591 
L 564.20261 358.755116 
L 565.049476 351.647346 
L 565.896342 357.802181 
L 566.743208 359.918194 
L 567.590074 358.923771 
L 568.43694 354.6053 
L 569.283806 352.620282 
L 570.130672 357.563884 
L 570.977538 354.28761 
L 571.824404 353.213058 
L 572.67127 356.178535 
L 574.365002 354.068294 
L 575.211868 357.824838 
L 576.058734 355.460452 
L 576.9056 354.202285 
L 577.752466 356.4251 
L 578.599332 356.679195 
L 579.446198 355.109584 
L 580.293064 354.836592 
L 581.13993 353.137894 
L 581.986796 356.486852 
L 582.833662 357.639862 
L 583.680528 353.341793 
L 584.527394 353.699468 
L 585.37426 356.791396 
L 586.221126 354.099113 
L 587.067992 355.440419 
L 587.914858 359.236722 
L 588.761724 364.474282 
L 589.60859 357.247596 
L 590.455456 353.232301 
L 591.302322 357.911396 
L 592.149188 357.948577 
L 592.996054 361.948488 
L 593.84292 365.17598 
L 594.689786 359.813654 
L 595.536652 359.772817 
L 596.383518 357.450225 
L 597.230384 360.636094 
L 598.07725 366.442158 
L 598.924116 365.388665 
L 599.770982 357.469565 
L 600.617848 357.561421 
L 601.464714 359.416613 
L 602.31158 360.151339 
L 603.158446 361.217836 
L 604.005312 368.837541 
L 604.852178 366.271886 
L 606.54591 355.15235 
L 607.392776 359.189274 
L 608.239642 360.243726 
L 609.086508 360.064957 
L 609.933374 361.8974 
L 610.78024 364.044445 
L 611.627106 364.642151 
L 612.473972 361.833511 
L 613.320838 364.027949 
L 614.167704 361.667904 
L 615.01457 363.196008 
L 615.861436 363.152389 
L 616.708302 359.622335 
L 617.555168 362.462877 
L 618.402034 366.720822 
L 619.2489 368.348614 
L 620.095766 360.838999 
L 620.942632 367.295844 
L 621.789498 362.857807 
L 622.636364 359.997648 
L 622.636364 359.997648 
" clip-path="url(#pdb2d38b325)" style="fill: none; stroke: #1f77b4; stroke-width: 1.5; stroke-linecap: square"/>
   </g>
   <g id="patch_3">
    <path d="M 90 384.48 
L 90 51.84 
" style="fill: none; stroke: #000000; stroke-width: 0.8; stroke-linejoin: miter; stroke-linecap: square"/>
   </g>
   <g id="patch_4">
    <path d="M 648 384.48 
L 648 51.84 
" style="fill: none; stroke: #000000; stroke-width: 0.8; stroke-linejoin: miter; stroke-linecap: square"/>
   </g>
   <g id="patch_5">
    <path d="M 90 384.48 
L 648 384.48 
" style="fill: none; stroke: #000000; stroke-width: 0.8; stroke-linejoin: miter; stroke-linecap: square"/>
   </g>
   <g id="patch_6">
    <path d="M 90 51.84 
L 648 51.84 
" style="fill: none; stroke: #000000; stroke-width: 0.8; stroke-linejoin: miter; stroke-linecap: square"/>
   </g>
   <g id="text_15">
    <!-- ECG Wavelet (After LMS Filtration) -->
    <g transform="translate(266.807813 45.84) scale(0.12 -0.12)">
     <defs>
      <path id="DejaVuSans-45" d="M 628 4666 
L 3578 4666 
L 3578 4134 
L 1259 4134 
L 1259 2753 
L 3481 2753 
L 3481 2222 
L 1259 2222 
L 1259 531 
L 3634 531 
L 3634 0 
L 628 0 
L 628 4666 
z
" transform="scale(0.015625)"/>
      <path id="DejaVuSans-43" d="M 4122 4306 
L 4122 3641 
Q 3803 3938 3442 4084 
Q 3081 4231 2675 4231 
Q 1875 4231 1450 3742 
Q 1025 3253 1025 2328 
Q 1025 1406 1450 917 
Q 1875 428 2675 428 
Q 3081 428 3442 575 
Q 3803 722 4122 1019 
L 4122 359 
Q 3791 134 3420 21 
Q 3050 -91 2638 -91 
Q 1578 -91 968 557 
Q 359 1206 359 2328 
Q 359 3453 968 4101 
Q 1578 4750 2638 4750 
Q 3056 4750 3426 4639 
Q 3797 4528 4122 4306 
z
" transform="scale(0.015625)"/>
      <path id="DejaVuSans-47" d="M 3809 666 
L 3809 1919 
L 2778 1919 
L 2778 2438 
L 4434 2438 
L 4434 434 
Q 4069 175 3628 42 
Q 3188 -91 2688 -91 
Q 1594 -91 976 548 
Q 359 1188 359 2328 
Q 359 3472 976 4111 
Q 1594 4750 2688 4750 
Q 3144 4750 3555 4637 
Q 3966 4525 4313 4306 
L 4313 3634 
Q 3963 3931 3569 4081 
Q 3175 4231 2741 4231 
Q 1884 4231 1454 3753 
Q 1025 3275 1025 2328 
Q 1025 1384 1454 906 
Q 1884 428 2741 428 
Q 3075 428 3337 486 
Q 3600 544 3809 666 
z
" transform="scale(0.015625)"/>
      <path id="DejaVuSans-57" d="M 213 4666 
L 850 4666 
L 1831 722 
L 2809 4666 
L 3519 4666 
L 4500 722 
L 5478 4666 
L 6119 4666 
L 4947 0 
L 4153 0 
L 3169 4050 
L 2175 0 
L 1381 0 
L 213 4666 
z
" transform="scale(0.015625)"/>
      <path id="DejaVuSans-61" d="M 2194 1759 
Q 1497 1759 1228 1600 
Q 959 1441 959 1056 
Q 959 750 1161 570 
Q 1363 391 1709 391 
Q 2188 391 2477 730 
Q 2766 1069 2766 1631 
L 2766 1759 
L 2194 1759 
z
M 3341 1997 
L 3341 0 
L 2766 0 
L 2766 531 
Q 2569 213 2275 61 
Q 1981 -91 1556 -91 
Q 1019 -91 701 211 
Q 384 513 384 1019 
Q 384 1609 779 1909 
Q 1175 2209 1959 2209 
L 2766 2209 
L 2766 2266 
Q 2766 2663 2505 2880 
Q 2244 3097 1772 3097 
Q 1472 3097 1187 3025 
Q 903 2953 641 2809 
L 641 3341 
Q 956 3463 1253 3523 
Q 1550 3584 1831 3584 
Q 2591 3584 2966 3190 
Q 3341 2797 3341 1997 
z
" transform="scale(0.015625)"/>
      <path id="DejaVuSans-76" d="M 191 3500 
L 800 3500 
L 1894 563 
L 2988 3500 
L 3597 3500 
L 2284 0 
L 1503 0 
L 191 3500 
z
" transform="scale(0.015625)"/>
      <path id="DejaVuSans-66" d="M 2375 4863 
L 2375 4384 
L 1825 4384 
Q 1516 4384 1395 4259 
Q 1275 4134 1275 3809 
L 1275 3500 
L 2222 3500 
L 2222 3053 
L 1275 3053 
L 1275 0 
L 697 0 
L 697 3053 
L 147 3053 
L 147 3500 
L 697 3500 
L 697 3744 
Q 697 4328 969 4595 
Q 1241 4863 1831 4863 
L 2375 4863 
z
" transform="scale(0.015625)"/>
      <path id="DejaVuSans-72" d="M 2631 2963 
Q 2534 3019 2420 3045 
Q 2306 3072 2169 3072 
Q 1681 3072 1420 2755 
Q 1159 2438 1159 1844 
L 1159 0 
L 581 0 
L 581 3500 
L 1159 3500 
L 1159 2956 
Q 1341 3275 1631 3429 
Q 1922 3584 2338 3584 
Q 2397 3584 2469 3576 
Q 2541 3569 2628 3553 
L 2631 2963 
z
" transform="scale(0.015625)"/>
      <path id="DejaVuSans-4c" d="M 628 4666 
L 1259 4666 
L 1259 531 
L 3531 531 
L 3531 0 
L 628 0 
L 628 4666 
z
" transform="scale(0.015625)"/>
      <path id="DejaVuSans-4d" d="M 628 4666 
L 1569 4666 
L 2759 1491 
L 3956 4666 
L 4897 4666 
L 4897 0 
L 4281 0 
L 4281 4097 
L 3078 897 
L 2444 897 
L 1241 4097 
L 1241 0 
L 628 0 
L 628 4666 
z
" transform="scale(0.015625)"/>
      <path id="DejaVuSans-53" d="M 3425 4513 
L 3425 3897 
Q 3066 4069 2747 4153 
Q 2428 4238 2131 4238 
Q 1616 4238 1336 4038 
Q 1056 3838 1056 3469 
Q 1056 3159 1242 3001 
Q 1428 2844 1947 2747 
L 2328 2669 
Q 3034 2534 3370 2195 
Q 3706 1856 3706 1288 
Q 3706 609 3251 259 
Q 2797 -91 1919 -91 
Q 1588 -91 1214 -16 
Q 841 59 441 206 
L 441 856 
Q 825 641 1194 531 
Q 1563 422 1919 422 
Q 2459 422 2753 634 
Q 3047 847 3047 1241 
Q 3047 1584 2836 1778 
Q 2625 1972 2144 2069 
L 1759 2144 
Q 1053 2284 737 2584 
Q 422 2884 422 3419 
Q 422 4038 858 4394 
Q 1294 4750 2059 4750 
Q 2388 4750 2728 4690 
Q 3069 4631 3425 4513 
z
" transform="scale(0.015625)"/>
      <path id="DejaVuSans-46" d="M 628 4666 
L 3309 4666 
L 3309 4134 
L 1259 4134 
L 1259 2759 
L 3109 2759 
L 3109 2228 
L 1259 2228 
L 1259 0 
L 628 0 
L 628 4666 
z
" transform="scale(0.015625)"/>
      <path id="DejaVuSans-6f" d="M 1959 3097 
Q 1497 3097 1228 2736 
Q 959 2375 959 1747 
Q 959 1119 1226 758 
Q 1494 397 1959 397 
Q 2419 397 2687 759 
Q 2956 1122 2956 1747 
Q 2956 2369 2687 2733 
Q 2419 3097 1959 3097 
z
M 1959 3584 
Q 2709 3584 3137 3096 
Q 3566 2609 3566 1747 
Q 3566 888 3137 398 
Q 2709 -91 1959 -91 
Q 1206 -91 779 398 
Q 353 888 353 1747 
Q 353 2609 779 3096 
Q 1206 3584 1959 3584 
z
" transform="scale(0.015625)"/>
      <path id="DejaVuSans-6e" d="M 3513 2113 
L 3513 0 
L 2938 0 
L 2938 2094 
Q 2938 2591 2744 2837 
Q 2550 3084 2163 3084 
Q 1697 3084 1428 2787 
Q 1159 2491 1159 1978 
L 1159 0 
L 581 0 
L 581 3500 
L 1159 3500 
L 1159 2956 
Q 1366 3272 1645 3428 
Q 1925 3584 2291 3584 
Q 2894 3584 3203 3211 
Q 3513 2838 3513 2113 
z
" transform="scale(0.015625)"/>
     </defs>
     <use xlink:href="#DejaVuSans-45"/>
     <use xlink:href="#DejaVuSans-43" x="63.183594"/>
     <use xlink:href="#DejaVuSans-47" x="133.007812"/>
     <use xlink:href="#DejaVuSans-20" x="210.498047"/>
     <use xlink:href="#DejaVuSans-57" x="242.285156"/>
     <use xlink:href="#DejaVuSans-61" x="334.787109"/>
     <use xlink:href="#DejaVuSans-76" x="396.066406"/>
     <use xlink:href="#DejaVuSans-65" x="455.246094"/>
     <use xlink:href="#DejaVuSans-6c" x="516.769531"/>
     <use xlink:href="#DejaVuSans-65" x="544.552734"/>
     <use xlink:href="#DejaVuSans-74" x="606.076172"/>
     <use xlink:href="#DejaVuSans-20" x="645.285156"/>
     <use xlink:href="#DejaVuSans-28" x="677.072266"/>
     <use xlink:href="#DejaVuSans-41" x="716.085938"/>
     <use xlink:href="#DejaVuSans-66" x="780.869141"/>
     <use xlink:href="#DejaVuSans-74" x="814.324219"/>
     <use xlink:href="#DejaVuSans-65" x="853.533203"/>
     <use xlink:href="#DejaVuSans-72" x="915.056641"/>
     <use xlink:href="#DejaVuSans-20" x="956.169922"/>
     <use xlink:href="#DejaVuSans-4c" x="987.957031"/>
     <use xlink:href="#DejaVuSans-4d" x="1043.669922"/>
     <use xlink:href="#DejaVuSans-53" x="1129.949219"/>
     <use xlink:href="#DejaVuSans-20" x="1193.425781"/>
     <use xlink:href="#DejaVuSans-46" x="1225.212891"/>
     <use xlink:href="#DejaVuSans-69" x="1275.482422"/>
     <use xlink:href="#DejaVuSans-6c" x="1303.265625"/>
     <use xlink:href="#DejaVuSans-74" x="1331.048828"/>
     <use xlink:href="#DejaVuSans-72" x="1370.257812"/>
     <use xlink:href="#DejaVuSans-61" x="1411.371094"/>
     <use xlink:href="#DejaVuSans-74" x="1472.650391"/>
     <use xlink:href="#DejaVuSans-69" x="1511.859375"/>
     <use xlink:href="#DejaVuSans-6f" x="1539.642578"/>
     <use xlink:href="#DejaVuSans-6e" x="1600.824219"/>
     <use xlink:href="#DejaVuSans-29" x="1664.203125"/>
    </g>
   </g>
  </g>
 </g>
 <defs>
  <clipPath id="pdb2d38b325">
   <rect x="90" y="51.84" width="558" height="332.64"/>
  </clipPath>
 </defs>
</svg>
