<?xml version="1.0" encoding="utf-8" standalone="no"?>
<!DOCTYPE svg PUBLIC "-//W3C//DTD SVG 1.1//EN"
  "http://www.w3.org/Graphics/SVG/1.1/DTD/svg11.dtd">
<svg xmlns:xlink="http://www.w3.org/1999/xlink" width="720pt" height="432pt" viewBox="0 0 720 432" xmlns="http://www.w3.org/2000/svg" version="1.1">
 <metadata>
  <rdf:RDF xmlns:dc="http://purl.org/dc/elements/1.1/" xmlns:cc="http://creativecommons.org/ns#" xmlns:rdf="http://www.w3.org/1999/02/22-rdf-syntax-ns#">
   <cc:Work>
    <dc:type rdf:resource="http://purl.org/dc/dcmitype/StillImage"/>
    <dc:date>2023-11-09T12:20:59.363734</dc:date>
    <dc:format>image/svg+xml</dc:format>
    <dc:creator>
     <cc:Agent>
      <dc:title>Matplotlib v3.8.0, https://matplotlib.org/</dc:title>
     </cc:Agent>
    </dc:creator>
   </cc:Work>
  </rdf:RDF>
 </metadata>
 <defs>
  <style type="text/css">*{stroke-linejoin: round; stroke-linecap: butt}</style>
 </defs>
 <g id="figure_1">
  <g id="patch_1">
   <path d="M 0 432 
L 720 432 
L 720 0 
L 0 0 
z
" style="fill: #ffffff"/>
  </g>
  <g id="axes_1">
   <g id="patch_2">
    <path d="M 90 384.48 
L 648 384.48 
L 648 51.84 
L 90 51.84 
z
" style="fill: #ffffff"/>
   </g>
   <g id="matplotlib.axis_1">
    <g id="xtick_1">
     <g id="line2d_1">
      <defs>
       <path id="mb00a1127cf" d="M 0 0 
L 0 3.5 
" style="stroke: #000000; stroke-width: 0.8"/>
      </defs>
      <g>
       <use xlink:href="#mb00a1127cf" x="115.363636" y="384.48" style="stroke: #000000; stroke-width: 0.8"/>
      </g>
     </g>
     <g id="text_1">
      <!-- 0 -->
      <g transform="translate(112.182386 399.078438) scale(0.1 -0.1)">
       <defs>
        <path id="DejaVuSans-30" d="M 2034 4250 
Q 1547 4250 1301 3770 
Q 1056 3291 1056 2328 
Q 1056 1369 1301 889 
Q 1547 409 2034 409 
Q 2525 409 2770 889 
Q 3016 1369 3016 2328 
Q 3016 3291 2770 3770 
Q 2525 4250 2034 4250 
z
M 2034 4750 
Q 2819 4750 3233 4129 
Q 3647 3509 3647 2328 
Q 3647 1150 3233 529 
Q 2819 -91 2034 -91 
Q 1250 -91 836 529 
Q 422 1150 422 2328 
Q 422 3509 836 4129 
Q 1250 4750 2034 4750 
z
" transform="scale(0.015625)"/>
       </defs>
       <use xlink:href="#DejaVuSans-30"/>
      </g>
     </g>
    </g>
    <g id="xtick_2">
     <g id="line2d_2">
      <g>
       <use xlink:href="#mb00a1127cf" x="199.909091" y="384.48" style="stroke: #000000; stroke-width: 0.8"/>
      </g>
     </g>
     <g id="text_2">
      <!-- 5 -->
      <g transform="translate(196.727841 399.078438) scale(0.1 -0.1)">
       <defs>
        <path id="DejaVuSans-35" d="M 691 4666 
L 3169 4666 
L 3169 4134 
L 1269 4134 
L 1269 2991 
Q 1406 3038 1543 3061 
Q 1681 3084 1819 3084 
Q 2600 3084 3056 2656 
Q 3513 2228 3513 1497 
Q 3513 744 3044 326 
Q 2575 -91 1722 -91 
Q 1428 -91 1123 -41 
Q 819 9 494 109 
L 494 744 
Q 775 591 1075 516 
Q 1375 441 1709 441 
Q 2250 441 2565 725 
Q 2881 1009 2881 1497 
Q 2881 1984 2565 2268 
Q 2250 2553 1709 2553 
Q 1456 2553 1204 2497 
Q 953 2441 691 2322 
L 691 4666 
z
" transform="scale(0.015625)"/>
       </defs>
       <use xlink:href="#DejaVuSans-35"/>
      </g>
     </g>
    </g>
    <g id="xtick_3">
     <g id="line2d_3">
      <g>
       <use xlink:href="#mb00a1127cf" x="284.454545" y="384.48" style="stroke: #000000; stroke-width: 0.8"/>
      </g>
     </g>
     <g id="text_3">
      <!-- 10 -->
      <g transform="translate(278.092045 399.078438) scale(0.1 -0.1)">
       <defs>
        <path id="DejaVuSans-31" d="M 794 531 
L 1825 531 
L 1825 4091 
L 703 3866 
L 703 4441 
L 1819 4666 
L 2450 4666 
L 2450 531 
L 3481 531 
L 3481 0 
L 794 0 
L 794 531 
z
" transform="scale(0.015625)"/>
       </defs>
       <use xlink:href="#DejaVuSans-31"/>
       <use xlink:href="#DejaVuSans-30" x="63.623047"/>
      </g>
     </g>
    </g>
    <g id="xtick_4">
     <g id="line2d_4">
      <g>
       <use xlink:href="#mb00a1127cf" x="369" y="384.48" style="stroke: #000000; stroke-width: 0.8"/>
      </g>
     </g>
     <g id="text_4">
      <!-- 15 -->
      <g transform="translate(362.6375 399.078438) scale(0.1 -0.1)">
       <use xlink:href="#DejaVuSans-31"/>
       <use xlink:href="#DejaVuSans-35" x="63.623047"/>
      </g>
     </g>
    </g>
    <g id="xtick_5">
     <g id="line2d_5">
      <g>
       <use xlink:href="#mb00a1127cf" x="453.545455" y="384.48" style="stroke: #000000; stroke-width: 0.8"/>
      </g>
     </g>
     <g id="text_5">
      <!-- 20 -->
      <g transform="translate(447.182955 399.078438) scale(0.1 -0.1)">
       <defs>
        <path id="DejaVuSans-32" d="M 1228 531 
L 3431 531 
L 3431 0 
L 469 0 
L 469 531 
Q 828 903 1448 1529 
Q 2069 2156 2228 2338 
Q 2531 2678 2651 2914 
Q 2772 3150 2772 3378 
Q 2772 3750 2511 3984 
Q 2250 4219 1831 4219 
Q 1534 4219 1204 4116 
Q 875 4013 500 3803 
L 500 4441 
Q 881 4594 1212 4672 
Q 1544 4750 1819 4750 
Q 2544 4750 2975 4387 
Q 3406 4025 3406 3419 
Q 3406 3131 3298 2873 
Q 3191 2616 2906 2266 
Q 2828 2175 2409 1742 
Q 1991 1309 1228 531 
z
" transform="scale(0.015625)"/>
       </defs>
       <use xlink:href="#DejaVuSans-32"/>
       <use xlink:href="#DejaVuSans-30" x="63.623047"/>
      </g>
     </g>
    </g>
    <g id="xtick_6">
     <g id="line2d_6">
      <g>
       <use xlink:href="#mb00a1127cf" x="538.090909" y="384.48" style="stroke: #000000; stroke-width: 0.8"/>
      </g>
     </g>
     <g id="text_6">
      <!-- 25 -->
      <g transform="translate(531.728409 399.078438) scale(0.1 -0.1)">
       <use xlink:href="#DejaVuSans-32"/>
       <use xlink:href="#DejaVuSans-35" x="63.623047"/>
      </g>
     </g>
    </g>
    <g id="xtick_7">
     <g id="line2d_7">
      <g>
       <use xlink:href="#mb00a1127cf" x="622.636364" y="384.48" style="stroke: #000000; stroke-width: 0.8"/>
      </g>
     </g>
     <g id="text_7">
      <!-- 30 -->
      <g transform="translate(616.273864 399.078438) scale(0.1 -0.1)">
       <defs>
        <path id="DejaVuSans-33" d="M 2597 2516 
Q 3050 2419 3304 2112 
Q 3559 1806 3559 1356 
Q 3559 666 3084 287 
Q 2609 -91 1734 -91 
Q 1441 -91 1130 -33 
Q 819 25 488 141 
L 488 750 
Q 750 597 1062 519 
Q 1375 441 1716 441 
Q 2309 441 2620 675 
Q 2931 909 2931 1356 
Q 2931 1769 2642 2001 
Q 2353 2234 1838 2234 
L 1294 2234 
L 1294 2753 
L 1863 2753 
Q 2328 2753 2575 2939 
Q 2822 3125 2822 3475 
Q 2822 3834 2567 4026 
Q 2313 4219 1838 4219 
Q 1578 4219 1281 4162 
Q 984 4106 628 3988 
L 628 4550 
Q 988 4650 1302 4700 
Q 1616 4750 1894 4750 
Q 2613 4750 3031 4423 
Q 3450 4097 3450 3541 
Q 3450 3153 3228 2886 
Q 3006 2619 2597 2516 
z
" transform="scale(0.015625)"/>
       </defs>
       <use xlink:href="#DejaVuSans-33"/>
       <use xlink:href="#DejaVuSans-30" x="63.623047"/>
      </g>
     </g>
    </g>
    <g id="text_8">
     <!-- Time (s) -->
     <g transform="translate(348.671094 412.756563) scale(0.1 -0.1)">
      <defs>
       <path id="DejaVuSans-54" d="M -19 4666 
L 3928 4666 
L 3928 4134 
L 2272 4134 
L 2272 0 
L 1638 0 
L 1638 4134 
L -19 4134 
L -19 4666 
z
" transform="scale(0.015625)"/>
       <path id="DejaVuSans-69" d="M 603 3500 
L 1178 3500 
L 1178 0 
L 603 0 
L 603 3500 
z
M 603 4863 
L 1178 4863 
L 1178 4134 
L 603 4134 
L 603 4863 
z
" transform="scale(0.015625)"/>
       <path id="DejaVuSans-6d" d="M 3328 2828 
Q 3544 3216 3844 3400 
Q 4144 3584 4550 3584 
Q 5097 3584 5394 3201 
Q 5691 2819 5691 2113 
L 5691 0 
L 5113 0 
L 5113 2094 
Q 5113 2597 4934 2840 
Q 4756 3084 4391 3084 
Q 3944 3084 3684 2787 
Q 3425 2491 3425 1978 
L 3425 0 
L 2847 0 
L 2847 2094 
Q 2847 2600 2669 2842 
Q 2491 3084 2119 3084 
Q 1678 3084 1418 2786 
Q 1159 2488 1159 1978 
L 1159 0 
L 581 0 
L 581 3500 
L 1159 3500 
L 1159 2956 
Q 1356 3278 1631 3431 
Q 1906 3584 2284 3584 
Q 2666 3584 2933 3390 
Q 3200 3197 3328 2828 
z
" transform="scale(0.015625)"/>
       <path id="DejaVuSans-65" d="M 3597 1894 
L 3597 1613 
L 953 1613 
Q 991 1019 1311 708 
Q 1631 397 2203 397 
Q 2534 397 2845 478 
Q 3156 559 3463 722 
L 3463 178 
Q 3153 47 2828 -22 
Q 2503 -91 2169 -91 
Q 1331 -91 842 396 
Q 353 884 353 1716 
Q 353 2575 817 3079 
Q 1281 3584 2069 3584 
Q 2775 3584 3186 3129 
Q 3597 2675 3597 1894 
z
M 3022 2063 
Q 3016 2534 2758 2815 
Q 2500 3097 2075 3097 
Q 1594 3097 1305 2825 
Q 1016 2553 972 2059 
L 3022 2063 
z
" transform="scale(0.015625)"/>
       <path id="DejaVuSans-20" transform="scale(0.015625)"/>
       <path id="DejaVuSans-28" d="M 1984 4856 
Q 1566 4138 1362 3434 
Q 1159 2731 1159 2009 
Q 1159 1288 1364 580 
Q 1569 -128 1984 -844 
L 1484 -844 
Q 1016 -109 783 600 
Q 550 1309 550 2009 
Q 550 2706 781 3412 
Q 1013 4119 1484 4856 
L 1984 4856 
z
" transform="scale(0.015625)"/>
       <path id="DejaVuSans-73" d="M 2834 3397 
L 2834 2853 
Q 2591 2978 2328 3040 
Q 2066 3103 1784 3103 
Q 1356 3103 1142 2972 
Q 928 2841 928 2578 
Q 928 2378 1081 2264 
Q 1234 2150 1697 2047 
L 1894 2003 
Q 2506 1872 2764 1633 
Q 3022 1394 3022 966 
Q 3022 478 2636 193 
Q 2250 -91 1575 -91 
Q 1294 -91 989 -36 
Q 684 19 347 128 
L 347 722 
Q 666 556 975 473 
Q 1284 391 1588 391 
Q 1994 391 2212 530 
Q 2431 669 2431 922 
Q 2431 1156 2273 1281 
Q 2116 1406 1581 1522 
L 1381 1569 
Q 847 1681 609 1914 
Q 372 2147 372 2553 
Q 372 3047 722 3315 
Q 1072 3584 1716 3584 
Q 2034 3584 2315 3537 
Q 2597 3491 2834 3397 
z
" transform="scale(0.015625)"/>
       <path id="DejaVuSans-29" d="M 513 4856 
L 1013 4856 
Q 1481 4119 1714 3412 
Q 1947 2706 1947 2009 
Q 1947 1309 1714 600 
Q 1481 -109 1013 -844 
L 513 -844 
Q 928 -128 1133 580 
Q 1338 1288 1338 2009 
Q 1338 2731 1133 3434 
Q 928 4138 513 4856 
z
" transform="scale(0.015625)"/>
      </defs>
      <use xlink:href="#DejaVuSans-54"/>
      <use xlink:href="#DejaVuSans-69" x="57.958984"/>
      <use xlink:href="#DejaVuSans-6d" x="85.742188"/>
      <use xlink:href="#DejaVuSans-65" x="183.154297"/>
      <use xlink:href="#DejaVuSans-20" x="244.677734"/>
      <use xlink:href="#DejaVuSans-28" x="276.464844"/>
      <use xlink:href="#DejaVuSans-73" x="315.478516"/>
      <use xlink:href="#DejaVuSans-29" x="367.578125"/>
     </g>
    </g>
   </g>
   <g id="matplotlib.axis_2">
    <g id="ytick_1">
     <g id="line2d_8">
      <defs>
       <path id="m2d9a2c83c2" d="M 0 0 
L -3.5 0 
" style="stroke: #000000; stroke-width: 0.8"/>
      </defs>
      <g>
       <use xlink:href="#m2d9a2c83c2" x="90" y="369.36" style="stroke: #000000; stroke-width: 0.8"/>
      </g>
     </g>
     <g id="text_9">
      <!-- 0 -->
      <g transform="translate(76.6375 373.159219) scale(0.1 -0.1)">
       <use xlink:href="#DejaVuSans-30"/>
      </g>
     </g>
    </g>
    <g id="ytick_2">
     <g id="line2d_9">
      <g>
       <use xlink:href="#m2d9a2c83c2" x="90" y="330.332783" style="stroke: #000000; stroke-width: 0.8"/>
      </g>
     </g>
     <g id="text_10">
      <!-- 20 -->
      <g transform="translate(70.275 334.132001) scale(0.1 -0.1)">
       <use xlink:href="#DejaVuSans-32"/>
       <use xlink:href="#DejaVuSans-30" x="63.623047"/>
      </g>
     </g>
    </g>
    <g id="ytick_3">
     <g id="line2d_10">
      <g>
       <use xlink:href="#m2d9a2c83c2" x="90" y="291.305565" style="stroke: #000000; stroke-width: 0.8"/>
      </g>
     </g>
     <g id="text_11">
      <!-- 40 -->
      <g transform="translate(70.275 295.104784) scale(0.1 -0.1)">
       <defs>
        <path id="DejaVuSans-34" d="M 2419 4116 
L 825 1625 
L 2419 1625 
L 2419 4116 
z
M 2253 4666 
L 3047 4666 
L 3047 1625 
L 3713 1625 
L 3713 1100 
L 3047 1100 
L 3047 0 
L 2419 0 
L 2419 1100 
L 313 1100 
L 313 1709 
L 2253 4666 
z
" transform="scale(0.015625)"/>
       </defs>
       <use xlink:href="#DejaVuSans-34"/>
       <use xlink:href="#DejaVuSans-30" x="63.623047"/>
      </g>
     </g>
    </g>
    <g id="ytick_4">
     <g id="line2d_11">
      <g>
       <use xlink:href="#m2d9a2c83c2" x="90" y="252.278348" style="stroke: #000000; stroke-width: 0.8"/>
      </g>
     </g>
     <g id="text_12">
      <!-- 60 -->
      <g transform="translate(70.275 256.077567) scale(0.1 -0.1)">
       <defs>
        <path id="DejaVuSans-36" d="M 2113 2584 
Q 1688 2584 1439 2293 
Q 1191 2003 1191 1497 
Q 1191 994 1439 701 
Q 1688 409 2113 409 
Q 2538 409 2786 701 
Q 3034 994 3034 1497 
Q 3034 2003 2786 2293 
Q 2538 2584 2113 2584 
z
M 3366 4563 
L 3366 3988 
Q 3128 4100 2886 4159 
Q 2644 4219 2406 4219 
Q 1781 4219 1451 3797 
Q 1122 3375 1075 2522 
Q 1259 2794 1537 2939 
Q 1816 3084 2150 3084 
Q 2853 3084 3261 2657 
Q 3669 2231 3669 1497 
Q 3669 778 3244 343 
Q 2819 -91 2113 -91 
Q 1303 -91 875 529 
Q 447 1150 447 2328 
Q 447 3434 972 4092 
Q 1497 4750 2381 4750 
Q 2619 4750 2861 4703 
Q 3103 4656 3366 4563 
z
" transform="scale(0.015625)"/>
       </defs>
       <use xlink:href="#DejaVuSans-36"/>
       <use xlink:href="#DejaVuSans-30" x="63.623047"/>
      </g>
     </g>
    </g>
    <g id="ytick_5">
     <g id="line2d_12">
      <g>
       <use xlink:href="#m2d9a2c83c2" x="90" y="213.251131" style="stroke: #000000; stroke-width: 0.8"/>
      </g>
     </g>
     <g id="text_13">
      <!-- 80 -->
      <g transform="translate(70.275 217.050349) scale(0.1 -0.1)">
       <defs>
        <path id="DejaVuSans-38" d="M 2034 2216 
Q 1584 2216 1326 1975 
Q 1069 1734 1069 1313 
Q 1069 891 1326 650 
Q 1584 409 2034 409 
Q 2484 409 2743 651 
Q 3003 894 3003 1313 
Q 3003 1734 2745 1975 
Q 2488 2216 2034 2216 
z
M 1403 2484 
Q 997 2584 770 2862 
Q 544 3141 544 3541 
Q 544 4100 942 4425 
Q 1341 4750 2034 4750 
Q 2731 4750 3128 4425 
Q 3525 4100 3525 3541 
Q 3525 3141 3298 2862 
Q 3072 2584 2669 2484 
Q 3125 2378 3379 2068 
Q 3634 1759 3634 1313 
Q 3634 634 3220 271 
Q 2806 -91 2034 -91 
Q 1263 -91 848 271 
Q 434 634 434 1313 
Q 434 1759 690 2068 
Q 947 2378 1403 2484 
z
M 1172 3481 
Q 1172 3119 1398 2916 
Q 1625 2713 2034 2713 
Q 2441 2713 2670 2916 
Q 2900 3119 2900 3481 
Q 2900 3844 2670 4047 
Q 2441 4250 2034 4250 
Q 1625 4250 1398 4047 
Q 1172 3844 1172 3481 
z
" transform="scale(0.015625)"/>
       </defs>
       <use xlink:href="#DejaVuSans-38"/>
       <use xlink:href="#DejaVuSans-30" x="63.623047"/>
      </g>
     </g>
    </g>
    <g id="ytick_6">
     <g id="line2d_13">
      <g>
       <use xlink:href="#m2d9a2c83c2" x="90" y="174.223913" style="stroke: #000000; stroke-width: 0.8"/>
      </g>
     </g>
     <g id="text_14">
      <!-- 100 -->
      <g transform="translate(63.9125 178.023132) scale(0.1 -0.1)">
       <use xlink:href="#DejaVuSans-31"/>
       <use xlink:href="#DejaVuSans-30" x="63.623047"/>
       <use xlink:href="#DejaVuSans-30" x="127.246094"/>
      </g>
     </g>
    </g>
    <g id="ytick_7">
     <g id="line2d_14">
      <g>
       <use xlink:href="#m2d9a2c83c2" x="90" y="135.196696" style="stroke: #000000; stroke-width: 0.8"/>
      </g>
     </g>
     <g id="text_15">
      <!-- 120 -->
      <g transform="translate(63.9125 138.995915) scale(0.1 -0.1)">
       <use xlink:href="#DejaVuSans-31"/>
       <use xlink:href="#DejaVuSans-32" x="63.623047"/>
       <use xlink:href="#DejaVuSans-30" x="127.246094"/>
      </g>
     </g>
    </g>
    <g id="ytick_8">
     <g id="line2d_15">
      <g>
       <use xlink:href="#m2d9a2c83c2" x="90" y="96.169479" style="stroke: #000000; stroke-width: 0.8"/>
      </g>
     </g>
     <g id="text_16">
      <!-- 140 -->
      <g transform="translate(63.9125 99.968698) scale(0.1 -0.1)">
       <use xlink:href="#DejaVuSans-31"/>
       <use xlink:href="#DejaVuSans-34" x="63.623047"/>
       <use xlink:href="#DejaVuSans-30" x="127.246094"/>
      </g>
     </g>
    </g>
    <g id="ytick_9">
     <g id="line2d_16">
      <g>
       <use xlink:href="#m2d9a2c83c2" x="90" y="57.142261" style="stroke: #000000; stroke-width: 0.8"/>
      </g>
     </g>
     <g id="text_17">
      <!-- 160 -->
      <g transform="translate(63.9125 60.94148) scale(0.1 -0.1)">
       <use xlink:href="#DejaVuSans-31"/>
       <use xlink:href="#DejaVuSans-36" x="63.623047"/>
       <use xlink:href="#DejaVuSans-30" x="127.246094"/>
      </g>
     </g>
    </g>
    <g id="text_18">
     <!-- Amplitude -->
     <g transform="translate(57.832812 243.782656) rotate(-90) scale(0.1 -0.1)">
      <defs>
       <path id="DejaVuSans-41" d="M 2188 4044 
L 1331 1722 
L 3047 1722 
L 2188 4044 
z
M 1831 4666 
L 2547 4666 
L 4325 0 
L 3669 0 
L 3244 1197 
L 1141 1197 
L 716 0 
L 50 0 
L 1831 4666 
z
" transform="scale(0.015625)"/>
       <path id="DejaVuSans-70" d="M 1159 525 
L 1159 -1331 
L 581 -1331 
L 581 3500 
L 1159 3500 
L 1159 2969 
Q 1341 3281 1617 3432 
Q 1894 3584 2278 3584 
Q 2916 3584 3314 3078 
Q 3713 2572 3713 1747 
Q 3713 922 3314 415 
Q 2916 -91 2278 -91 
Q 1894 -91 1617 61 
Q 1341 213 1159 525 
z
M 3116 1747 
Q 3116 2381 2855 2742 
Q 2594 3103 2138 3103 
Q 1681 3103 1420 2742 
Q 1159 2381 1159 1747 
Q 1159 1113 1420 752 
Q 1681 391 2138 391 
Q 2594 391 2855 752 
Q 3116 1113 3116 1747 
z
" transform="scale(0.015625)"/>
       <path id="DejaVuSans-6c" d="M 603 4863 
L 1178 4863 
L 1178 0 
L 603 0 
L 603 4863 
z
" transform="scale(0.015625)"/>
       <path id="DejaVuSans-74" d="M 1172 4494 
L 1172 3500 
L 2356 3500 
L 2356 3053 
L 1172 3053 
L 1172 1153 
Q 1172 725 1289 603 
Q 1406 481 1766 481 
L 2356 481 
L 2356 0 
L 1766 0 
Q 1100 0 847 248 
Q 594 497 594 1153 
L 594 3053 
L 172 3053 
L 172 3500 
L 594 3500 
L 594 4494 
L 1172 4494 
z
" transform="scale(0.015625)"/>
       <path id="DejaVuSans-75" d="M 544 1381 
L 544 3500 
L 1119 3500 
L 1119 1403 
Q 1119 906 1312 657 
Q 1506 409 1894 409 
Q 2359 409 2629 706 
Q 2900 1003 2900 1516 
L 2900 3500 
L 3475 3500 
L 3475 0 
L 2900 0 
L 2900 538 
Q 2691 219 2414 64 
Q 2138 -91 1772 -91 
Q 1169 -91 856 284 
Q 544 659 544 1381 
z
M 1991 3584 
L 1991 3584 
z
" transform="scale(0.015625)"/>
       <path id="DejaVuSans-64" d="M 2906 2969 
L 2906 4863 
L 3481 4863 
L 3481 0 
L 2906 0 
L 2906 525 
Q 2725 213 2448 61 
Q 2172 -91 1784 -91 
Q 1150 -91 751 415 
Q 353 922 353 1747 
Q 353 2572 751 3078 
Q 1150 3584 1784 3584 
Q 2172 3584 2448 3432 
Q 2725 3281 2906 2969 
z
M 947 1747 
Q 947 1113 1208 752 
Q 1469 391 1925 391 
Q 2381 391 2643 752 
Q 2906 1113 2906 1747 
Q 2906 2381 2643 2742 
Q 2381 3103 1925 3103 
Q 1469 3103 1208 2742 
Q 947 2381 947 1747 
z
" transform="scale(0.015625)"/>
      </defs>
      <use xlink:href="#DejaVuSans-41"/>
      <use xlink:href="#DejaVuSans-6d" x="68.408203"/>
      <use xlink:href="#DejaVuSans-70" x="165.820312"/>
      <use xlink:href="#DejaVuSans-6c" x="229.296875"/>
      <use xlink:href="#DejaVuSans-69" x="257.080078"/>
      <use xlink:href="#DejaVuSans-74" x="284.863281"/>
      <use xlink:href="#DejaVuSans-75" x="324.072266"/>
      <use xlink:href="#DejaVuSans-64" x="387.451172"/>
      <use xlink:href="#DejaVuSans-65" x="450.927734"/>
     </g>
    </g>
   </g>
   <g id="line2d_17">
    <path d="M 115.363636 369.36 
L 284.984381 369.248914 
L 288.518499 368.912232 
L 289.110337 368.520675 
L 289.600717 368.219625 
L 290.260194 368.580381 
L 290.682935 369.068067 
L 291.054947 369.318853 
L 291.460779 369.358608 
L 291.951159 369.253157 
L 292.120256 369.097272 
L 292.154075 369.141911 
L 292.306262 369.355463 
L 292.340081 369.31288 
L 292.526087 368.655167 
L 292.779732 368.127866 
L 292.88119 368.122996 
L 292.8981 368.143772 
L 293.303931 368.971486 
L 293.540667 369.358253 
L 293.642124 369.212295 
L 293.828131 368.501334 
L 294.115595 366.586051 
L 294.453788 364.775613 
L 294.589065 364.862273 
L 294.724342 365.588164 
L 295.417638 369.359182 
L 295.451457 369.341715 
L 295.637464 369.017074 
L 296.060205 368.314079 
L 296.33076 368.711281 
L 296.702772 369.320184 
L 297.159333 369.328812 
L 297.311519 369.12617 
L 297.970996 367.357206 
L 298.309189 365.99305 
L 298.545924 365.619845 
L 298.562834 365.652061 
L 298.816479 366.383709 
L 299.391407 369.353421 
L 299.475955 369.290074 
L 299.611232 368.748294 
L 299.881787 366.05793 
L 300.23689 362.742912 
L 300.287619 362.742375 
L 300.304528 362.824606 
L 300.490535 364.196126 
L 300.947095 369.359999 
L 301.014734 369.22042 
L 301.166921 368.128997 
L 301.69112 363.603823 
L 301.741849 363.595629 
L 301.758759 363.684911 
L 302.029313 365.466112 
L 302.299868 368.464765 
L 302.401325 369.359836 
L 302.435145 369.196689 
L 302.502783 367.247965 
L 302.604241 356.097665 
L 302.739519 305.926145 
L 303.043892 102.363125 
L 303.128441 134.106096 
L 303.585001 367.063924 
L 303.686459 369.355882 
L 303.737188 369.171799 
L 304.345936 364.551589 
L 304.396665 364.631673 
L 304.531942 365.261887 
L 305.073051 369.359813 
L 305.12378 369.288278 
L 305.242147 368.485316 
L 305.445063 365.277762 
L 305.749437 361.870548 
L 305.800166 361.826604 
L 305.850895 361.909224 
L 305.986172 362.952243 
L 306.510372 369.1016 
L 306.645649 369.358746 
L 306.679468 369.331915 
L 306.814745 368.913257 
L 307.000752 367.88351 
L 307.288216 366.603762 
L 307.338945 366.63824 
L 307.423493 366.753272 
L 307.55877 367.114887 
L 308.099879 368.595496 
L 308.302795 368.7568 
L 308.421163 368.584623 
L 308.624078 367.670115 
L 308.877723 366.78926 
L 309.013 366.134932 
L 309.841574 360.348598 
L 309.909212 360.474181 
L 310.162857 361.766619 
L 310.382682 364.24344 
L 310.754695 368.311716 
L 311.025249 369.359655 
L 311.109798 369.241622 
L 311.397262 368.053809 
L 311.600178 367.726303 
L 311.752364 368.160449 
L 312.022919 369.359447 
L 312.107467 369.063427 
L 312.242744 367.439621 
L 312.95295 356.778411 
L 312.96986 356.815696 
L 313.071318 357.034094 
L 313.392601 360.314318 
L 313.544788 363.428352 
L 313.781523 369.355946 
L 313.815342 368.912037 
L 313.899891 362.727226 
L 314.018258 329.915839 
L 314.339542 151.464422 
L 314.42409 178.451538 
L 314.846831 368.356305 
L 314.89756 369.352007 
L 314.965199 368.645348 
L 315.38794 361.281142 
L 315.42176 361.221889 
L 315.641585 360.196575 
L 315.658495 360.228924 
L 315.776862 360.548293 
L 316.047417 364.052435 
L 316.470158 369.3405 
L 316.503977 369.356955 
L 316.537797 369.29926 
L 316.639255 368.683758 
L 317.045086 365.351687 
L 317.095815 365.370223 
L 317.34946 366.777083 
L 317.789111 369.358814 
L 317.806021 369.349434 
L 317.907479 369.129271 
L 318.076575 368.048251 
L 318.516226 364.239485 
L 318.617684 364.402708 
L 318.736052 364.847985 
L 319.32789 367.316033 
L 319.480077 367.660852 
L 319.530806 367.619627 
L 319.682992 367.099349 
L 320.004276 365.820114 
L 320.156463 365.452357 
L 320.596114 363.120624 
L 321.035765 360.167117 
L 321.052674 360.20149 
L 321.373958 362.166453 
L 322.084163 369.152062 
L 322.219441 369.355225 
L 322.25326 369.320437 
L 322.371628 368.926253 
L 322.74364 367.655317 
L 322.828188 367.632432 
L 322.845098 367.642803 
L 322.997285 368.24168 
L 323.21711 369.359962 
L 323.267839 369.28103 
L 323.403116 368.254811 
L 324.147141 360.589902 
L 324.180961 360.641501 
L 324.265509 360.942528 
L 324.637521 365.081476 
L 324.908076 369.355646 
L 324.958805 368.672229 
L 325.043353 363.183445 
L 325.161721 335.952443 
L 325.347727 220.41734 
L 325.499914 147.089742 
L 325.533733 149.571733 
L 325.635191 197.236134 
L 325.973384 361.528423 
L 326.142481 369.345806 
L 326.15939 369.357364 
L 326.1763 369.316393 
L 326.311577 368.06098 
L 326.615951 365.959091 
L 326.751228 365.634233 
L 326.785047 365.748477 
L 327.004873 366.757721 
L 327.444524 369.359527 
L 327.512163 369.222889 
L 327.664349 367.992338 
L 327.901085 363.528359 
L 328.154729 359.538001 
L 328.239278 359.268647 
L 328.290007 359.384286 
L 328.357645 359.541656 
L 328.543651 361.715248 
L 329.050941 368.642744 
L 329.287676 369.351446 
L 329.389134 369.30634 
L 329.57514 368.801663 
L 329.828785 368.375271 
L 330.133159 368.862877 
L 330.403713 369.263073 
L 330.708087 369.338712 
L 330.894093 369.204452 
L 331.621209 367.453232 
L 331.857944 366.416529 
L 332.263775 364.485663 
L 332.280685 364.501398 
L 332.53433 365.329543 
L 333.261445 369.359315 
L 333.278355 369.350632 
L 333.396722 369.067513 
L 333.616548 367.647512 
L 333.870193 366.557994 
L 333.971651 366.522485 
L 334.00547 366.568145 
L 334.140747 366.969315 
L 334.51276 369.359465 
L 334.546579 369.313636 
L 334.648037 368.762571 
L 334.952411 364.783479 
L 335.290604 361.735012 
L 335.375152 361.592694 
L 335.408971 361.641913 
L 335.4597 361.806188 
L 335.662616 363.409757 
L 336.000809 367.895588 
L 336.119177 369.358456 
L 336.152996 369.188068 
L 336.220635 367.057399 
L 336.322093 354.669527 
L 336.45737 304.108289 
L 336.727924 165.662739 
L 336.778653 174.645325 
L 336.94775 276.815397 
L 337.184485 363.115167 
L 337.336672 369.357766 
L 337.353581 369.337953 
L 337.455039 368.284929 
L 337.810142 364.494723 
L 337.979239 364.018738 
L 338.029968 364.055416 
L 338.182155 364.40794 
L 338.38507 366.162846 
L 338.757083 369.341881 
L 338.807812 369.350395 
L 338.841631 369.29172 
L 338.959999 368.591524 
L 339.179824 365.497611 
L 339.39965 363.748819 
L 339.433469 363.712037 
L 339.467288 363.800265 
L 339.484198 363.79353 
L 339.551837 364.031141 
L 339.720933 365.396153 
L 340.160584 369.2307 
L 340.295861 369.352975 
L 340.312771 369.341856 
L 340.431139 369.075822 
L 340.634054 367.973324 
L 340.938428 366.262375 
L 340.955338 366.283786 
L 341.175163 366.619904 
L 341.530266 367.716585 
L 341.868459 368.556437 
L 342.020646 368.655054 
L 342.037556 368.639325 
L 342.189743 368.194259 
L 343.018316 364.287162 
L 343.610154 361.219682 
L 343.643973 361.283687 
L 343.660883 361.276789 
L 343.677792 361.327807 
L 344.151263 364.17933 
L 344.675462 369.130551 
L 344.844558 369.353809 
L 344.861468 369.339276 
L 345.030565 368.938277 
L 345.318029 368.439812 
L 345.351848 368.424053 
L 345.385667 368.487742 
L 345.554764 368.988544 
L 345.706951 369.357038 
L 345.74077 369.306329 
L 345.842228 368.740675 
L 346.062054 365.928899 
L 346.72153 356.193752 
L 346.806078 356.559893 
L 347.042814 360.206167 
L 347.313368 365.378631 
L 347.499374 369.354225 
L 347.550103 368.763973 
L 347.634651 362.370577 
L 347.753019 331.734733 
L 348.057393 193.99508 
L 348.125031 208.881667 
L 348.615411 369.293697 
L 348.632321 369.359204 
L 348.66614 369.202531 
L 348.835237 366.31704 
L 349.139611 363.043326 
L 349.342527 362.221542 
L 349.410165 362.493781 
L 349.6469 364.678174 
L 350.188009 369.359094 
L 350.272558 369.166084 
L 350.407835 367.985128 
L 350.779847 364.305783 
L 350.796757 364.310526 
L 350.948944 364.471378 
L 351.101131 365.807034 
L 351.490053 369.291801 
L 351.60842 369.34817 
L 351.62533 369.336089 
L 351.726788 369.14329 
L 352.048071 367.65324 
L 352.403174 366.500087 
L 352.420084 366.513042 
L 353.028831 368.321117 
L 353.09647 368.217195 
L 353.434663 367.297561 
L 353.553031 367.459815 
L 353.620669 367.497859 
L 353.654488 367.467446 
L 353.891224 366.768273 
L 354.466152 363.964511 
L 354.855074 364.923082 
L 355.159448 366.569148 
L 355.582189 369.359957 
L 355.599099 369.353618 
L 355.700557 369.099853 
L 355.920382 367.967806 
L 356.207846 366.716305 
L 356.309304 366.78324 
L 356.326214 366.736906 
L 356.343124 366.664387 
L 356.410762 366.782441 
L 356.562949 367.712238 
L 356.850413 369.351114 
L 356.934961 369.298521 
L 357.053329 368.81062 
L 357.222426 366.530961 
L 357.47607 363.756915 
L 357.49298 363.815964 
L 357.543709 363.904361 
L 357.814264 365.120609 
L 358.304643 368.294813 
L 358.406101 369.355199 
L 358.45683 369.030771 
L 358.541379 365.608603 
L 358.659746 348.558778 
L 358.811933 284.586777 
L 359.048668 172.439643 
L 359.082488 176.372452 
L 359.200855 233.316346 
L 359.505229 360.028426 
L 359.691235 369.24152 
L 359.725054 369.359999 
L 359.775783 369.190061 
L 360.181615 367.356317 
L 360.215434 367.346831 
L 360.249254 367.408878 
L 360.536718 367.94997 
L 360.959459 369.356494 
L 361.044008 369.307584 
L 361.213104 368.45345 
L 361.466749 364.439373 
L 361.804942 360.781221 
L 361.88949 360.735941 
L 362.075496 362.083228 
L 362.261503 365.121299 
L 362.582786 368.76973 
L 362.785702 369.359641 
L 362.87025 369.26306 
L 363.005527 368.815394 
L 363.36063 367.611985 
L 363.37754 367.62582 
L 363.478998 367.735424 
L 363.783372 368.02329 
L 363.834101 367.960128 
L 364.070836 367.013853 
L 364.239932 366.575871 
L 364.34139 366.595959 
L 364.3583 366.622086 
L 364.459758 366.661917 
L 364.493577 366.610268 
L 364.561216 366.524442 
L 364.81486 365.686922 
L 364.983957 364.994885 
L 365.406698 362.830208 
L 365.423608 362.855008 
L 365.457427 362.858211 
L 365.474337 362.92181 
L 366.099994 366.200318 
L 366.438187 368.86419 
L 366.658013 369.358383 
L 366.77638 369.173658 
L 367.063845 368.519089 
L 367.080754 368.528803 
L 367.317489 368.988617 
L 367.503496 369.358713 
L 367.520405 369.348036 
L 367.604953 369.100394 
L 367.723321 368.098438 
L 367.960056 363.926073 
L 368.365888 357.810442 
L 368.585713 356.142099 
L 368.602623 356.0601 
L 368.653352 356.218213 
L 368.923907 359.89134 
L 369.279009 369.357331 
L 369.346648 367.902925 
L 369.448106 355.909909 
L 369.600293 297.211518 
L 369.820118 200.896204 
L 369.870847 207.24018 
L 370.023034 281.065858 
L 370.276679 364.957583 
L 370.411956 369.359508 
L 370.428866 369.312398 
L 370.530324 368.038814 
L 370.851607 364.41875 
L 371.054523 364.586115 
L 371.122162 364.753314 
L 371.460355 366.034951 
L 371.883096 369.359666 
L 371.933825 369.291266 
L 372.035283 368.715807 
L 372.20438 366.261798 
L 372.508753 362.296196 
L 372.576392 362.24406 
L 372.593302 362.297953 
L 372.931495 364.450425 
L 373.489513 369.22562 
L 373.607881 369.354417 
L 373.6417 369.322608 
L 373.776977 368.981969 
L 374.064442 368.297224 
L 374.250448 368.194312 
L 374.436454 367.77163 
L 374.723918 366.591908 
L 374.740828 366.60162 
L 374.774647 366.70035 
L 374.859195 366.668513 
L 374.977563 366.761861 
L 375.011382 366.759523 
L 375.028292 366.695167 
L 375.231208 366.555364 
L 375.366485 366.676729 
L 375.484853 366.665223 
L 375.58631 366.582396 
L 375.873775 365.670299 
L 376.009052 365.490333 
L 376.059781 365.651835 
L 376.211968 366.469412 
L 376.955992 369.355117 
L 377.05745 369.276374 
L 377.209637 368.693196 
L 377.497101 367.66174 
L 377.700017 367.88515 
L 377.818385 368.337937 
L 378.05512 369.359641 
L 378.07203 369.35507 
L 378.156578 369.10369 
L 378.308765 367.683577 
L 378.579319 363.627923 
L 378.849874 360.468179 
L 379.002061 359.807818 
L 379.01897 359.757768 
L 379.069699 359.928093 
L 379.137338 360.111676 
L 379.475531 363.246353 
L 379.746085 369.359931 
L 379.796814 368.734478 
L 379.898272 361.626255 
L 380.01664 333.553205 
L 380.321014 196.976717 
L 380.405562 212.950099 
L 380.895942 369.301526 
L 380.912852 369.359968 
L 380.946671 369.191326 
L 381.521599 363.882236 
L 381.538509 363.887232 
L 381.639967 363.685869 
L 381.673786 363.737024 
L 381.809063 364.455025 
L 382.48545 369.359919 
L 382.519269 369.341056 
L 382.603817 369.035009 
L 382.840552 366.881509 
L 383.026558 365.911988 
L 383.144926 366.076362 
L 383.178745 366.029583 
L 383.212565 365.994174 
L 383.246384 366.037816 
L 383.787493 369.121272 
L 383.93968 369.358228 
L 383.990409 369.283513 
L 384.091867 368.866762 
L 384.43006 367.08584 
L 384.446969 367.093878 
L 384.480789 367.051972 
L 385.106446 364.428699 
L 385.123356 364.493709 
L 385.224814 364.655314 
L 385.258633 364.627696 
L 385.309362 364.758428 
L 385.39391 364.905235 
L 385.427729 364.783748 
L 385.715194 363.931897 
L 385.782832 363.854278 
L 386.002658 363.172253 
L 386.290122 362.273316 
L 386.37467 362.481065 
L 387.35543 369.124617 
L 387.524527 369.355561 
L 387.541436 369.346703 
L 387.710533 369.103792 
L 387.947268 368.780226 
L 388.3531 369.358189 
L 388.370009 369.348808 
L 388.454558 369.093059 
L 388.572925 368.181964 
L 388.911118 362.861876 
L 389.181673 360.629927 
L 389.31695 360.057001 
L 389.418408 360.315478 
L 389.773511 362.967362 
L 389.993336 367.348435 
L 390.111704 369.359074 
L 390.162433 368.770277 
L 390.246981 363.210008 
L 390.365349 336.523111 
L 390.686632 200.585089 
L 390.77118 222.639864 
L 391.177012 367.482472 
L 391.27847 369.3555 
L 391.329199 369.038523 
L 391.78576 364.970609 
L 391.904127 364.762521 
L 391.937946 364.630145 
L 392.022495 364.733233 
L 392.123953 365.155514 
L 392.681971 369.359866 
L 392.766519 369.200962 
L 392.901797 368.170943 
L 393.459815 362.255188 
L 393.510544 362.40025 
L 393.814918 364.352683 
L 394.22075 368.659302 
L 394.474395 369.348819 
L 394.592762 369.30574 
L 394.795678 368.773421 
L 395.218419 367.204297 
L 395.319877 367.320475 
L 395.370606 367.425566 
L 395.607341 368.164108 
L 395.759528 368.354487 
L 395.776438 368.339119 
L 395.962444 368.252892 
L 396.266818 367.741801 
L 396.503553 368.107004 
L 396.774108 368.941757 
L 397.027752 369.300125 
L 397.16303 369.344754 
L 397.179939 369.327342 
L 397.399765 368.894963 
L 397.65341 367.886993 
L 397.991603 366.101903 
L 398.059241 366.185394 
L 398.194519 366.492415 
L 398.667989 369.357896 
L 398.769447 368.983586 
L 398.955453 366.893795 
L 399.412014 361.63849 
L 399.530381 361.528419 
L 399.564201 361.623936 
L 399.665659 362.300597 
L 400.240587 369.357577 
L 400.291316 368.80046 
L 400.375864 363.448612 
L 400.494232 335.510314 
L 400.815515 183.376948 
L 400.900063 207.766014 
L 401.322805 368.580066 
L 401.373534 369.349727 
L 401.441172 368.833451 
L 401.965372 361.675178 
L 402.04992 361.434765 
L 402.117558 361.476762 
L 402.219016 361.815397 
L 402.5403 365.507666 
L 402.895403 369.260753 
L 402.963041 369.357943 
L 402.996861 369.303056 
L 403.115228 368.589732 
L 403.470331 365.938793 
L 403.605608 365.983356 
L 403.757795 366.735458 
L 404.197446 369.283946 
L 404.349633 369.339629 
L 404.48491 369.082098 
L 404.670916 368.327536 
L 404.890742 366.306432 
L 405.161296 363.8785 
L 405.195116 363.93123 
L 405.668586 364.279444 
L 405.753134 364.266732 
L 405.770044 364.293153 
L 406.361882 365.096865 
L 406.497159 365.130388 
L 406.818442 366.790986 
L 407.308822 369.244603 
L 407.477919 369.348329 
L 407.647016 369.117707 
L 407.951389 368.702827 
L 408.137395 368.728893 
L 408.306492 369.097389 
L 408.441769 369.35985 
L 408.475589 369.328446 
L 408.560137 368.958871 
L 408.712324 367.066586 
L 409.337981 357.857804 
L 409.354891 357.828844 
L 409.40562 357.948914 
L 409.439439 358.030179 
L 409.709993 360.12805 
L 409.87909 362.296196 
L 410.183464 369.345988 
L 410.251102 368.19085 
L 410.335651 360.177707 
L 410.470928 316.47994 
L 410.741482 188.556256 
L 410.792211 197.683722 
L 410.995127 313.49236 
L 411.214953 367.752281 
L 411.299501 369.349334 
L 411.35023 368.865538 
L 411.975887 359.828376 
L 412.077345 359.970374 
L 412.280261 361.816131 
L 412.889008 369.358584 
L 412.939737 369.302302 
L 413.041195 368.69637 
L 413.379388 365.880092 
L 413.396298 365.889928 
L 413.751401 367.075731 
L 414.25869 369.359741 
L 414.29251 369.340045 
L 414.427787 369.015256 
L 414.613793 367.754765 
L 414.816709 365.263693 
L 415.104173 362.314091 
L 415.121083 362.325211 
L 416.389307 365.654854 
L 417.099512 369.186996 
L 417.251699 369.353907 
L 417.268609 369.340753 
L 417.420796 369.001223 
L 417.877357 367.127672 
L 417.928085 367.228448 
L 418.19864 368.296552 
L 418.452285 369.359882 
L 418.469194 369.351756 
L 418.553743 369.030117 
L 418.739749 366.865414 
L 419.348496 360.688788 
L 419.399225 360.599307 
L 419.449954 360.692502 
L 419.585232 361.49392 
L 419.788147 363.642823 
L 420.092521 369.358772 
L 420.14325 368.647314 
L 420.227799 362.067702 
L 420.346166 329.120765 
L 420.66745 138.730863 
L 420.768907 173.541633 
L 421.15783 365.459992 
L 421.276197 369.358065 
L 421.310016 369.22615 
L 421.479113 366.475213 
L 421.766577 363.595305 
L 421.952583 362.250621 
L 421.986403 362.331813 
L 422.070951 362.55299 
L 422.358415 366.095484 
L 422.730427 369.357594 
L 422.798066 369.264002 
L 422.950253 368.180174 
L 423.356085 364.604401 
L 423.423723 364.772493 
L 423.626639 365.89671 
L 424.117019 369.335133 
L 424.252296 369.30772 
L 424.455212 368.81283 
L 424.759586 367.113446 
L 425.097779 364.762581 
L 425.114689 364.775566 
L 425.858713 365.948521 
L 426.0109 366.12441 
L 426.51819 367.172283 
L 427.194576 369.358594 
L 427.296034 369.257536 
L 427.448221 368.592078 
L 427.803324 366.670074 
L 427.837143 366.736206 
L 428.226065 368.08659 
L 428.49662 369.356346 
L 428.530439 369.291011 
L 428.648806 368.429233 
L 429.359012 361.551967 
L 429.426651 361.477836 
L 429.46047 361.56631 
L 429.731024 363.360154 
L 429.95085 367.222027 
L 430.086127 369.359724 
L 430.119946 369.097328 
L 430.187585 365.994354 
L 430.289043 348.464028 
L 430.44123 268.56845 
L 430.661055 145.30525 
L 430.694875 149.875743 
L 430.813242 215.386543 
L 431.117616 362.606917 
L 431.252893 369.347567 
L 431.286713 369.239175 
L 431.438899 366.510948 
L 431.709454 363.306892 
L 431.929279 362.317225 
L 431.946189 362.335783 
L 432.115286 363.265072 
L 432.352021 365.817875 
L 432.724033 369.314822 
L 432.774762 369.357812 
L 432.808581 369.308668 
L 432.910039 368.779547 
L 433.34969 364.679886 
L 433.434239 364.967185 
L 433.721703 367.173381 
L 434.026077 369.278934 
L 434.161354 369.349752 
L 434.178264 369.338429 
L 434.313541 369.134958 
L 434.499547 368.474289 
L 434.736282 366.592765 
L 435.091385 362.806641 
L 435.108295 362.811221 
L 435.395759 363.368659 
L 435.446488 363.334973 
L 435.581765 363.374542 
L 435.784681 363.354312 
L 436.156693 363.833638 
L 436.511796 365.164849 
L 437.086724 368.731749 
L 437.357279 369.358458 
L 437.458737 369.223842 
L 437.847659 368.244363 
L 437.932207 368.295157 
L 438.118213 368.715252 
L 438.371858 369.359417 
L 438.405677 369.324864 
L 438.507135 368.794146 
L 438.676232 366.276156 
L 439.065154 359.921758 
L 439.386437 357.556013 
L 439.403347 357.609387 
L 439.75845 360.900569 
L 440.113552 369.342839 
L 440.181191 367.178914 
L 440.282649 351.426186 
L 440.434836 274.188902 
L 440.654661 152.277101 
L 440.688481 156.564968 
L 440.806848 222.91777 
L 441.094312 362.597235 
L 441.229589 369.359891 
L 441.246499 369.309942 
L 441.347957 367.509669 
L 441.68615 361.701756 
L 442.041253 359.40338 
L 442.17653 359.224505 
L 442.19344 359.295078 
L 442.328717 360.968272 
L 442.734549 369.358753 
L 442.802187 369.216715 
L 442.988194 367.758787 
L 443.258748 365.79911 
L 443.360206 365.842362 
L 443.512393 366.435499 
L 444.070411 369.35966 
L 444.12114 369.331537 
L 444.256418 369.029254 
L 444.408605 368.18299 
L 444.712978 364.492399 
L 444.932804 363.029559 
L 445.034262 363.06715 
L 445.490822 363.859397 
L 445.507732 363.836484 
L 445.761377 363.587717 
L 445.862835 363.741063 
L 446.09957 364.867561 
L 446.843595 369.269943 
L 446.978872 369.347234 
L 446.995782 369.331417 
L 447.131059 368.976965 
L 447.604529 367.150124 
L 447.722897 367.233786 
L 447.858174 367.810234 
L 448.162548 369.359536 
L 448.196367 369.322416 
L 448.297825 368.835598 
L 448.517651 366.28167 
L 448.940392 361.166122 
L 449.126398 360.612039 
L 449.160217 360.64496 
L 449.210946 360.745321 
L 449.329314 361.596113 
L 449.599868 365.09191 
L 449.819694 369.352669 
L 449.870423 368.797999 
L 449.954971 362.424892 
L 450.073339 328.512441 
L 450.377713 145.000594 
L 450.479171 175.99212 
L 450.885002 366.552776 
L 450.98646 369.356074 
L 451.037189 369.068667 
L 451.629027 362.636838 
L 451.730485 362.795697 
L 451.848853 363.431725 
L 452.102497 366.301881 
L 452.389961 369.208406 
L 452.491419 369.356823 
L 452.525239 369.312042 
L 452.643606 368.765231 
L 453.083257 365.204152 
L 453.167806 365.452243 
L 453.303083 366.299357 
L 453.776553 369.28351 
L 453.94565 369.343543 
L 454.064017 369.160679 
L 454.233114 368.36759 
L 454.571307 364.930055 
L 454.740403 364.179223 
L 454.92641 364.632938 
L 455.230783 365.422741 
L 455.433699 365.585011 
L 455.450609 365.570189 
L 455.687344 365.089047 
L 455.704254 365.108817 
L 455.856441 365.265452 
L 456.143905 366.65419 
L 456.701923 369.265302 
L 456.837201 369.347006 
L 456.85411 369.332337 
L 456.989388 369.04647 
L 457.581225 367.448442 
L 457.598135 367.460056 
L 457.750322 367.924413 
L 458.037786 369.359465 
L 458.088515 369.25249 
L 458.206883 368.350481 
L 458.511256 363.514633 
L 458.84945 359.64625 
L 458.950907 359.50992 
L 458.967817 359.546764 
L 459.069275 359.828998 
L 459.373649 362.758942 
L 459.694932 369.345914 
L 459.762571 368.243195 
L 459.847119 359.765661 
L 459.965487 319.674417 
L 460.252951 146.863914 
L 460.337499 169.017866 
L 460.79406 368.687398 
L 460.844789 369.359537 
L 460.895518 368.986156 
L 461.352078 363.174743 
L 461.487356 362.761742 
L 461.571904 362.83535 
L 461.707181 363.451032 
L 461.977736 366.085549 
L 462.299019 369.268097 
L 462.366658 369.358003 
L 462.400477 369.308782 
L 462.501935 368.807305 
L 462.873947 365.38691 
L 462.992315 365.67887 
L 463.24596 367.261941 
L 463.601062 369.315712 
L 463.753249 369.32483 
L 463.905436 369.070876 
L 464.666371 367.351814 
L 464.801648 367.029084 
L 465.072202 366.178023 
L 465.089112 366.189781 
L 465.275118 366.322821 
L 465.68095 366.419386 
L 465.69786 366.36756 
L 466.103691 364.865284 
L 466.15442 364.931971 
L 466.441884 365.438592 
L 466.898445 367.956697 
L 467.236638 369.357807 
L 467.321186 369.219616 
L 467.490283 368.356184 
L 467.794657 367.022252 
L 467.811566 367.042407 
L 467.997573 367.572154 
L 468.14976 368.314929 
L 468.386495 369.359699 
L 468.420314 369.331112 
L 468.521772 368.826757 
L 468.741597 366.154688 
L 469.198158 360.721985 
L 469.316526 360.38004 
L 469.401074 360.535331 
L 469.519442 361.155672 
L 469.840725 365.268265 
L 470.043641 369.354155 
L 470.07746 368.953076 
L 470.162008 363.486743 
L 470.280376 334.565336 
L 470.500202 195.68766 
L 470.618569 156.541365 
L 470.652388 161.94517 
L 470.787666 240.017215 
L 471.05822 362.064484 
L 471.210407 369.354568 
L 471.227317 369.274061 
L 471.362594 366.864151 
L 471.616239 363.70995 
L 471.886793 362.780105 
L 472.02207 363.299807 
L 472.394083 366.877583 
L 472.732276 369.359833 
L 472.799915 369.233075 
L 472.935192 368.322173 
L 473.256475 365.883063 
L 473.273385 365.899817 
L 473.357933 366.123444 
L 473.932861 369.328954 
L 474.034319 369.340207 
L 474.051229 369.322741 
L 474.203416 368.968302 
L 474.812163 367.153495 
L 474.829073 367.158346 
L 475.217995 367.4153 
L 475.251814 367.348228 
L 475.45473 366.669901 
L 475.590008 366.35114 
L 475.640737 366.399823 
L 475.792923 366.508025 
L 475.928201 366.451247 
L 476.384761 364.811291 
L 476.706045 362.943766 
L 476.892051 363.158816 
L 477.044238 363.70724 
L 477.838992 369.348254 
L 477.94045 369.295783 
L 478.177185 368.425582 
L 478.447739 367.707219 
L 478.549197 367.814394 
L 478.718294 368.497445 
L 478.938119 369.359914 
L 478.971938 369.332886 
L 479.073396 368.830579 
L 479.276312 365.980451 
L 479.766692 359.061485 
L 479.85124 358.780583 
L 479.901969 358.923534 
L 480.121795 360.777604 
L 480.426169 365.417923 
L 480.629085 369.34911 
L 480.662904 368.906163 
L 480.747452 363.277076 
L 480.86582 334.192694 
L 481.085645 195.446472 
L 481.204013 156.873984 
L 481.237832 162.561557 
L 481.390019 252.124337 
L 481.643664 361.453415 
L 481.795851 369.354882 
L 481.81276 369.339196 
L 481.897309 368.342928 
L 482.218592 364.251223 
L 482.472237 363.320343 
L 482.489147 363.328822 
L 482.556785 363.604146 
L 482.742791 365.063412 
L 483.233171 369.359266 
L 483.2839 369.314881 
L 483.402268 368.789641 
L 483.588274 366.579678 
L 483.875738 363.579346 
L 483.909558 363.587919 
L 483.926467 363.618453 
L 484.044835 364.278493 
L 484.653582 369.303135 
L 484.805769 369.338789 
L 484.991775 368.995871 
L 485.329969 368.064601 
L 485.363788 368.078332 
L 485.532884 368.371778 
L 485.837258 368.728517 
L 485.854168 368.715301 
L 485.955626 368.592732 
L 486.378367 367.903053 
L 486.530554 367.707311 
L 487.20694 365.680915 
L 487.443675 365.085674 
L 487.663501 364.77189 
L 487.73114 364.998838 
L 487.950965 366.897981 
L 488.255339 368.764362 
L 488.475164 369.359598 
L 488.492074 369.351823 
L 488.593532 369.132148 
L 488.931725 367.483294 
L 489.134641 367.051101 
L 489.236099 367.234484 
L 489.506653 368.62556 
L 489.67575 369.35982 
L 489.726479 369.267671 
L 489.844846 368.34789 
L 490.538142 360.935466 
L 490.588871 360.794683 
L 490.6396 360.971162 
L 490.791787 361.999873 
L 491.045432 365.063316 
L 491.282167 369.353346 
L 491.332896 368.870499 
L 491.417444 363.942299 
L 491.535812 339.06522 
L 491.721818 235.50201 
L 491.874005 172.83883 
L 491.907824 176.531183 
L 492.043101 250.392289 
L 492.313656 364.758645 
L 492.448933 369.355537 
L 492.465843 369.294675 
L 492.60112 367.584458 
L 492.888584 364.472627 
L 493.10841 363.445497 
L 493.142229 363.527852 
L 493.277506 364.347 
L 493.936983 369.359717 
L 494.004621 369.281332 
L 494.156808 368.509527 
L 494.495001 365.688318 
L 494.596459 365.865624 
L 494.833194 367.483908 
L 495.171388 369.258941 
L 495.323574 369.348442 
L 495.340484 369.337593 
L 495.509581 369.077538 
L 496.202876 367.752436 
L 496.253605 367.752247 
L 496.287425 367.697564 
L 496.439612 367.440196 
L 496.862353 366.167109 
L 496.879263 366.194011 
L 496.99763 366.268593 
L 497.01454 366.235889 
L 497.50492 365.336817 
L 497.809294 364.332623 
L 497.944571 364.382319 
L 497.9953 364.318467 
L 498.029119 364.381356 
L 498.198216 365.16286 
L 498.418041 366.805381 
L 498.925331 369.357917 
L 499.026789 369.21247 
L 499.212795 368.440022 
L 499.550988 367.451405 
L 499.703175 367.752286 
L 500.075187 369.356917 
L 500.142826 369.138299 
L 500.295013 367.64315 
L 500.954489 358.926453 
L 500.988309 359.022116 
L 501.072857 359.45108 
L 501.360321 362.26674 
L 501.529418 365.3619 
L 501.715424 369.359724 
L 501.766153 368.557336 
L 501.850701 361.783136 
L 501.969069 328.171963 
L 502.290352 149.258842 
L 502.3749 177.123247 
L 502.797642 367.559674 
L 502.88219 369.359245 
L 502.932919 369.00278 
L 503.457118 363.048772 
L 503.474028 363.053852 
L 503.727673 363.729833 
L 503.964408 365.75613 
L 504.33642 369.345754 
L 504.387149 369.345666 
L 504.420969 369.271239 
L 504.556246 368.459382 
L 504.928258 365.626757 
L 504.978987 365.720455 
L 505.097355 366.206865 
L 505.537006 369.265625 
L 505.655373 369.355852 
L 505.689193 369.334853 
L 505.892109 369.018983 
L 506.382489 367.703985 
L 506.568495 367.624628 
L 506.754501 367.831319 
L 506.771411 367.80134 
L 506.957417 367.284133 
L 507.194152 366.393431 
L 507.413977 366.667874 
L 507.464706 366.723043 
L 507.515435 366.628639 
L 507.735261 366.19181 
L 507.971996 365.164086 
L 508.310189 364.014345 
L 508.394737 363.962804 
L 508.428557 364.0031 
L 509.088033 368.001185 
L 509.341678 369.354011 
L 509.426226 369.272542 
L 509.561504 368.705299 
L 509.899697 367.045194 
L 509.916606 367.062832 
L 510.051884 367.396948 
L 510.356257 368.827033 
L 510.491535 369.359996 
L 510.525354 369.30697 
L 510.626812 368.554116 
L 510.880457 364.381811 
L 511.337017 357.917175 
L 511.370837 357.906985 
L 511.387746 357.858638 
L 511.404656 357.816302 
L 511.438475 357.991983 
L 511.556843 358.457744 
L 512.030313 366.196776 
L 512.16559 369.344167 
L 512.216319 368.734947 
L 512.300868 361.624623 
L 512.419235 324.315495 
L 512.740519 121.213804 
L 512.825067 153.514038 
L 513.247808 367.766956 
L 513.332357 369.346316 
L 513.366176 369.031985 
L 513.958014 361.72785 
L 514.025652 361.778232 
L 514.245478 363.340846 
L 514.854225 369.359327 
L 514.888045 369.32823 
L 514.989503 368.922758 
L 515.226238 366.398508 
L 515.395334 365.403559 
L 515.429154 365.410897 
L 515.547521 365.754165 
L 515.801166 367.649492 
L 516.054811 369.275161 
L 516.173178 369.348612 
L 516.190088 369.338359 
L 516.376094 368.971184 
L 516.967932 367.477299 
L 517.018661 367.574325 
L 517.204667 367.720068 
L 517.221577 367.70558 
L 517.306125 367.491111 
L 517.610499 366.354282 
L 517.627409 366.361036 
L 517.931783 366.995622 
L 518.219247 366.909179 
L 518.337614 366.55806 
L 518.608169 365.605265 
L 518.625078 365.626237 
L 518.658898 365.524315 
L 518.794175 365.430081 
L 518.946362 365.51316 
L 519.166187 366.227652 
L 519.808754 369.359608 
L 519.825664 369.350183 
L 519.927122 369.090401 
L 520.096218 367.870546 
L 520.383682 366.46938 
L 520.51896 366.281554 
L 520.552779 366.297267 
L 520.603508 366.395883 
L 520.789514 367.882745 
L 521.00934 369.358862 
L 521.043159 369.301668 
L 521.144617 368.677803 
L 521.381352 365.22167 
L 521.736455 360.637118 
L 521.770274 360.559391 
L 521.854822 360.625513 
L 521.905551 360.646942 
L 522.243744 362.793889 
L 522.379022 364.541431 
L 522.632667 369.352688 
L 522.683396 368.429381 
L 522.767944 360.918575 
L 522.886311 324.308355 
L 523.190685 136.463393 
L 523.292143 168.051942 
L 523.714884 367.52703 
L 523.799433 369.357514 
L 523.850162 369.045562 
L 524.442 362.94502 
L 524.458909 362.950355 
L 524.628006 363.722343 
L 525.000018 367.751985 
L 525.236753 369.337309 
L 525.287482 369.355708 
L 525.321302 369.307467 
L 525.439669 368.731205 
L 525.845501 365.566551 
L 525.930049 365.676768 
L 526.149875 366.987857 
L 526.555706 369.34444 
L 526.690984 369.30835 
L 526.843171 369.025541 
L 527.046086 368.155949 
L 527.401189 366.826993 
L 527.468828 366.93893 
L 527.82393 368.047876 
L 527.959208 368.303819 
L 527.993027 368.282595 
L 528.077575 368.173827 
L 528.449588 367.281558 
L 528.669413 366.783664 
L 529.31198 363.720621 
L 529.497986 363.279278 
L 529.599444 363.319049 
L 529.80236 364.160199 
L 530.563295 369.357307 
L 530.664752 369.27191 
L 530.833849 368.629383 
L 531.155132 367.370505 
L 531.172042 367.380135 
L 531.25659 367.475494 
L 531.510235 368.57711 
L 531.696241 369.35935 
L 531.730061 369.330778 
L 531.831519 368.776413 
L 532.051344 365.650458 
L 532.423357 360.817183 
L 532.575543 360.192684 
L 532.609363 360.241146 
L 532.677001 360.440291 
L 532.896827 362.098222 
L 533.167381 365.556434 
L 533.370297 369.348806 
L 533.404117 368.927683 
L 533.488665 363.453411 
L 533.607032 335.276464 
L 533.928316 169.806389 
L 534.029774 198.075007 
L 534.435605 366.998952 
L 534.537063 369.359963 
L 534.587792 369.001035 
L 535.111992 363.400078 
L 535.21345 363.20262 
L 535.247269 363.264334 
L 535.433275 364.461962 
L 535.720739 367.432748 
L 536.008203 369.344393 
L 536.058932 369.342034 
L 536.075842 369.310997 
L 536.1773 368.831726 
L 536.583132 365.539583 
L 536.65077 365.690206 
L 537.039692 368.196046 
L 537.310247 369.33913 
L 537.445524 369.325757 
L 537.63153 368.984206 
L 537.766807 368.489662 
L 538.13882 367.11473 
L 538.172639 367.139625 
L 538.291007 367.367909 
L 538.646109 368.54048 
L 538.781387 368.508942 
L 538.984303 367.929708 
L 539.237947 367.393189 
L 539.254857 367.399583 
L 539.59305 367.018131 
L 539.829785 366.010358 
L 540.252527 363.580485 
L 540.286346 363.625714 
L 540.438533 363.965669 
L 540.725997 365.800576 
L 541.182558 368.986882 
L 541.351654 369.356388 
L 541.368564 369.345286 
L 541.486931 369.032922 
L 541.994221 367.47025 
L 542.011131 367.504056 
L 542.247866 368.40743 
L 542.467691 369.359533 
L 542.501511 369.336528 
L 542.602969 368.884738 
L 542.805884 366.44673 
L 543.262445 361.008583 
L 543.397722 360.564439 
L 543.414632 360.577919 
L 543.566819 361.266211 
L 543.938831 366.274238 
L 544.124837 369.358343 
L 544.175566 368.82517 
L 544.260115 363.676847 
L 544.378482 337.800928 
L 544.598308 212.571091 
L 544.716675 174.990218 
L 544.750495 179.28629 
L 544.868862 238.496395 
L 545.156326 362.455042 
L 545.325423 369.356073 
L 545.393062 368.845359 
L 545.815803 364.635647 
L 545.96799 364.245064 
L 546.052538 364.417684 
L 546.153996 364.937262 
L 546.407641 367.267449 
L 546.712015 369.320982 
L 546.779653 369.35284 
L 546.813473 369.295449 
L 546.93184 368.625127 
L 547.202395 364.940896 
L 547.40531 363.949967 
L 547.456039 364.066872 
L 547.675865 365.142494 
L 548.250793 369.359164 
L 548.369161 369.267559 
L 548.555167 368.75544 
L 548.927179 367.774501 
L 548.977908 367.843017 
L 549.130095 368.122814 
L 549.468288 368.622704 
L 549.721933 368.175534 
L 549.975578 367.597153 
L 550.161584 367.475159 
L 550.635055 366.130109 
L 550.990157 364.739757 
L 551.209983 364.324386 
L 551.243802 364.403598 
L 551.446718 365.515163 
L 551.970917 369.044285 
L 552.123104 369.359885 
L 552.156923 369.343045 
L 552.275291 369.097135 
L 552.79949 367.35311 
L 552.867129 367.483319 
L 552.985496 368.026446 
L 553.239141 369.35922 
L 553.28987 369.287689 
L 553.425148 368.350287 
L 554.202992 360.518766 
L 554.28754 360.839535 
L 554.676462 365.342207 
L 554.913197 369.359954 
L 554.963926 368.747397 
L 555.048474 363.403458 
L 555.166842 336.690191 
L 555.403577 199.265773 
L 555.505035 172.729265 
L 555.538854 178.318568 
L 555.691041 262.939621 
L 555.944686 362.877761 
L 556.096873 369.359605 
L 556.113783 369.328561 
L 556.198331 368.345966 
L 556.553434 364.128758 
L 556.773259 363.433752 
L 556.823988 363.526631 
L 556.942356 364.180217 
L 557.534194 369.359964 
L 557.618742 369.175265 
L 557.770929 367.904492 
L 558.17676 363.709663 
L 558.21058 363.727396 
L 558.278218 364.077038 
L 558.582592 366.802929 
L 558.886966 369.190121 
L 559.005334 369.358036 
L 559.039153 369.330161 
L 559.19134 368.886545 
L 559.732449 366.424456 
L 559.783178 366.493788 
L 559.867726 366.712893 
L 560.544112 368.664289 
L 560.594841 368.636719 
L 560.747028 368.38773 
L 561.355775 366.778743 
L 562.13362 362.739896 
L 562.201258 362.659968 
L 562.251987 362.701353 
L 562.370355 362.94923 
L 562.640909 365.014695 
L 563.148199 369.160924 
L 563.300386 369.357421 
L 563.317295 369.348479 
L 563.452573 369.063648 
L 563.858404 367.884035 
L 563.892224 367.944259 
L 564.09514 368.585866 
L 564.314965 369.359827 
L 564.348784 369.32932 
L 564.450242 368.807271 
L 564.653158 366.31731 
L 565.211177 359.825567 
L 565.244996 359.773707 
L 565.278815 359.871683 
L 565.447912 361.313207 
L 566.02284 369.359579 
L 566.073569 368.716685 
L 566.158117 363.153899 
L 566.276485 336.055072 
L 566.49631 207.074284 
L 566.597768 171.710122 
L 566.648497 177.156114 
L 566.800684 263.138125 
L 567.054329 362.929143 
L 567.206516 369.357834 
L 567.223426 369.337184 
L 567.307974 368.466144 
L 567.663077 364.425767 
L 567.781444 364.057474 
L 567.832173 364.130261 
L 568.00127 364.688215 
L 568.305644 367.267249 
L 568.610017 369.359213 
L 568.677656 369.264777 
L 568.812933 368.352876 
L 569.303313 362.231775 
L 569.421681 362.314786 
L 569.556958 363.053869 
L 570.250254 369.358026 
L 570.267163 369.345453 
L 570.385531 368.976199 
L 570.875911 366.963365 
L 570.892821 366.974407 
L 571.264833 368.011938 
L 571.552297 368.574616 
L 571.856671 368.681291 
L 571.958129 368.436621 
L 572.330141 367.371039 
L 572.363961 367.397366 
L 572.431599 367.3727 
L 572.448509 367.330064 
L 572.617605 366.86365 
L 572.90507 365.166041 
L 573.209443 363.100275 
L 573.260172 363.132253 
L 573.344721 363.327562 
L 574.443848 369.359921 
L 574.528396 369.229675 
L 575.018776 367.739371 
L 575.103325 367.829874 
L 575.238602 368.333984 
L 575.475337 369.358133 
L 575.492247 369.342437 
L 575.576795 368.973235 
L 575.779711 366.749145 
L 576.337729 360.890353 
L 576.405368 360.727848 
L 576.456097 360.805256 
L 576.608284 361.961777 
L 577.166303 369.345817 
L 577.217031 368.524506 
L 577.30158 362.738953 
L 577.419947 336.090843 
L 577.622863 220.094099 
L 577.75814 171.304781 
L 577.79196 176.088949 
L 577.927237 250.567762 
L 578.197791 363.07703 
L 578.366888 369.358016 
L 578.434527 368.929904 
L 578.941816 364.770111 
L 578.975636 364.693477 
L 579.026365 364.817019 
L 579.178551 365.299952 
L 579.449106 367.442508 
L 579.71966 369.359769 
L 579.73657 369.355657 
L 579.821118 369.126787 
L 579.956396 368.041096 
L 580.463685 361.222085 
L 580.514414 361.465402 
L 580.565143 361.624506 
L 580.869517 364.909533 
L 581.1908 368.714366 
L 581.427535 369.357209 
L 581.512084 369.202274 
L 581.715 368.12725 
L 581.951735 367.075563 
L 581.968644 367.07915 
L 582.103922 367.396434 
L 582.442115 368.135895 
L 582.67885 368.400743 
L 582.831037 368.499474 
L 582.983224 368.061386 
L 583.219959 367.034659 
L 583.270688 367.057809 
L 583.541242 366.904527 
L 583.811797 365.899532 
L 583.997803 364.744461 
L 584.302177 362.43028 
L 584.403635 362.405957 
L 584.437454 362.44289 
L 584.505093 362.557157 
L 584.674189 363.241818 
L 584.843286 364.858157 
L 585.401304 369.294662 
L 585.536582 369.346806 
L 585.553491 369.332213 
L 585.705678 368.967493 
L 586.010052 368.020433 
L 586.07769 368.057468 
L 586.229877 368.369165 
L 586.483522 369.359561 
L 586.534251 369.282343 
L 586.669528 368.283518 
L 586.906264 364.523544 
L 587.227547 359.764638 
L 587.379734 359.356656 
L 587.413553 359.398999 
L 587.599559 360.165971 
L 587.768656 361.962637 
L 588.03921 366.233445 
L 588.208307 369.358854 
L 588.242126 369.100351 
L 588.326675 364.725225 
L 588.445042 340.354127 
L 588.614139 242.230734 
L 588.800145 154.562368 
L 588.833964 160.504773 
L 588.986151 257.125567 
L 589.239796 363.682119 
L 589.375073 369.35818 
L 589.391983 369.332364 
L 589.476531 368.223732 
L 589.848543 363.467338 
L 590.01764 363.182855 
L 590.03455 363.195295 
L 590.152917 363.561874 
L 590.355833 365.246823 
L 590.846213 369.359957 
L 590.863123 369.353536 
L 590.964581 369.067786 
L 591.116768 367.570477 
L 591.48878 362.949454 
L 591.522599 363.056305 
L 591.860792 366.348898 
L 592.198985 369.29989 
L 592.283534 369.353227 
L 592.317353 369.320646 
L 592.45263 368.967017 
L 592.740094 367.407169 
L 592.926101 366.73483 
L 592.95992 366.74988 
L 593.027558 366.862522 
L 593.517938 368.0387 
L 593.653216 367.864353 
L 593.771583 367.397953 
L 594.042138 366.304965 
L 594.092867 366.354251 
L 594.228144 366.393117 
L 594.245054 366.369064 
L 594.363421 366.203393 
L 594.718524 364.849538 
L 594.836892 364.43294 
L 595.242723 362.635379 
L 595.293452 362.748661 
L 595.445639 363.769003 
L 595.936019 368.546577 
L 596.138935 369.359746 
L 596.155845 369.348606 
L 596.274212 368.970245 
L 596.612405 366.794992 
L 596.781502 366.226952 
L 596.798411 366.237739 
L 596.916779 366.537534 
L 597.052056 367.622898 
L 597.305701 369.359704 
L 597.35643 369.278705 
L 597.457888 368.542152 
L 597.711533 364.219701 
L 598.049726 359.461905 
L 598.235732 358.598768 
L 598.286461 358.66531 
L 598.371009 358.933256 
L 598.455558 359.582297 
L 598.743022 363.697804 
L 598.996667 369.350268 
L 599.030486 368.801421 
L 599.115034 361.437732 
L 599.233402 320.220568 
L 599.470137 105.493241 
L 599.554685 66.96 
L 599.605414 77.410187 
L 599.757601 208.865441 
L 600.011246 359.85269 
L 600.163433 369.352964 
L 600.180342 369.247383 
L 600.31562 366.17752 
L 600.569264 362.315755 
L 600.873638 360.978128 
L 600.907458 361.052272 
L 601.042735 362.373585 
L 601.566934 369.148747 
L 601.651482 369.359308 
L 601.702211 369.263227 
L 601.837489 368.211708 
L 602.192591 363.825086 
L 602.24332 363.888304 
L 602.395507 364.733428 
L 602.936616 369.359632 
L 603.004255 369.295826 
L 603.139532 368.814059 
L 603.393177 366.906775 
L 603.663731 365.252209 
L 603.73137 365.157064 
L 603.782099 365.264309 
L 603.968105 366.314871 
L 604.238659 367.776334 
L 604.576853 368.500737 
L 604.661401 368.443738 
L 604.864317 367.75427 
L 605.219419 366.552849 
L 605.422335 365.971025 
L 605.861986 362.865271 
L 606.14945 361.002224 
L 606.217089 360.923135 
L 606.250908 361.048501 
L 606.386186 362.064529 
L 607.214759 369.326364 
L 607.282397 369.347595 
L 607.316217 369.297683 
L 607.451494 368.633804 
L 607.891145 365.514801 
L 607.924964 365.57272 
L 608.060241 366.193157 
L 608.466073 369.358871 
L 608.567531 368.968215 
L 608.736628 366.583871 
L 609.193188 360.470664 
L 609.396104 359.466737 
L 609.413014 359.458915 
L 609.429923 359.498123 
L 609.683568 361.343416 
L 609.835755 363.436578 
L 610.10631 369.352303 
L 610.157039 368.187601 
L 610.241587 358.662915 
L 610.359954 312.248638 
L 610.681238 70.336447 
L 610.765786 109.753755 
L 611.171618 365.35258 
L 611.289985 369.348825 
L 611.323805 369.069979 
L 611.915643 361.435135 
L 611.932552 361.442794 
L 612.135468 362.039673 
L 612.304565 363.83648 
L 612.744216 369.323723 
L 612.778035 369.359708 
L 612.828764 369.256906 
L 612.947132 368.28377 
L 613.352963 363.715407 
L 613.386783 363.787152 
L 613.454421 363.909111 
L 613.741885 366.675732 
L 614.029349 369.143358 
L 614.164627 369.356253 
L 614.181536 369.343408 
L 614.282994 369.103992 
L 614.50282 367.792468 
L 614.857923 365.918166 
L 614.891742 365.977185 
L 614.97629 366.097289 
L 615.145387 366.659365 
L 615.703405 368.744489 
L 615.94014 369.072841 
L 616.244514 369.084572 
L 616.396701 368.683669 
L 617.715654 362.637163 
L 617.732564 362.64558 
L 617.783293 362.701205 
L 618.053847 364.155482 
L 618.40895 367.162995 
L 618.780962 369.359294 
L 618.88242 369.256086 
L 619.068427 368.609122 
L 619.491168 366.703091 
L 619.508078 366.725912 
L 619.710993 367.687368 
L 619.998458 369.359796 
L 620.015367 369.349558 
L 620.099915 369.006433 
L 620.336651 366.627109 
L 620.86085 360.086428 
L 620.87776 360.136429 
L 621.029946 360.764656 
L 621.503417 366.891912 
L 621.655604 369.353546 
L 621.689423 368.996319 
L 621.773971 363.987388 
L 621.892339 336.379247 
L 622.078345 213.942716 
L 622.230532 139.197859 
L 622.264351 143.51035 
L 622.382719 211.007596 
L 622.636364 354.23092 
L 622.636364 354.23092 
" clip-path="url(#pcacf922d5d)" style="fill: none; stroke: #1f77b4; stroke-width: 1.5; stroke-linecap: square"/>
   </g>
   <g id="patch_3">
    <path d="M 90 384.48 
L 90 51.84 
" style="fill: none; stroke: #000000; stroke-width: 0.8; stroke-linejoin: miter; stroke-linecap: square"/>
   </g>
   <g id="patch_4">
    <path d="M 648 384.48 
L 648 51.84 
" style="fill: none; stroke: #000000; stroke-width: 0.8; stroke-linejoin: miter; stroke-linecap: square"/>
   </g>
   <g id="patch_5">
    <path d="M 90 384.48 
L 648 384.48 
" style="fill: none; stroke: #000000; stroke-width: 0.8; stroke-linejoin: miter; stroke-linecap: square"/>
   </g>
   <g id="patch_6">
    <path d="M 90 51.84 
L 648 51.84 
" style="fill: none; stroke: #000000; stroke-width: 0.8; stroke-linejoin: miter; stroke-linecap: square"/>
   </g>
   <g id="text_19">
    <!-- ECG Data Sample Detected Peeks (after X^2) -->
    <g transform="translate(231.380625 45.84) scale(0.12 -0.12)">
     <defs>
      <path id="DejaVuSans-45" d="M 628 4666 
L 3578 4666 
L 3578 4134 
L 1259 4134 
L 1259 2753 
L 3481 2753 
L 3481 2222 
L 1259 2222 
L 1259 531 
L 3634 531 
L 3634 0 
L 628 0 
L 628 4666 
z
" transform="scale(0.015625)"/>
      <path id="DejaVuSans-43" d="M 4122 4306 
L 4122 3641 
Q 3803 3938 3442 4084 
Q 3081 4231 2675 4231 
Q 1875 4231 1450 3742 
Q 1025 3253 1025 2328 
Q 1025 1406 1450 917 
Q 1875 428 2675 428 
Q 3081 428 3442 575 
Q 3803 722 4122 1019 
L 4122 359 
Q 3791 134 3420 21 
Q 3050 -91 2638 -91 
Q 1578 -91 968 557 
Q 359 1206 359 2328 
Q 359 3453 968 4101 
Q 1578 4750 2638 4750 
Q 3056 4750 3426 4639 
Q 3797 4528 4122 4306 
z
" transform="scale(0.015625)"/>
      <path id="DejaVuSans-47" d="M 3809 666 
L 3809 1919 
L 2778 1919 
L 2778 2438 
L 4434 2438 
L 4434 434 
Q 4069 175 3628 42 
Q 3188 -91 2688 -91 
Q 1594 -91 976 548 
Q 359 1188 359 2328 
Q 359 3472 976 4111 
Q 1594 4750 2688 4750 
Q 3144 4750 3555 4637 
Q 3966 4525 4313 4306 
L 4313 3634 
Q 3963 3931 3569 4081 
Q 3175 4231 2741 4231 
Q 1884 4231 1454 3753 
Q 1025 3275 1025 2328 
Q 1025 1384 1454 906 
Q 1884 428 2741 428 
Q 3075 428 3337 486 
Q 3600 544 3809 666 
z
" transform="scale(0.015625)"/>
      <path id="DejaVuSans-44" d="M 1259 4147 
L 1259 519 
L 2022 519 
Q 2988 519 3436 956 
Q 3884 1394 3884 2338 
Q 3884 3275 3436 3711 
Q 2988 4147 2022 4147 
L 1259 4147 
z
M 628 4666 
L 1925 4666 
Q 3281 4666 3915 4102 
Q 4550 3538 4550 2338 
Q 4550 1131 3912 565 
Q 3275 0 1925 0 
L 628 0 
L 628 4666 
z
" transform="scale(0.015625)"/>
      <path id="DejaVuSans-61" d="M 2194 1759 
Q 1497 1759 1228 1600 
Q 959 1441 959 1056 
Q 959 750 1161 570 
Q 1363 391 1709 391 
Q 2188 391 2477 730 
Q 2766 1069 2766 1631 
L 2766 1759 
L 2194 1759 
z
M 3341 1997 
L 3341 0 
L 2766 0 
L 2766 531 
Q 2569 213 2275 61 
Q 1981 -91 1556 -91 
Q 1019 -91 701 211 
Q 384 513 384 1019 
Q 384 1609 779 1909 
Q 1175 2209 1959 2209 
L 2766 2209 
L 2766 2266 
Q 2766 2663 2505 2880 
Q 2244 3097 1772 3097 
Q 1472 3097 1187 3025 
Q 903 2953 641 2809 
L 641 3341 
Q 956 3463 1253 3523 
Q 1550 3584 1831 3584 
Q 2591 3584 2966 3190 
Q 3341 2797 3341 1997 
z
" transform="scale(0.015625)"/>
      <path id="DejaVuSans-53" d="M 3425 4513 
L 3425 3897 
Q 3066 4069 2747 4153 
Q 2428 4238 2131 4238 
Q 1616 4238 1336 4038 
Q 1056 3838 1056 3469 
Q 1056 3159 1242 3001 
Q 1428 2844 1947 2747 
L 2328 2669 
Q 3034 2534 3370 2195 
Q 3706 1856 3706 1288 
Q 3706 609 3251 259 
Q 2797 -91 1919 -91 
Q 1588 -91 1214 -16 
Q 841 59 441 206 
L 441 856 
Q 825 641 1194 531 
Q 1563 422 1919 422 
Q 2459 422 2753 634 
Q 3047 847 3047 1241 
Q 3047 1584 2836 1778 
Q 2625 1972 2144 2069 
L 1759 2144 
Q 1053 2284 737 2584 
Q 422 2884 422 3419 
Q 422 4038 858 4394 
Q 1294 4750 2059 4750 
Q 2388 4750 2728 4690 
Q 3069 4631 3425 4513 
z
" transform="scale(0.015625)"/>
      <path id="DejaVuSans-63" d="M 3122 3366 
L 3122 2828 
Q 2878 2963 2633 3030 
Q 2388 3097 2138 3097 
Q 1578 3097 1268 2742 
Q 959 2388 959 1747 
Q 959 1106 1268 751 
Q 1578 397 2138 397 
Q 2388 397 2633 464 
Q 2878 531 3122 666 
L 3122 134 
Q 2881 22 2623 -34 
Q 2366 -91 2075 -91 
Q 1284 -91 818 406 
Q 353 903 353 1747 
Q 353 2603 823 3093 
Q 1294 3584 2113 3584 
Q 2378 3584 2631 3529 
Q 2884 3475 3122 3366 
z
" transform="scale(0.015625)"/>
      <path id="DejaVuSans-50" d="M 1259 4147 
L 1259 2394 
L 2053 2394 
Q 2494 2394 2734 2622 
Q 2975 2850 2975 3272 
Q 2975 3691 2734 3919 
Q 2494 4147 2053 4147 
L 1259 4147 
z
M 628 4666 
L 2053 4666 
Q 2838 4666 3239 4311 
Q 3641 3956 3641 3272 
Q 3641 2581 3239 2228 
Q 2838 1875 2053 1875 
L 1259 1875 
L 1259 0 
L 628 0 
L 628 4666 
z
" transform="scale(0.015625)"/>
      <path id="DejaVuSans-6b" d="M 581 4863 
L 1159 4863 
L 1159 1991 
L 2875 3500 
L 3609 3500 
L 1753 1863 
L 3688 0 
L 2938 0 
L 1159 1709 
L 1159 0 
L 581 0 
L 581 4863 
z
" transform="scale(0.015625)"/>
      <path id="DejaVuSans-66" d="M 2375 4863 
L 2375 4384 
L 1825 4384 
Q 1516 4384 1395 4259 
Q 1275 4134 1275 3809 
L 1275 3500 
L 2222 3500 
L 2222 3053 
L 1275 3053 
L 1275 0 
L 697 0 
L 697 3053 
L 147 3053 
L 147 3500 
L 697 3500 
L 697 3744 
Q 697 4328 969 4595 
Q 1241 4863 1831 4863 
L 2375 4863 
z
" transform="scale(0.015625)"/>
      <path id="DejaVuSans-72" d="M 2631 2963 
Q 2534 3019 2420 3045 
Q 2306 3072 2169 3072 
Q 1681 3072 1420 2755 
Q 1159 2438 1159 1844 
L 1159 0 
L 581 0 
L 581 3500 
L 1159 3500 
L 1159 2956 
Q 1341 3275 1631 3429 
Q 1922 3584 2338 3584 
Q 2397 3584 2469 3576 
Q 2541 3569 2628 3553 
L 2631 2963 
z
" transform="scale(0.015625)"/>
      <path id="DejaVuSans-58" d="M 403 4666 
L 1081 4666 
L 2241 2931 
L 3406 4666 
L 4084 4666 
L 2584 2425 
L 4184 0 
L 3506 0 
L 2194 1984 
L 872 0 
L 191 0 
L 1856 2491 
L 403 4666 
z
" transform="scale(0.015625)"/>
      <path id="DejaVuSans-5e" d="M 2988 4666 
L 4684 2925 
L 4056 2925 
L 2681 4159 
L 1306 2925 
L 678 2925 
L 2375 4666 
L 2988 4666 
z
" transform="scale(0.015625)"/>
     </defs>
     <use xlink:href="#DejaVuSans-45"/>
     <use xlink:href="#DejaVuSans-43" x="63.183594"/>
     <use xlink:href="#DejaVuSans-47" x="133.007812"/>
     <use xlink:href="#DejaVuSans-20" x="210.498047"/>
     <use xlink:href="#DejaVuSans-44" x="242.285156"/>
     <use xlink:href="#DejaVuSans-61" x="319.287109"/>
     <use xlink:href="#DejaVuSans-74" x="380.566406"/>
     <use xlink:href="#DejaVuSans-61" x="419.775391"/>
     <use xlink:href="#DejaVuSans-20" x="481.054688"/>
     <use xlink:href="#DejaVuSans-53" x="512.841797"/>
     <use xlink:href="#DejaVuSans-61" x="576.318359"/>
     <use xlink:href="#DejaVuSans-6d" x="637.597656"/>
     <use xlink:href="#DejaVuSans-70" x="735.009766"/>
     <use xlink:href="#DejaVuSans-6c" x="798.486328"/>
     <use xlink:href="#DejaVuSans-65" x="826.269531"/>
     <use xlink:href="#DejaVuSans-20" x="887.792969"/>
     <use xlink:href="#DejaVuSans-44" x="919.580078"/>
     <use xlink:href="#DejaVuSans-65" x="996.582031"/>
     <use xlink:href="#DejaVuSans-74" x="1058.105469"/>
     <use xlink:href="#DejaVuSans-65" x="1097.314453"/>
     <use xlink:href="#DejaVuSans-63" x="1158.837891"/>
     <use xlink:href="#DejaVuSans-74" x="1213.818359"/>
     <use xlink:href="#DejaVuSans-65" x="1253.027344"/>
     <use xlink:href="#DejaVuSans-64" x="1314.550781"/>
     <use xlink:href="#DejaVuSans-20" x="1378.027344"/>
     <use xlink:href="#DejaVuSans-50" x="1409.814453"/>
     <use xlink:href="#DejaVuSans-65" x="1466.492188"/>
     <use xlink:href="#DejaVuSans-65" x="1528.015625"/>
     <use xlink:href="#DejaVuSans-6b" x="1589.539062"/>
     <use xlink:href="#DejaVuSans-73" x="1647.449219"/>
     <use xlink:href="#DejaVuSans-20" x="1699.548828"/>
     <use xlink:href="#DejaVuSans-28" x="1731.335938"/>
     <use xlink:href="#DejaVuSans-61" x="1770.349609"/>
     <use xlink:href="#DejaVuSans-66" x="1831.628906"/>
     <use xlink:href="#DejaVuSans-74" x="1865.083984"/>
     <use xlink:href="#DejaVuSans-65" x="1904.292969"/>
     <use xlink:href="#DejaVuSans-72" x="1965.816406"/>
     <use xlink:href="#DejaVuSans-20" x="2006.929688"/>
     <use xlink:href="#DejaVuSans-58" x="2038.716797"/>
     <use xlink:href="#DejaVuSans-5e" x="2107.222656"/>
     <use xlink:href="#DejaVuSans-32" x="2191.011719"/>
     <use xlink:href="#DejaVuSans-29" x="2254.634766"/>
    </g>
   </g>
  </g>
 </g>
 <defs>
  <clipPath id="pcacf922d5d">
   <rect x="90" y="51.84" width="558" height="332.64"/>
  </clipPath>
 </defs>
</svg>
